DINdong.ufo
<glyph name="exclam" format="2">
	<advance width="611"/>
	<unicode hex="0021"/>
	<note>
		exclam
	</note>
	<outline>
		<contour>
			<point x="268" y="1444" type="line"/>
			<point x="268" y="372" type="line"/>
			<point x="402" y="372" type="line"/>
			<point x="402" y="1444" type="line"/>
		</contour>
		<contour>
			<point x="269" y="174" type="line"/>
			<point x="269" y="0" type="line"/>
			<point x="403" y="0" type="line"/>
			<point x="403" y="174" type="line"/>
		</contour>
	</outline>
</glyph>
<glyph name="quotedbl" format="2">
	<advance width="772"/>
	<unicode hex="0022"/>
	<note>
		quotedbl
	</note>
	<outline>
		<contour>
			<point x="530" y="1554" type="line"/>
			<point x="530" y="1193" type="line"/>
			<point x="664" y="1193" type="line"/>
			<point x="664" y="1554" type="line"/>
		</contour>
		<contour>
			<point x="208" y="1554" type="line"/>
			<point x="208" y="1193" type="line"/>
			<point x="342" y="1193" type="line"/>
			<point x="342" y="1554" type="line"/>
		</contour>
	</outline>
</glyph>
<glyph name="numbersign" format="2">
	<advance width="2217"/>
	<unicode hex="0023"/>
	<note>
		numbersign
	</note>
	<outline>
		<contour>
			<point x="752" y="328" type="line"/>
			<point x="608" y="0" type="line"/>
			<point x="746" y="0" type="line"/>
			<point x="890" y="328" type="line"/>
			<point x="1152" y="328" type="line"/>
			<point x="1008" y="0" type="line"/>
			<point x="1146" y="0" type="line"/>
			<point x="1290" y="328" type="line"/>
			<point x="2004" y="328" type="line"/>
			<point x="2004" y="462" type="line"/>
			<point x="1348" y="462" type="line"/>
			<point x="1407" y="595" type="line"/>
			<point x="2009" y="595" type="line"/>
			<point x="2009" y="729" type="line"/>
			<point x="1465" y="729" type="line"/>
			<point x="1593" y="1020" type="line"/>
			<point x="1455" y="1020" type="line"/>
			<point x="1327" y="729" type="line"/>
			<point x="1065" y="729" type="line"/>
			<point x="1193" y="1020" type="line"/>
			<point x="1055" y="1020" type="line"/>
			<point x="927" y="729" type="line"/>
			<point x="213" y="729" type="line"/>
			<point x="213" y="595" type="line"/>
			<point x="869" y="595" type="line"/>
			<point x="810" y="462" type="line"/>
			<point x="208" y="462" type="line"/>
			<point x="208" y="328" type="line"/>
		</contour>
		<contour>
			<point x="1210" y="462" type="line"/>
			<point x="948" y="462" type="line"/>
			<point x="1007" y="595" type="line"/>
			<point x="1269" y="595" type="line"/>
		</contour>
	</outline>
</glyph>
<glyph name="dollar" format="2">
	<advance width="1265"/>
	<unicode hex="0024"/>
	<note>
		dollar
	</note>
	<outline>
		<contour>
			<point x="366" y="40" type="curve"/>
			<point x="408" y="28" type="line"/>
			<point x="407" y="-164" type="line"/>
			<point x="547" y="-164" type="line"/>
			<point x="547" y="3" type="line"/>
			<point x="581" y="0"/>
			<point x="617" y="-2"/>
			<point x="655" y="-2" type="curve" smooth="yes"/>
			<point x="684" y="-2"/>
			<point x="714" y="0"/>
			<point x="745" y="3" type="curve"/>
			<point x="744" y="-160" type="line"/>
			<point x="884" y="-160" type="line"/>
			<point x="884" y="30" type="line"/>
			<point x="915" y="39"/>
			<point x="944" y="51"/>
			<point x="972" y="64" type="curve" smooth="yes"/>
			<point x="1006" y="81"/>
			<point x="1037" y="101"/>
			<point x="1066" y="124" type="curve" smooth="yes"/>
			<point x="1095" y="147"/>
			<point x="1118" y="175"/>
			<point x="1136" y="208" type="curve" smooth="yes"/>
			<point x="1155" y="241"/>
			<point x="1166" y="278"/>
			<point x="1170" y="318" type="curve" smooth="yes"/>
			<point x="1175" y="375"/>
			<point x="1171" y="426"/>
			<point x="1156" y="470" type="curve" smooth="yes"/>
			<point x="1142" y="514"/>
			<point x="1121" y="550"/>
			<point x="1092" y="578" type="curve" smooth="yes"/>
			<point x="1063" y="606"/>
			<point x="1026" y="629"/>
			<point x="981" y="646" type="curve" smooth="yes"/>
			<point x="950" y="659"/>
			<point x="918" y="668"/>
			<point x="884" y="675" type="curve"/>
			<point x="884" y="1079" type="line"/>
			<point x="898" y="1073"/>
			<point x="911" y="1066"/>
			<point x="922" y="1058" type="curve" smooth="yes"/>
			<point x="946" y="1042"/>
			<point x="967" y="1020"/>
			<point x="985" y="992" type="curve" smooth="yes"/>
			<point x="1003" y="964"/>
			<point x="1015" y="932"/>
			<point x="1021" y="895" type="curve"/>
			<point x="1163" y="895" type="line"/>
			<point x="1162" y="944"/>
			<point x="1152" y="988"/>
			<point x="1132" y="1029" type="curve" smooth="yes"/>
			<point x="1091" y="1110"/>
			<point x="1022" y="1165"/>
			<point x="933" y="1204" type="curve" smooth="yes"/>
			<point x="917" y="1211"/>
			<point x="901" y="1218"/>
			<point x="884" y="1224" type="curve"/>
			<point x="884" y="1464" type="line"/>
			<point x="750" y="1464" type="line"/>
			<point x="749" y="1255" type="line"/>
			<point x="715" y="1260"/>
			<point x="680" y="1262"/>
			<point x="645" y="1262" type="curve" smooth="yes"/>
			<point x="612" y="1262"/>
			<point x="579" y="1260"/>
			<point x="547" y="1257" type="curve"/>
			<point x="547" y="1460" type="line"/>
			<point x="413" y="1460" type="line"/>
			<point x="412" y="1231" type="line"/>
			<point x="367" y="1218"/>
			<point x="325" y="1202"/>
			<point x="286" y="1182" type="curve" smooth="yes"/>
			<point x="237" y="1156"/>
			<point x="195" y="1122"/>
			<point x="162" y="1081" type="curve" smooth="yes"/>
			<point x="129" y="1040"/>
			<point x="109" y="993"/>
			<point x="100" y="942" type="curve"/>
			<point x="99" y="940" type="line"/>
			<point x="97" y="930"/>
			<point x="95" y="920"/>
			<point x="94" y="909" type="curve" smooth="yes"/>
			<point x="93" y="898"/>
			<point x="93" y="880"/>
			<point x="96" y="853" type="curve" smooth="yes"/>
			<point x="98" y="826"/>
			<point x="104" y="801"/>
			<point x="114" y="778" type="curve" smooth="yes"/>
			<point x="124" y="755"/>
			<point x="142" y="730"/>
			<point x="168" y="703" type="curve" smooth="yes"/>
			<point x="194" y="675"/>
			<point x="227" y="651"/>
			<point x="266" y="632" type="curve" smooth="yes"/>
			<point x="302" y="615"/>
			<point x="350" y="601"/>
			<point x="410" y="588" type="curve"/>
			<point x="408" y="176" type="line"/>
			<point x="403" y="177"/>
			<point x="399" y="179"/>
			<point x="394" y="181" type="curve" smooth="yes"/>
			<point x="354" y="197"/>
			<point x="321" y="220"/>
			<point x="294" y="250" type="curve" smooth="yes"/>
			<point x="268" y="279"/>
			<point x="252" y="314"/>
			<point x="246" y="354" type="curve"/>
			<point x="97" y="354" type="line"/>
			<point x="98" y="334" type="line" smooth="yes"/>
			<point x="99" y="327"/>
			<point x="101" y="315"/>
			<point x="105" y="298" type="curve" smooth="yes"/>
			<point x="109" y="281"/>
			<point x="114" y="265"/>
			<point x="121" y="250" type="curve" smooth="yes"/>
			<point x="128" y="235"/>
			<point x="138" y="217"/>
			<point x="152" y="196" type="curve" smooth="yes"/>
			<point x="165" y="175"/>
			<point x="181" y="155"/>
			<point x="199" y="138" type="curve" smooth="yes"/>
			<point x="217" y="121"/>
			<point x="241" y="103"/>
			<point x="270" y="86" type="curve" smooth="yes"/>
			<point x="299" y="68"/>
			<point x="331" y="53"/>
		</contour>
		<contour>
			<point x="240" y="936" type="curve" smooth="yes"/>
			<point x="245" y="964"/>
			<point x="257" y="989"/>
			<point x="276" y="1011" type="curve" smooth="yes"/>
			<point x="294" y="1033"/>
			<point x="316" y="1051"/>
			<point x="342" y="1065" type="curve" smooth="yes"/>
			<point x="363" y="1076"/>
			<point x="386" y="1086"/>
			<point x="412" y="1094" type="curve"/>
			<point x="410" y="723" type="line"/>
			<point x="376" y="732"/>
			<point x="347" y="743"/>
			<point x="322" y="756" type="curve" smooth="yes"/>
			<point x="250" y="795"/>
			<point x="223" y="855"/>
		</contour>
		<contour>
			<point x="547" y="142" type="curve"/>
			<point x="547" y="569" type="line"/>
			<point x="583" y="566"/>
			<point x="621" y="565"/>
			<point x="662" y="565" type="curve" smooth="yes"/>
			<point x="692" y="565"/>
			<point x="720" y="564"/>
			<point x="747" y="563" type="curve"/>
			<point x="745" y="142" type="line"/>
			<point x="717" y="139"/>
			<point x="688" y="137"/>
			<point x="657" y="136" type="curve" smooth="yes"/>
			<point x="619" y="135"/>
			<point x="582" y="137"/>
		</contour>
		<contour>
			<point x="547" y="701" type="curve"/>
			<point x="547" y="1119" type="line"/>
			<point x="577" y="1122"/>
			<point x="608" y="1123"/>
			<point x="641" y="1123" type="curve" smooth="yes"/>
			<point x="677" y="1123"/>
			<point x="710" y="1121"/>
			<point x="741" y="1118" type="curve"/>
			<point x="744" y="1117"/>
			<point x="746" y="1117"/>
			<point x="749" y="1117" type="curve"/>
			<point x="747" y="693" type="line"/>
			<point x="720" y="695"/>
			<point x="691" y="696"/>
			<point x="660" y="696" type="curve" smooth="yes"/>
			<point x="619" y="697"/>
			<point x="582" y="698"/>
		</contour>
		<contour>
			<point x="884" y="178" type="curve"/>
			<point x="884" y="541" type="line"/>
			<point x="919" y="532"/>
			<point x="947" y="519"/>
			<point x="970" y="503" type="curve" smooth="yes"/>
			<point x="994" y="486"/>
			<point x="1012" y="463"/>
			<point x="1024" y="432" type="curve" smooth="yes"/>
			<point x="1036" y="402"/>
			<point x="1038" y="367"/>
			<point x="1030" y="326" type="curve" smooth="yes"/>
			<point x="1021" y="287"/>
			<point x="998" y="252"/>
			<point x="960" y="223" type="curve" smooth="yes"/>
			<point x="937" y="205"/>
			<point x="912" y="190"/>
		</contour>
	</outline>
</glyph>
<glyph name="percent" format="2">
	<advance width="1915"/>
	<unicode hex="0025"/>
	<note>
		percent
	</note>
	<outline>
		<contour>
			<point x="1082" y="1404" type="line"/>
			<point x="671" y="-264" type="line"/>
			<point x="809" y="-264" type="line"/>
			<point x="1220" y="1404" type="line"/>
		</contour>
		<contour>
			<point x="219" y="1137" type="curve" smooth="yes"/>
			<point x="219" y="1098"/>
			<point x="226" y="1062"/>
			<point x="241" y="1028" type="curve" smooth="yes"/>
			<point x="256" y="995"/>
			<point x="276" y="965"/>
			<point x="301" y="939" type="curve" smooth="yes"/>
			<point x="326" y="914"/>
			<point x="356" y="894"/>
			<point x="390" y="879" type="curve" smooth="yes"/>
			<point x="424" y="864"/>
			<point x="460" y="857"/>
			<point x="499" y="857" type="curve" smooth="yes"/>
			<point x="536" y="857"/>
			<point x="572" y="864"/>
			<point x="606" y="879" type="curve" smooth="yes"/>
			<point x="640" y="894"/>
			<point x="670" y="914"/>
			<point x="695" y="939" type="curve" smooth="yes"/>
			<point x="746" y="991"/>
			<point x="778" y="1060"/>
			<point x="778" y="1137" type="curve" smooth="yes"/>
			<point x="778" y="1175"/>
			<point x="771" y="1211"/>
			<point x="756" y="1244" type="curve" smooth="yes"/>
			<point x="725" y="1312"/>
			<point x="674" y="1363"/>
			<point x="606" y="1394" type="curve" smooth="yes"/>
			<point x="572" y="1409"/>
			<point x="536" y="1417"/>
			<point x="499" y="1417" type="curve" smooth="yes"/>
			<point x="422" y="1417"/>
			<point x="352" y="1384"/>
			<point x="301" y="1333" type="curve" smooth="yes"/>
			<point x="250" y="1282"/>
			<point x="219" y="1213"/>
		</contour>
		<contour>
			<point x="1148" y="27" type="curve" smooth="yes"/>
			<point x="1148" y="-12"/>
			<point x="1155" y="-48"/>
			<point x="1170" y="-82" type="curve" smooth="yes"/>
			<point x="1185" y="-115"/>
			<point x="1205" y="-145"/>
			<point x="1230" y="-171" type="curve" smooth="yes"/>
			<point x="1281" y="-222"/>
			<point x="1351" y="-253"/>
			<point x="1428" y="-253" type="curve" smooth="yes"/>
			<point x="1465" y="-253"/>
			<point x="1501" y="-246"/>
			<point x="1535" y="-231" type="curve" smooth="yes"/>
			<point x="1569" y="-216"/>
			<point x="1599" y="-196"/>
			<point x="1624" y="-171" type="curve" smooth="yes"/>
			<point x="1649" y="-145"/>
			<point x="1669" y="-115"/>
			<point x="1684" y="-82" type="curve" smooth="yes"/>
			<point x="1699" y="-48"/>
			<point x="1707" y="-12"/>
			<point x="1707" y="27" type="curve" smooth="yes"/>
			<point x="1707" y="65"/>
			<point x="1699" y="101"/>
			<point x="1684" y="135" type="curve" smooth="yes"/>
			<point x="1669" y="168"/>
			<point x="1649" y="198"/>
			<point x="1624" y="223" type="curve" smooth="yes"/>
			<point x="1573" y="274"/>
			<point x="1503" y="307"/>
			<point x="1428" y="307" type="curve" smooth="yes"/>
			<point x="1389" y="307"/>
			<point x="1353" y="299"/>
			<point x="1319" y="284" type="curve" smooth="yes"/>
			<point x="1285" y="269"/>
			<point x="1255" y="248"/>
			<point x="1230" y="223" type="curve" smooth="yes"/>
			<point x="1205" y="198"/>
			<point x="1185" y="168"/>
			<point x="1170" y="135" type="curve" smooth="yes"/>
			<point x="1155" y="101"/>
			<point x="1148" y="65"/>
		</contour>
	</outline>
</glyph>
<glyph name="ampersand" format="2">
	<advance width="1880"/>
	<unicode hex="0026"/>
	<note>
		ampersand
	</note>
	<outline>
		<contour>
			<point x="725" y="-152" type="curve" smooth="yes"/>
			<point x="818" y="-155"/>
			<point x="906" y="-148"/>
			<point x="991" y="-132" type="curve" smooth="yes"/>
			<point x="1075" y="-116"/>
			<point x="1151" y="-91"/>
			<point x="1220" y="-56" type="curve" smooth="yes"/>
			<point x="1249" y="-41"/>
			<point x="1273" y="-26"/>
			<point x="1294" y="-10" type="curve"/>
			<point x="1306" y="-26" type="line" smooth="yes"/>
			<point x="1333" y="-59"/>
			<point x="1385" y="-100"/>
			<point x="1440" y="-116" type="curve" smooth="yes"/>
			<point x="1484" y="-128"/>
			<point x="1530" y="-129"/>
			<point x="1571" y="-131" type="curve" smooth="yes"/>
			<point x="1586" y="-131"/>
			<point x="1599" y="-131"/>
			<point x="1610" y="-130" type="curve" smooth="yes"/>
			<point x="1642" y="-130" type="line"/>
			<point x="1662" y="-129" type="line"/>
			<point x="1730" y="-129" type="line"/>
			<point x="1730" y="-3" type="line"/>
			<point x="1662" y="-3" type="line"/>
			<point x="1644" y="-4" type="line"/>
			<point x="1609" y="-4" type="line" smooth="yes"/>
			<point x="1570" y="-4"/>
			<point x="1521" y="-1"/>
			<point x="1482" y="10" type="curve" smooth="yes"/>
			<point x="1468" y="15"/>
			<point x="1455" y="21"/>
			<point x="1444" y="29" type="curve" smooth="yes"/>
			<point x="1433" y="38"/>
			<point x="1423" y="46"/>
			<point x="1414" y="55" type="curve" smooth="yes"/>
			<point x="1382" y="90" type="line"/>
			<point x="1395" y="105" type="line" smooth="yes"/>
			<point x="1510" y="234"/>
			<point x="1570" y="383"/>
			<point x="1576" y="552" type="curve"/>
			<point x="1449" y="552" type="line"/>
			<point x="1443" y="426"/>
			<point x="1394" y="304"/>
			<point x="1301" y="187" type="curve"/>
			<point x="982" y="638" type="line"/>
			<point x="1025" y="639"/>
			<point x="1065" y="640"/>
			<point x="1104" y="642" type="curve" smooth="yes"/>
			<point x="1145" y="644"/>
			<point x="1193" y="650"/>
			<point x="1248" y="659" type="curve" smooth="yes"/>
			<point x="1303" y="668"/>
			<point x="1350" y="679"/>
			<point x="1387" y="694" type="curve" smooth="yes"/>
			<point x="1444" y="717"/>
			<point x="1490" y="749"/>
			<point x="1524" y="790" type="curve" smooth="yes"/>
			<point x="1591" y="873"/>
			<point x="1600" y="966"/>
			<point x="1572" y="1058" type="curve" smooth="yes"/>
			<point x="1557" y="1105"/>
			<point x="1534" y="1146"/>
			<point x="1501" y="1181" type="curve" smooth="yes"/>
			<point x="1470" y="1214"/>
			<point x="1422" y="1242"/>
			<point x="1359" y="1264" type="curve" smooth="yes"/>
			<point x="1232" y="1307"/>
			<point x="1085" y="1320"/>
			<point x="930" y="1280" type="curve" smooth="yes"/>
			<point x="853" y="1259"/>
			<point x="787" y="1227"/>
			<point x="734" y="1182" type="curve" smooth="yes"/>
			<point x="692" y="1147"/>
			<point x="664" y="1101"/>
			<point x="650" y="1044" type="curve" smooth="yes"/>
			<point x="636" y="987"/>
			<point x="635" y="932"/>
			<point x="648" y="880" type="curve" smooth="yes"/>
			<point x="660" y="830"/>
			<point x="685" y="787"/>
			<point x="723" y="751" type="curve"/>
			<point x="704" y="749" type="line"/>
			<point x="669" y="746" type="line"/>
			<point x="630" y="741" type="line" smooth="yes"/>
			<point x="614" y="738"/>
			<point x="600" y="736"/>
			<point x="588" y="733" type="curve" smooth="yes"/>
			<point x="545" y="724" type="line" smooth="yes"/>
			<point x="529" y="720"/>
			<point x="514" y="716"/>
			<point x="501" y="712" type="curve" smooth="yes"/>
			<point x="458" y="697" type="line" smooth="yes"/>
			<point x="443" y="691"/>
			<point x="429" y="685"/>
			<point x="416" y="678" type="curve" smooth="yes"/>
			<point x="371" y="655"/>
			<point x="334" y="632"/>
			<point x="305" y="609" type="curve" smooth="yes"/>
			<point x="271" y="582"/>
			<point x="242" y="552"/>
			<point x="218" y="520" type="curve" smooth="yes"/>
			<point x="193" y="488"/>
			<point x="174" y="453"/>
			<point x="161" y="415" type="curve" smooth="yes"/>
			<point x="147" y="377"/>
			<point x="140" y="338"/>
			<point x="140" y="298" type="curve" smooth="yes"/>
			<point x="140" y="239"/>
			<point x="155" y="182"/>
			<point x="185" y="127" type="curve" smooth="yes"/>
			<point x="215" y="72"/>
			<point x="255" y="24"/>
			<point x="305" y="-16" type="curve" smooth="yes"/>
			<point x="354" y="-56"/>
			<point x="413" y="-88"/>
			<point x="480" y="-111" type="curve" smooth="yes"/>
			<point x="551" y="-136"/>
			<point x="632" y="-149"/>
		</contour>
		<contour>
			<point x="276" y="298" type="curve" smooth="yes"/>
			<point x="276" y="354"/>
			<point x="295" y="406"/>
			<point x="333" y="454" type="curve" smooth="yes"/>
			<point x="367" y="497"/>
			<point x="418" y="534"/>
			<point x="486" y="567" type="curve" smooth="yes"/>
			<point x="522" y="584"/>
			<point x="563" y="598"/>
			<point x="610" y="609" type="curve" smooth="yes"/>
			<point x="656" y="620"/>
			<point x="694" y="626"/>
			<point x="724" y="628" type="curve" smooth="yes"/>
			<point x="754" y="631"/>
			<point x="790" y="632"/>
			<point x="831" y="633" type="curve"/>
			<point x="1210" y="98" type="line"/>
			<point x="1184" y="80" type="line" smooth="yes"/>
			<point x="1139" y="51"/>
			<point x="1093" y="28"/>
			<point x="1045" y="13" type="curve" smooth="yes"/>
			<point x="997" y="-2"/>
			<point x="947" y="-13"/>
			<point x="895" y="-20" type="curve" smooth="yes"/>
			<point x="843" y="-27"/>
			<point x="793" y="-29"/>
			<point x="744" y="-26" type="curve" smooth="yes"/>
			<point x="695" y="-23"/>
			<point x="648" y="-16"/>
			<point x="604" y="-7" type="curve" smooth="yes"/>
			<point x="560" y="2"/>
			<point x="521" y="13"/>
			<point x="486" y="28" type="curve" smooth="yes"/>
			<point x="423" y="55"/>
			<point x="372" y="93"/>
			<point x="333" y="142" type="curve" smooth="yes"/>
			<point x="295" y="190"/>
			<point x="276" y="242"/>
		</contour>
		<contour>
			<point x="777" y="1031" type="curve" smooth="yes"/>
			<point x="788" y="1061"/>
			<point x="807" y="1088"/>
			<point x="835" y="1111" type="curve" smooth="yes"/>
			<point x="846" y="1121"/>
			<point x="856" y="1129"/>
			<point x="864" y="1134" type="curve" smooth="yes"/>
			<point x="943" y="1187"/>
			<point x="1107" y="1203"/>
			<point x="1244" y="1176" type="curve" smooth="yes"/>
			<point x="1313" y="1163"/>
			<point x="1363" y="1142"/>
			<point x="1394" y="1114" type="curve" smooth="yes"/>
			<point x="1447" y="1063"/>
			<point x="1469" y="1009"/>
			<point x="1462" y="953" type="curve" smooth="yes"/>
			<point x="1455" y="896"/>
			<point x="1423" y="852"/>
			<point x="1367" y="819" type="curve" smooth="yes"/>
			<point x="1319" y="791"/>
			<point x="1238" y="773"/>
			<point x="1157" y="768" type="curve" smooth="yes"/>
			<point x="1021" y="757"/>
			<point x="954" y="762"/>
			<point x="904" y="762" type="curve" smooth="yes"/>
			<point x="901" y="762"/>
			<point x="897" y="762"/>
			<point x="893" y="761" type="curve"/>
			<point x="892" y="762" type="line"/>
			<point x="875" y="768"/>
			<point x="857" y="780"/>
			<point x="840" y="798" type="curve" smooth="yes"/>
			<point x="822" y="815"/>
			<point x="807" y="837"/>
			<point x="794" y="863" type="curve" smooth="yes"/>
			<point x="769" y="914"/>
			<point x="755" y="970"/>
		</contour>
	</outline>
</glyph>
<glyph name="parenleft" format="2">
	<advance width="1012"/>
	<unicode hex="0028"/>
	<note>
		parenleft
	</note>
	<outline>
		<contour>
			<point x="775" y="-186" type="curve"/>
			<point x="903" y="-186" type="line"/>
			<point x="793" y="-142"/>
			<point x="699" y="-80"/>
			<point x="621" y="0" type="curve" smooth="yes"/>
			<point x="543" y="81"/>
			<point x="486" y="168"/>
			<point x="450" y="262" type="curve" smooth="yes"/>
			<point x="415" y="357"/>
			<point x="397" y="457"/>
			<point x="398" y="562" type="curve" smooth="yes"/>
			<point x="399" y="667"/>
			<point x="417" y="766"/>
			<point x="454" y="859" type="curve" smooth="yes"/>
			<point x="490" y="952"/>
			<point x="547" y="1038"/>
			<point x="625" y="1116" type="curve" smooth="yes"/>
			<point x="703" y="1194"/>
			<point x="796" y="1253"/>
			<point x="904" y="1294" type="curve"/>
			<point x="778" y="1294" type="line"/>
			<point x="669" y="1253"/>
			<point x="574" y="1194"/>
			<point x="495" y="1116" type="curve" smooth="yes"/>
			<point x="416" y="1038"/>
			<point x="357" y="953"/>
			<point x="319" y="860" type="curve" smooth="yes"/>
			<point x="280" y="767"/>
			<point x="260" y="669"/>
			<point x="259" y="564" type="curve" smooth="yes"/>
			<point x="258" y="459"/>
			<point x="275" y="360"/>
			<point x="311" y="265" type="curve" smooth="yes"/>
			<point x="346" y="171"/>
			<point x="404" y="84"/>
			<point x="484" y="3" type="curve" smooth="yes"/>
			<point x="564" y="-78"/>
			<point x="661" y="-141"/>
		</contour>
	</outline>
</glyph>
<glyph name="parenright" format="2">
	<advance width="1006"/>
	<unicode hex="0029"/>
	<note>
		parenright
	</note>
	<outline>
		<contour>
			<point x="109" y="-186" type="curve"/>
			<point x="237" y="-186" type="line"/>
			<point x="351" y="-141"/>
			<point x="448" y="-78"/>
			<point x="528" y="3" type="curve" smooth="yes"/>
			<point x="608" y="84"/>
			<point x="666" y="171"/>
			<point x="702" y="266" type="curve" smooth="yes"/>
			<point x="737" y="360"/>
			<point x="754" y="459"/>
			<point x="753" y="564" type="curve" smooth="yes"/>
			<point x="752" y="669"/>
			<point x="732" y="767"/>
			<point x="694" y="860" type="curve" smooth="yes"/>
			<point x="655" y="953"/>
			<point x="596" y="1038"/>
			<point x="517" y="1116" type="curve" smooth="yes"/>
			<point x="438" y="1194"/>
			<point x="343" y="1253"/>
			<point x="234" y="1294" type="curve"/>
			<point x="108" y="1294" type="line"/>
			<point x="216" y="1253"/>
			<point x="309" y="1194"/>
			<point x="387" y="1116" type="curve" smooth="yes"/>
			<point x="465" y="1038"/>
			<point x="522" y="953"/>
			<point x="559" y="860" type="curve" smooth="yes"/>
			<point x="595" y="767"/>
			<point x="613" y="667"/>
			<point x="614" y="562" type="curve" smooth="yes"/>
			<point x="615" y="457"/>
			<point x="597" y="357"/>
			<point x="562" y="263" type="curve" smooth="yes"/>
			<point x="526" y="168"/>
			<point x="469" y="81"/>
			<point x="391" y="1" type="curve" smooth="yes"/>
			<point x="313" y="-80"/>
			<point x="219" y="-142"/>
		</contour>
	</outline>
</glyph>
<glyph name="asterisk" format="2">
	<advance width="804"/>
	<unicode hex="002A"/>
	<note>
		asterisk
	</note>
	<outline>
		<contour>
			<point x="352" y="910" type="line"/>
			<point x="307" y="709" type="line"/>
			<point x="494" y="709" type="line"/>
			<point x="442" y="917" type="line"/>
			<point x="596" y="768" type="line"/>
			<point x="689" y="930" type="line"/>
			<point x="493" y="991" type="line"/>
			<point x="689" y="1047" type="line"/>
			<point x="596" y="1209" type="line"/>
			<point x="444" y="1069" type="line"/>
			<point x="494" y="1268" type="line"/>
			<point x="307" y="1268" type="line"/>
			<point x="350" y="1075" type="line"/>
			<point x="205" y="1209" type="line"/>
			<point x="112" y="1047" type="line"/>
			<point x="309" y="991" type="line"/>
			<point x="112" y="930" type="line"/>
			<point x="205" y="768" type="line"/>
		</contour>
	</outline>
</glyph>
<glyph name="plus" format="2">
	<advance width="1750"/>
	<unicode hex="002B"/>
	<note>
		plus
	</note>
	<outline>
		<contour>
			<point x="799" y="556" type="line"/>
			<point x="799" y="0" type="line"/>
			<point x="933" y="0" type="line"/>
			<point x="933" y="556" type="line"/>
			<point x="1512" y="556" type="line"/>
			<point x="1512" y="690" type="line"/>
			<point x="933" y="690" type="line"/>
			<point x="933" y="1204" type="line"/>
			<point x="799" y="1204" type="line"/>
			<point x="799" y="690" type="line"/>
			<point x="238" y="690" type="line"/>
			<point x="238" y="556" type="line"/>
		</contour>
	</outline>
</glyph>
<glyph name="comma" format="2">
	<advance width="510"/>
	<unicode hex="002C"/>
	<note>
		comma
	</note>
	<outline>
		<contour>
			<point x="188" y="177" type="line"/>
			<point x="188" y="-417" type="line"/>
			<point x="322" y="-417" type="line"/>
			<point x="322" y="177" type="line"/>
		</contour>
	</outline>
</glyph>
<glyph name="hyphen" format="2">
	<advance width="929"/>
	<unicode hex="002D"/>
	<note>
		hyphen
	</note>
	<outline>
		<contour>
			<point x="158" y="688" type="line"/>
			<point x="158" y="560" type="line"/>
			<point x="771" y="560" type="line"/>
			<point x="771" y="688" type="line"/>
		</contour>
	</outline>
</glyph>
<glyph name="period" format="2">
	<advance width="510"/>
	<unicode hex="002E"/>
	<note>
		period
	</note>
	<outline>
		<contour>
			<point x="188" y="176" type="line"/>
			<point x="188" y="0" type="line"/>
			<point x="322" y="0" type="line"/>
			<point x="322" y="176" type="line"/>
		</contour>
	</outline>
</glyph>
<glyph name="slash" format="2">
	<advance width="1001"/>
	<unicode hex="002F"/>
	<note>
		slash
	</note>
	<outline>
		<contour>
			<point x="655" y="1563" type="line"/>
			<point x="208" y="-264" type="line"/>
			<point x="346" y="-264" type="line"/>
			<point x="793" y="1563" type="line"/>
		</contour>
	</outline>
</glyph>
<glyph name="zero" format="2">
	<advance width="980"/>
	<unicode hex="0030"/>
	<note>
		zero
	</note>
	<outline>
		<contour>
			<point x="483" y="0" type="curve" smooth="yes"/>
			<point x="530" y="0"/>
			<point x="574" y="12"/>
			<point x="614" y="35" type="curve" smooth="yes"/>
			<point x="655" y="58"/>
			<point x="689" y="90"/>
			<point x="718" y="129" type="curve" smooth="yes"/>
			<point x="747" y="168"/>
			<point x="772" y="214"/>
			<point x="792" y="267" type="curve" smooth="yes"/>
			<point x="813" y="320"/>
			<point x="828" y="376"/>
			<point x="837" y="435" type="curve" smooth="yes"/>
			<point x="847" y="494"/>
			<point x="852" y="555"/>
			<point x="852" y="617" type="curve" smooth="yes"/>
			<point x="852" y="675"/>
			<point x="847" y="733"/>
			<point x="837" y="791" type="curve" smooth="yes"/>
			<point x="828" y="848"/>
			<point x="813" y="904"/>
			<point x="793" y="958" type="curve" smooth="yes"/>
			<point x="774" y="1011"/>
			<point x="750" y="1059"/>
			<point x="722" y="1100" type="curve" smooth="yes"/>
			<point x="694" y="1141"/>
			<point x="660" y="1173"/>
			<point x="619" y="1198" type="curve" smooth="yes"/>
			<point x="579" y="1222"/>
			<point x="536" y="1234"/>
			<point x="489" y="1234" type="curve" smooth="yes"/>
			<point x="442" y="1234"/>
			<point x="399" y="1222"/>
			<point x="358" y="1198" type="curve" smooth="yes"/>
			<point x="318" y="1173"/>
			<point x="284" y="1141"/>
			<point x="256" y="1100" type="curve" smooth="yes"/>
			<point x="229" y="1059"/>
			<point x="205" y="1013"/>
			<point x="185" y="960" type="curve" smooth="yes"/>
			<point x="146" y="853"/>
			<point x="128" y="737"/>
			<point x="128" y="621" type="curve" smooth="yes"/>
			<point x="129" y="558"/>
			<point x="133" y="497"/>
			<point x="142" y="438" type="curve" smooth="yes"/>
			<point x="151" y="379"/>
			<point x="165" y="322"/>
			<point x="184" y="269" type="curve" smooth="yes"/>
			<point x="203" y="216"/>
			<point x="226" y="169"/>
			<point x="253" y="130" type="curve" smooth="yes"/>
			<point x="280" y="90"/>
			<point x="314" y="58"/>
			<point x="353" y="35" type="curve" smooth="yes"/>
			<point x="392" y="12"/>
			<point x="436" y="0"/>
		</contour>
		<contour>
			<point x="262" y="622" type="curve" smooth="yes"/>
			<point x="262" y="666"/>
			<point x="264" y="709"/>
			<point x="269" y="752" type="curve" smooth="yes"/>
			<point x="274" y="795"/>
			<point x="282" y="838"/>
			<point x="293" y="880" type="curve" smooth="yes"/>
			<point x="316" y="965"/>
			<point x="348" y="1029"/>
			<point x="400" y="1068" type="curve" smooth="yes"/>
			<point x="427" y="1088"/>
			<point x="456" y="1098"/>
			<point x="489" y="1098" type="curve" smooth="yes"/>
			<point x="522" y="1099"/>
			<point x="551" y="1089"/>
			<point x="578" y="1069" type="curve" smooth="yes"/>
			<point x="605" y="1049"/>
			<point x="628" y="1023"/>
			<point x="645" y="991" type="curve" smooth="yes"/>
			<point x="662" y="958"/>
			<point x="677" y="921"/>
			<point x="689" y="878" type="curve" smooth="yes"/>
			<point x="713" y="793"/>
			<point x="723" y="706"/>
			<point x="723" y="617" type="curve" smooth="yes"/>
			<point x="724" y="570"/>
			<point x="721" y="523"/>
			<point x="715" y="478" type="curve" smooth="yes"/>
			<point x="709" y="432"/>
			<point x="700" y="388"/>
			<point x="687" y="346" type="curve" smooth="yes"/>
			<point x="674" y="305"/>
			<point x="659" y="268"/>
			<point x="640" y="237" type="curve" smooth="yes"/>
			<point x="621" y="206"/>
			<point x="598" y="181"/>
			<point x="570" y="162" type="curve" smooth="yes"/>
			<point x="543" y="144"/>
			<point x="513" y="135"/>
			<point x="480" y="135" type="curve" smooth="yes"/>
			<point x="447" y="134"/>
			<point x="418" y="144"/>
			<point x="392" y="163" type="curve" smooth="yes"/>
			<point x="367" y="182"/>
			<point x="346" y="207"/>
			<point x="330" y="238" type="curve" smooth="yes"/>
			<point x="314" y="269"/>
			<point x="301" y="306"/>
			<point x="290" y="349" type="curve" smooth="yes"/>
			<point x="280" y="392"/>
			<point x="273" y="436"/>
			<point x="268" y="480" type="curve" smooth="yes"/>
			<point x="264" y="525"/>
			<point x="262" y="572"/>
		</contour>
	</outline>
</glyph>
<glyph name="one" format="2">
	<advance width="823"/>
	<unicode hex="0031"/>
	<note>
		one
	</note>
	<outline>
		<contour>
			<point x="551" y="962" type="curve"/>
			<point x="551" y="0" type="line"/>
			<point x="685" y="0" type="line"/>
			<point x="685" y="1237" type="line"/>
			<point x="549" y="1237" type="line"/>
			<point x="549" y="1182"/>
			<point x="529" y="1130"/>
			<point x="488" y="1083" type="curve" smooth="yes"/>
			<point x="447" y="1036"/>
			<point x="392" y="999"/>
			<point x="324" y="974" type="curve" smooth="yes"/>
			<point x="255" y="948"/>
			<point x="183" y="937"/>
			<point x="108" y="941" type="curve"/>
			<point x="108" y="812" type="line"/>
			<point x="193" y="809"/>
			<point x="274" y="820"/>
			<point x="352" y="847" type="curve" smooth="yes"/>
			<point x="429" y="874"/>
			<point x="496" y="912"/>
		</contour>
	</outline>
</glyph>
<glyph name="two" format="2">
	<advance width="1512"/>
	<unicode hex="0032"/>
	<note>
		two
	</note>
	<outline>
		<contour>
			<point x="108" y="134" type="line"/>
			<point x="108" y="0" type="line"/>
			<point x="1414" y="0" type="line"/>
			<point x="1414" y="134" type="line"/>
			<point x="403" y="134" type="line"/>
			<point x="1036" y="459" type="line"/>
			<point x="1103" y="501"/>
			<point x="1154" y="552"/>
			<point x="1191" y="613" type="curve" smooth="yes"/>
			<point x="1228" y="674"/>
			<point x="1246" y="739"/>
			<point x="1246" y="809" type="curve" smooth="yes"/>
			<point x="1246" y="868"/>
			<point x="1232" y="925"/>
			<point x="1204" y="978" type="curve" smooth="yes"/>
			<point x="1176" y="1031"/>
			<point x="1138" y="1078"/>
			<point x="1090" y="1118" type="curve" smooth="yes"/>
			<point x="1041" y="1158"/>
			<point x="984" y="1190"/>
			<point x="919" y="1214" type="curve" smooth="yes"/>
			<point x="854" y="1237"/>
			<point x="785" y="1249"/>
			<point x="713" y="1249" type="curve" smooth="yes"/>
			<point x="639" y="1249"/>
			<point x="569" y="1237"/>
			<point x="504" y="1214" type="curve" smooth="yes"/>
			<point x="460" y="1198"/>
			<point x="421" y="1179"/>
			<point x="385" y="1156" type="curve" smooth="yes"/>
			<point x="367" y="1144"/>
			<point x="350" y="1131"/>
			<point x="334" y="1118" type="curve" smooth="yes"/>
			<point x="286" y="1078"/>
			<point x="248" y="1031"/>
			<point x="220" y="977" type="curve" smooth="yes"/>
			<point x="197" y="932"/>
			<point x="183" y="884"/>
			<point x="180" y="834" type="curve"/>
			<point x="316" y="834" type="line"/>
			<point x="319" y="867"/>
			<point x="330" y="899"/>
			<point x="348" y="929" type="curve" smooth="yes"/>
			<point x="369" y="966"/>
			<point x="398" y="998"/>
			<point x="435" y="1026" type="curve" smooth="yes"/>
			<point x="454" y="1039"/>
			<point x="474" y="1051"/>
			<point x="495" y="1062" type="curve" smooth="yes"/>
			<point x="516" y="1073"/>
			<point x="538" y="1082"/>
			<point x="561" y="1089" type="curve" smooth="yes"/>
			<point x="609" y="1104"/>
			<point x="660" y="1112"/>
			<point x="713" y="1112" type="curve" smooth="yes"/>
			<point x="766" y="1112"/>
			<point x="816" y="1104"/>
			<point x="863" y="1089" type="curve" smooth="yes"/>
			<point x="886" y="1082"/>
			<point x="909" y="1073"/>
			<point x="930" y="1062" type="curve" smooth="yes"/>
			<point x="951" y="1051"/>
			<point x="970" y="1039"/>
			<point x="989" y="1026" type="curve" smooth="yes"/>
			<point x="1025" y="999"/>
			<point x="1055" y="967"/>
			<point x="1076" y="930" type="curve" smooth="yes"/>
			<point x="1099" y="892"/>
			<point x="1110" y="852"/>
			<point x="1110" y="809" type="curve" smooth="yes"/>
			<point x="1110" y="760"/>
			<point x="1097" y="716"/>
			<point x="1070" y="675" type="curve" smooth="yes"/>
			<point x="1057" y="656"/>
			<point x="1044" y="640"/>
			<point x="1030" y="627" type="curve" smooth="yes"/>
			<point x="1017" y="614"/>
			<point x="996" y="597"/>
			<point x="967" y="576" type="curve"/>
		</contour>
	</outline>
</glyph>
<glyph name="three" format="2">
	<advance width="1572"/>
	<unicode hex="0033"/>
	<note>
		three
	</note>
	<outline>
		<contour>
			<point x="890" y="-5" type="curve" smooth="yes"/>
			<point x="962" y="-2"/>
			<point x="1030" y="13"/>
			<point x="1094" y="40" type="curve" smooth="yes"/>
			<point x="1126" y="53"/>
			<point x="1156" y="69"/>
			<point x="1184" y="86" type="curve" smooth="yes"/>
			<point x="1211" y="103"/>
			<point x="1237" y="123"/>
			<point x="1260" y="144" type="curve" smooth="yes"/>
			<point x="1306" y="186"/>
			<point x="1342" y="234"/>
			<point x="1368" y="289" type="curve" smooth="yes"/>
			<point x="1393" y="344"/>
			<point x="1405" y="401"/>
			<point x="1402" y="460" type="curve" smooth="yes"/>
			<point x="1399" y="529"/>
			<point x="1377" y="594"/>
			<point x="1338" y="653" type="curve" smooth="yes"/>
			<point x="1298" y="712"/>
			<point x="1228" y="777"/>
			<point x="1161" y="814" type="curve"/>
			<point x="1162" y="815" type="line"/>
			<point x="1137" y="827" type="line"/>
			<point x="1115" y="838" type="line" smooth="yes"/>
			<point x="1107" y="842"/>
			<point x="1088" y="851"/>
			<point x="1077" y="855" type="curve" smooth="yes"/>
			<point x="1065" y="859"/>
			<point x="1048" y="866"/>
			<point x="1024" y="873" type="curve" smooth="yes"/>
			<point x="1008" y="877" type="line"/>
			<point x="1444" y="1100" type="line"/>
			<point x="1444" y="1234" type="line"/>
			<point x="138" y="1234" type="line"/>
			<point x="138" y="1100" type="line"/>
			<point x="1146" y="1100" type="line"/>
			<point x="710" y="876" type="line"/>
			<point x="785" y="763" type="line"/>
			<point x="804" y="765"/>
			<point x="826" y="765"/>
			<point x="849" y="764" type="curve" smooth="yes"/>
			<point x="872" y="763"/>
			<point x="895" y="761"/>
			<point x="916" y="758" type="curve" smooth="yes"/>
			<point x="937" y="755"/>
			<point x="956" y="751"/>
			<point x="973" y="746" type="curve" smooth="yes"/>
			<point x="1008" y="736"/>
			<point x="1049" y="719"/>
			<point x="1097" y="695" type="curve"/>
			<point x="1096" y="694" type="line"/>
			<point x="1137" y="672"/>
			<point x="1185" y="634"/>
			<point x="1220" y="586" type="curve" smooth="yes"/>
			<point x="1248" y="547"/>
			<point x="1263" y="502"/>
			<point x="1266" y="453" type="curve" smooth="yes"/>
			<point x="1267" y="425"/>
			<point x="1263" y="398"/>
			<point x="1254" y="370" type="curve" smooth="yes"/>
			<point x="1250" y="357"/>
			<point x="1245" y="344"/>
			<point x="1238" y="331" type="curve" smooth="yes"/>
			<point x="1218" y="293"/>
			<point x="1190" y="260"/>
			<point x="1155" y="231" type="curve" smooth="yes"/>
			<point x="1143" y="222"/>
			<point x="1131" y="213"/>
			<point x="1118" y="204" type="curve" smooth="yes"/>
			<point x="1105" y="196"/>
			<point x="1091" y="188"/>
			<point x="1077" y="181" type="curve" smooth="yes"/>
			<point x="1063" y="174"/>
			<point x="1048" y="168"/>
			<point x="1032" y="162" type="curve" smooth="yes"/>
			<point x="985" y="145"/>
			<point x="936" y="135"/>
			<point x="883" y="132" type="curve" smooth="yes"/>
			<point x="830" y="129"/>
			<point x="779" y="135"/>
			<point x="731" y="148" type="curve" smooth="yes"/>
			<point x="683" y="161"/>
			<point x="640" y="181"/>
			<point x="602" y="206" type="curve" smooth="yes"/>
			<point x="564" y="232"/>
			<point x="533" y="263"/>
			<point x="510" y="299" type="curve" smooth="yes"/>
			<point x="491" y="329"/>
			<point x="479" y="358"/>
			<point x="474" y="387" type="curve"/>
			<point x="338" y="385" type="line"/>
			<point x="343" y="336"/>
			<point x="359" y="289"/>
			<point x="385" y="245" type="curve" smooth="yes"/>
			<point x="415" y="192"/>
			<point x="455" y="147"/>
			<point x="505" y="109" type="curve" smooth="yes"/>
			<point x="555" y="71"/>
			<point x="613" y="42"/>
			<point x="679" y="21" type="curve" smooth="yes"/>
			<point x="746" y="0"/>
			<point x="816" y="-8"/>
		</contour>
	</outline>
</glyph>
<glyph name="four" format="2">
	<advance width="1483"/>
	<unicode hex="0034"/>
	<note>
		four
	</note>
	<outline>
		<contour>
			<point x="964" y="189" type="line"/>
			<point x="965" y="-105" type="line"/>
			<point x="1099" y="-105" type="line"/>
			<point x="1098" y="189" type="line"/>
			<point x="1375" y="189" type="line"/>
			<point x="1375" y="323" type="line"/>
			<point x="1097" y="323" type="line"/>
			<point x="1096" y="601" type="line"/>
			<point x="962" y="601" type="line"/>
			<point x="963" y="323" type="line"/>
			<point x="276" y="323" type="line"/>
			<point x="955" y="1236" type="line"/>
			<point x="791" y="1236" type="line"/>
			<point x="109" y="323" type="line"/>
			<point x="108" y="323" type="line"/>
			<point x="108" y="189" type="line"/>
		</contour>
	</outline>
</glyph>
<glyph name="five" format="2">
	<advance width="1428"/>
	<unicode hex="0035"/>
	<note>
		five
	</note>
	<outline>
		<contour>
			<point x="645" y="-8" type="curve" smooth="yes"/>
			<point x="718" y="-8"/>
			<point x="786" y="4"/>
			<point x="851" y="28" type="curve" smooth="yes"/>
			<point x="890" y="41"/>
			<point x="916" y="51"/>
			<point x="931" y="57" type="curve" smooth="yes"/>
			<point x="946" y="64"/>
			<point x="966" y="74"/>
			<point x="993" y="89" type="curve" smooth="yes"/>
			<point x="1058" y="130"/>
			<point x="1127" y="198"/>
			<point x="1163" y="259" type="curve" smooth="yes"/>
			<point x="1200" y="320"/>
			<point x="1218" y="385"/>
			<point x="1218" y="455" type="curve" smooth="yes"/>
			<point x="1218" y="514"/>
			<point x="1204" y="571"/>
			<point x="1176" y="624" type="curve" smooth="yes"/>
			<point x="1148" y="677"/>
			<point x="1110" y="724"/>
			<point x="1062" y="764" type="curve" smooth="yes"/>
			<point x="1013" y="804"/>
			<point x="957" y="836"/>
			<point x="892" y="859" type="curve" smooth="yes"/>
			<point x="827" y="883"/>
			<point x="758" y="895"/>
			<point x="685" y="895" type="curve" smooth="yes"/>
			<point x="611" y="895"/>
			<point x="542" y="883"/>
			<point x="477" y="859" type="curve" smooth="yes"/>
			<point x="412" y="836"/>
			<point x="355" y="804"/>
			<point x="306" y="763" type="curve" smooth="yes"/>
			<point x="284" y="744" type="line"/>
			<point x="283" y="1102" type="line"/>
			<point x="1320" y="1102" type="line"/>
			<point x="1320" y="1236" type="line"/>
			<point x="150" y="1236" type="line"/>
			<point x="150" y="1235" type="line"/>
			<point x="148" y="1235" type="line"/>
			<point x="151" y="480" type="line"/>
			<point x="288" y="480" type="line"/>
			<point x="292" y="513"/>
			<point x="303" y="544"/>
			<point x="320" y="575" type="curve" smooth="yes"/>
			<point x="341" y="612"/>
			<point x="371" y="644"/>
			<point x="408" y="671" type="curve" smooth="yes"/>
			<point x="444" y="698"/>
			<point x="486" y="720"/>
			<point x="534" y="735" type="curve" smooth="yes"/>
			<point x="581" y="750"/>
			<point x="632" y="758"/>
			<point x="685" y="758" type="curve" smooth="yes"/>
			<point x="738" y="758"/>
			<point x="788" y="750"/>
			<point x="836" y="735" type="curve" smooth="yes"/>
			<point x="883" y="720"/>
			<point x="925" y="699"/>
			<point x="961" y="672" type="curve" smooth="yes"/>
			<point x="998" y="645"/>
			<point x="1027" y="613"/>
			<point x="1049" y="576" type="curve" smooth="yes"/>
			<point x="1071" y="538"/>
			<point x="1082" y="498"/>
			<point x="1082" y="455" type="curve" smooth="yes"/>
			<point x="1082" y="406"/>
			<point x="1069" y="361"/>
			<point x="1042" y="320" type="curve" smooth="yes"/>
			<point x="1029" y="301"/>
			<point x="1012" y="280"/>
			<point x="990" y="259" type="curve" smooth="yes"/>
			<point x="967" y="238"/>
			<point x="945" y="220"/>
			<point x="924" y="207" type="curve" smooth="yes"/>
			<point x="890" y="188"/>
			<point x="847" y="169"/>
			<point x="795" y="152" type="curve" smooth="yes"/>
			<point x="748" y="137"/>
			<point x="698" y="129"/>
			<point x="645" y="129" type="curve" smooth="yes"/>
			<point x="592" y="129"/>
			<point x="541" y="137"/>
			<point x="494" y="152" type="curve" smooth="yes"/>
			<point x="447" y="167"/>
			<point x="405" y="189"/>
			<point x="368" y="216" type="curve" smooth="yes"/>
			<point x="361" y="221"/>
			<point x="355" y="225"/>
			<point x="350" y="230" type="curve" smooth="yes"/>
			<point x="338" y="241"/>
			<point x="331" y="247"/>
			<point x="326" y="252" type="curve" smooth="yes"/>
			<point x="323" y="255"/>
			<point x="321" y="258"/>
			<point x="320" y="260" type="curve"/>
			<point x="316" y="264" type="line"/>
			<point x="152" y="265" type="line"/>
			<point x="180" y="211"/>
			<point x="218" y="164"/>
			<point x="266" y="124" type="curve" smooth="yes"/>
			<point x="315" y="83"/>
			<point x="371" y="51"/>
			<point x="436" y="27" type="curve" smooth="yes"/>
			<point x="501" y="4"/>
			<point x="571" y="-8"/>
		</contour>
	</outline>
</glyph>
<glyph name="six" format="2">
	<advance width="1276"/>
	<unicode hex="0036"/>
	<note>
		six
	</note>
	<outline>
		<contour>
			<point x="442" y="0" type="curve" smooth="yes"/>
			<point x="481" y="0"/>
			<point x="518" y="7"/>
			<point x="552" y="20" type="curve" smooth="yes"/>
			<point x="586" y="33"/>
			<point x="615" y="51"/>
			<point x="640" y="74" type="curve" smooth="yes"/>
			<point x="665" y="97"/>
			<point x="688" y="123"/>
			<point x="707" y="152" type="curve" smooth="yes"/>
			<point x="726" y="182"/>
			<point x="742" y="214"/>
			<point x="754" y="248" type="curve" smooth="yes"/>
			<point x="766" y="282"/>
			<point x="775" y="316"/>
			<point x="781" y="350" type="curve" smooth="yes"/>
			<point x="787" y="385"/>
			<point x="790" y="418"/>
			<point x="790" y="451" type="curve" smooth="yes"/>
			<point x="789" y="502"/>
			<point x="785" y="549"/>
			<point x="776" y="594" type="curve" smooth="yes"/>
			<point x="767" y="639"/>
			<point x="754" y="682"/>
			<point x="735" y="721" type="curve" smooth="yes"/>
			<point x="716" y="760"/>
			<point x="693" y="794"/>
			<point x="666" y="822" type="curve" smooth="yes"/>
			<point x="639" y="851"/>
			<point x="605" y="873"/>
			<point x="566" y="889" type="curve" smooth="yes"/>
			<point x="527" y="906"/>
			<point x="484" y="914"/>
			<point x="437" y="914" type="curve" smooth="yes"/>
			<point x="372" y="914"/>
			<point x="315" y="901"/>
			<point x="267" y="874" type="curve"/>
			<point x="267" y="875"/>
			<point x="275" y="888"/>
			<point x="290" y="913" type="curve" smooth="yes"/>
			<point x="311" y="950"/>
			<point x="341" y="983"/>
			<point x="378" y="1010" type="curve" smooth="yes"/>
			<point x="414" y="1037"/>
			<point x="456" y="1058"/>
			<point x="503" y="1074" type="curve" smooth="yes"/>
			<point x="551" y="1089"/>
			<point x="602" y="1097"/>
			<point x="655" y="1097" type="curve" smooth="yes"/>
			<point x="708" y="1097"/>
			<point x="758" y="1089"/>
			<point x="805" y="1074" type="curve" smooth="yes"/>
			<point x="853" y="1059"/>
			<point x="895" y="1038"/>
			<point x="931" y="1011" type="curve" smooth="yes"/>
			<point x="968" y="984"/>
			<point x="997" y="952"/>
			<point x="1019" y="915" type="curve" smooth="yes"/>
			<point x="1041" y="877"/>
			<point x="1052" y="837"/>
			<point x="1052" y="794" type="curve"/>
			<point x="1188" y="794" type="line"/>
			<point x="1188" y="853"/>
			<point x="1174" y="909"/>
			<point x="1146" y="962" type="curve" smooth="yes"/>
			<point x="1118" y="1016"/>
			<point x="1080" y="1063"/>
			<point x="1032" y="1103" type="curve" smooth="yes"/>
			<point x="993" y="1136"/>
			<point x="949" y="1161"/>
			<point x="900" y="1183" type="curve" smooth="yes"/>
			<point x="861" y="1198" type="line" smooth="yes"/>
			<point x="796" y="1222"/>
			<point x="728" y="1234"/>
			<point x="655" y="1234" type="curve" smooth="yes"/>
			<point x="581" y="1234"/>
			<point x="512" y="1222"/>
			<point x="447" y="1198" type="curve" smooth="yes"/>
			<point x="386" y="1176"/>
			<point x="329" y="1143"/>
			<point x="276" y="1099" type="curve" smooth="yes"/>
			<point x="253" y="1080"/>
			<point x="230" y="1054"/>
			<point x="208" y="1022" type="curve" smooth="yes"/>
			<point x="186" y="990"/>
			<point x="170" y="961"/>
			<point x="160" y="934" type="curve" smooth="yes"/>
			<point x="147" y="901"/>
			<point x="137" y="868"/>
			<point x="128" y="836" type="curve" smooth="yes"/>
			<point x="119" y="805"/>
			<point x="111" y="755"/>
			<point x="102" y="687" type="curve" smooth="yes"/>
			<point x="93" y="620"/>
			<point x="89" y="544"/>
			<point x="88" y="460" type="curve"/>
			<point x="89" y="462" type="line"/>
			<point x="89" y="456" type="line" smooth="yes"/>
			<point x="89" y="415"/>
			<point x="93" y="374"/>
			<point x="102" y="333" type="curve" smooth="yes"/>
			<point x="111" y="292"/>
			<point x="125" y="251"/>
			<point x="144" y="210" type="curve" smooth="yes"/>
			<point x="163" y="170"/>
			<point x="186" y="134"/>
			<point x="213" y="103" type="curve" smooth="yes"/>
			<point x="240" y="72"/>
			<point x="273" y="47"/>
			<point x="312" y="28" type="curve" smooth="yes"/>
			<point x="352" y="9"/>
			<point x="395" y="0"/>
		</contour>
		<contour>
			<point x="218" y="455" type="curve" smooth="yes"/>
			<point x="217" y="500"/>
			<point x="221" y="542"/>
			<point x="228" y="579" type="curve" smooth="yes"/>
			<point x="235" y="616"/>
			<point x="247" y="650"/>
			<point x="264" y="681" type="curve" smooth="yes"/>
			<point x="281" y="712"/>
			<point x="304" y="736"/>
			<point x="334" y="753" type="curve" smooth="yes"/>
			<point x="364" y="770"/>
			<point x="399" y="779"/>
			<point x="440" y="780" type="curve" smooth="yes"/>
			<point x="473" y="780"/>
			<point x="503" y="774"/>
			<point x="528" y="762" type="curve" smooth="yes"/>
			<point x="553" y="750"/>
			<point x="574" y="734"/>
			<point x="589" y="714" type="curve" smooth="yes"/>
			<point x="605" y="694"/>
			<point x="618" y="669"/>
			<point x="628" y="640" type="curve" smooth="yes"/>
			<point x="638" y="611"/>
			<point x="645" y="582"/>
			<point x="649" y="551" type="curve" smooth="yes"/>
			<point x="654" y="521"/>
			<point x="656" y="488"/>
			<point x="656" y="451" type="curve" smooth="yes"/>
			<point x="656" y="430"/>
			<point x="655" y="408"/>
			<point x="652" y="386" type="curve" smooth="yes"/>
			<point x="649" y="363"/>
			<point x="645" y="340"/>
			<point x="639" y="316" type="curve" smooth="yes"/>
			<point x="633" y="291"/>
			<point x="624" y="269"/>
			<point x="613" y="248" type="curve" smooth="yes"/>
			<point x="602" y="227"/>
			<point x="588" y="208"/>
			<point x="573" y="191" type="curve" smooth="yes"/>
			<point x="558" y="174"/>
			<point x="540" y="160"/>
			<point x="517" y="151" type="curve" smooth="yes"/>
			<point x="494" y="141"/>
			<point x="469" y="136"/>
			<point x="442" y="136" type="curve" smooth="yes"/>
			<point x="409" y="135"/>
			<point x="380" y="142"/>
			<point x="353" y="157" type="curve" smooth="yes"/>
			<point x="327" y="172"/>
			<point x="306" y="190"/>
			<point x="289" y="213" type="curve" smooth="yes"/>
			<point x="273" y="235"/>
			<point x="259" y="261"/>
			<point x="248" y="290" type="curve" smooth="yes"/>
			<point x="227" y="349"/>
			<point x="218" y="403"/>
		</contour>
	</outline>
</glyph>
<glyph name="seven" format="2">
	<advance width="1432"/>
	<unicode hex="0037"/>
	<note>
		seven
	</note>
	<outline>
		<contour>
			<point x="893" y="694" type="line"/>
			<point x="471" y="-1" type="line"/>
			<point x="628" y="-1" type="line"/>
			<point x="1050" y="694" type="line"/>
			<point x="1304" y="694" type="line"/>
			<point x="1304" y="828" type="line"/>
			<point x="1131" y="828" type="line"/>
			<point x="1298" y="1103" type="line"/>
			<point x="1298" y="1237" type="line"/>
			<point x="128" y="1237" type="line"/>
			<point x="128" y="1103" type="line"/>
			<point x="1141" y="1103" type="line"/>
			<point x="974" y="828" type="line"/>
			<point x="397" y="828" type="line"/>
			<point x="397" y="694" type="line"/>
		</contour>
	</outline>
</glyph>
<glyph name="eight" format="2">
	<advance width="1290"/>
	<unicode hex="0038"/>
	<note>
		eight
	</note>
	<outline>
		<contour>
			<point x="652" y="-8" type="curve" smooth="yes"/>
			<point x="691" y="-8"/>
			<point x="733" y="-4"/>
			<point x="778" y="4" type="curve" smooth="yes"/>
			<point x="823" y="12"/>
			<point x="869" y="25"/>
			<point x="917" y="44" type="curve" smooth="yes"/>
			<point x="964" y="62"/>
			<point x="1007" y="84"/>
			<point x="1044" y="110" type="curve" smooth="yes"/>
			<point x="1082" y="136"/>
			<point x="1113" y="169"/>
			<point x="1138" y="210" type="curve" smooth="yes"/>
			<point x="1162" y="251"/>
			<point x="1174" y="295"/>
			<point x="1174" y="343" type="curve" smooth="yes"/>
			<point x="1174" y="412"/>
			<point x="1157" y="472"/>
			<point x="1124" y="523" type="curve" smooth="yes"/>
			<point x="1090" y="574"/>
			<point x="1039" y="614"/>
			<point x="970" y="643" type="curve"/>
			<point x="1111" y="709"/>
			<point x="1182" y="789"/>
			<point x="1182" y="884" type="curve" smooth="yes"/>
			<point x="1182" y="932"/>
			<point x="1170" y="976"/>
			<point x="1146" y="1017" type="curve" smooth="yes"/>
			<point x="1121" y="1058"/>
			<point x="1090" y="1091"/>
			<point x="1052" y="1117" type="curve" smooth="yes"/>
			<point x="977" y="1169"/>
			<point x="875" y="1207"/>
			<point x="786" y="1223" type="curve" smooth="yes"/>
			<point x="741" y="1231"/>
			<point x="699" y="1235"/>
			<point x="660" y="1235" type="curve" smooth="yes"/>
			<point x="591" y="1235"/>
			<point x="525" y="1227"/>
			<point x="461" y="1212" type="curve" smooth="yes"/>
			<point x="397" y="1197"/>
			<point x="339" y="1175"/>
			<point x="288" y="1146" type="curve" smooth="yes"/>
			<point x="236" y="1117"/>
			<point x="194" y="1080"/>
			<point x="163" y="1034" type="curve" smooth="yes"/>
			<point x="132" y="988"/>
			<point x="116" y="937"/>
			<point x="116" y="880" type="curve" smooth="yes"/>
			<point x="116" y="784"/>
			<point x="184" y="704"/>
			<point x="320" y="639" type="curve"/>
			<point x="251" y="609"/>
			<point x="199" y="569"/>
			<point x="162" y="519" type="curve" smooth="yes"/>
			<point x="126" y="469"/>
			<point x="108" y="412"/>
			<point x="108" y="347" type="curve" smooth="yes"/>
			<point x="108" y="290"/>
			<point x="124" y="239"/>
			<point x="155" y="193" type="curve" smooth="yes"/>
			<point x="186" y="147"/>
			<point x="228" y="110"/>
			<point x="280" y="81" type="curve" smooth="yes"/>
			<point x="331" y="52"/>
			<point x="389" y="30"/>
			<point x="453" y="15" type="curve" smooth="yes"/>
			<point x="517" y="0"/>
			<point x="583" y="-8"/>
		</contour>
		<contour>
			<point x="243" y="342" type="curve" smooth="yes"/>
			<point x="243" y="391"/>
			<point x="264" y="432"/>
			<point x="306" y="467" type="curve" smooth="yes"/>
			<point x="347" y="502"/>
			<point x="398" y="527"/>
			<point x="458" y="542" type="curve" smooth="yes"/>
			<point x="517" y="557"/>
			<point x="581" y="564"/>
			<point x="649" y="564" type="curve" smooth="yes"/>
			<point x="713" y="564"/>
			<point x="774" y="556"/>
			<point x="833" y="539" type="curve" smooth="yes"/>
			<point x="892" y="522"/>
			<point x="941" y="497"/>
			<point x="980" y="464" type="curve" smooth="yes"/>
			<point x="1019" y="430"/>
			<point x="1038" y="391"/>
			<point x="1038" y="348" type="curve" smooth="yes"/>
			<point x="1038" y="307"/>
			<point x="1017" y="269"/>
			<point x="975" y="235" type="curve" smooth="yes"/>
			<point x="932" y="200"/>
			<point x="881" y="174"/>
			<point x="820" y="157" type="curve" smooth="yes"/>
			<point x="759" y="140"/>
			<point x="698" y="131"/>
			<point x="637" y="131" type="curve" smooth="yes"/>
			<point x="577" y="131"/>
			<point x="517" y="140"/>
			<point x="458" y="157" type="curve" smooth="yes"/>
			<point x="398" y="174"/>
			<point x="347" y="199"/>
			<point x="306" y="232" type="curve" smooth="yes"/>
			<point x="264" y="265"/>
			<point x="243" y="302"/>
		</contour>
		<contour>
			<point x="251" y="885" type="curve" smooth="yes"/>
			<point x="251" y="925"/>
			<point x="272" y="962"/>
			<point x="314" y="995" type="curve" smooth="yes"/>
			<point x="397" y="1062"/>
			<point x="525" y="1096"/>
			<point x="645" y="1096" type="curve" smooth="yes"/>
			<point x="706" y="1096"/>
			<point x="767" y="1087"/>
			<point x="828" y="1070" type="curve" smooth="yes"/>
			<point x="889" y="1053"/>
			<point x="940" y="1027"/>
			<point x="983" y="993" type="curve" smooth="yes"/>
			<point x="1025" y="958"/>
			<point x="1046" y="920"/>
			<point x="1046" y="879" type="curve" smooth="yes"/>
			<point x="1046" y="844"/>
			<point x="1027" y="812"/>
			<point x="988" y="784" type="curve" smooth="yes"/>
			<point x="949" y="755"/>
			<point x="900" y="734"/>
			<point x="843" y="720" type="curve" smooth="yes"/>
			<point x="785" y="705"/>
			<point x="725" y="698"/>
			<point x="664" y="698" type="curve" smooth="yes"/>
			<point x="626" y="698" type="line" smooth="yes"/>
			<point x="567" y="699"/>
			<point x="510" y="706"/>
			<point x="454" y="721" type="curve" smooth="yes"/>
			<point x="397" y="736"/>
			<point x="349" y="758"/>
			<point x="310" y="787" type="curve" smooth="yes"/>
			<point x="271" y="816"/>
			<point x="251" y="848"/>
		</contour>
	</outline>
</glyph>
<glyph name="nine" format="2">
	<advance width="1276"/>
	<unicode hex="0039"/>
	<note>
		nine
	</note>
	<outline>
		<contour>
			<point x="611" y="0" type="curve" smooth="yes"/>
			<point x="685" y="0"/>
			<point x="754" y="12"/>
			<point x="819" y="36" type="curve" smooth="yes"/>
			<point x="880" y="58"/>
			<point x="937" y="91"/>
			<point x="990" y="135" type="curve" smooth="yes"/>
			<point x="1013" y="154"/>
			<point x="1036" y="180"/>
			<point x="1058" y="212" type="curve" smooth="yes"/>
			<point x="1080" y="244"/>
			<point x="1096" y="273"/>
			<point x="1106" y="300" type="curve" smooth="yes"/>
			<point x="1107" y="304"/>
			<point x="1110" y="311"/>
			<point x="1114" y="322" type="curve" smooth="yes"/>
			<point x="1124" y="346" type="line"/>
			<point x="1131" y="376"/>
			<point x="1140" y="392"/>
			<point x="1150" y="435" type="curve" smooth="yes"/>
			<point x="1153" y="450"/>
			<point x="1156" y="463"/>
			<point x="1158" y="475" type="curve" smooth="yes"/>
			<point x="1160" y="488"/>
			<point x="1162" y="503"/>
			<point x="1164" y="522" type="curve" smooth="yes"/>
			<point x="1169" y="559"/>
			<point x="1173" y="594"/>
			<point x="1174" y="642" type="curve" smooth="yes"/>
			<point x="1177" y="718" type="line" smooth="yes"/>
			<point x="1178" y="731"/>
			<point x="1178" y="744"/>
			<point x="1178" y="757" type="curve" smooth="yes"/>
			<point x="1178" y="763" type="line" smooth="yes"/>
			<point x="1178" y="836"/>
			<point x="1171" y="901"/>
			<point x="1156" y="958" type="curve" smooth="yes"/>
			<point x="1142" y="1015"/>
			<point x="1121" y="1064"/>
			<point x="1092" y="1106" type="curve" smooth="yes"/>
			<point x="1064" y="1147"/>
			<point x="1028" y="1179"/>
			<point x="983" y="1201" type="curve" smooth="yes"/>
			<point x="938" y="1223"/>
			<point x="885" y="1234"/>
			<point x="826" y="1234" type="curve" smooth="yes"/>
			<point x="766" y="1234"/>
			<point x="715" y="1223"/>
			<point x="672" y="1202" type="curve" smooth="yes"/>
			<point x="629" y="1180"/>
			<point x="595" y="1148"/>
			<point x="570" y="1107" type="curve" smooth="yes"/>
			<point x="545" y="1066"/>
			<point x="526" y="1017"/>
			<point x="515" y="962" type="curve" smooth="yes"/>
			<point x="503" y="906"/>
			<point x="497" y="841"/>
			<point x="497" y="768" type="curve" smooth="yes"/>
			<point x="498" y="609"/>
			<point x="524" y="493"/>
			<point x="575" y="418" type="curve" smooth="yes"/>
			<point x="626" y="343"/>
			<point x="711" y="306"/>
			<point x="830" y="307" type="curve" smooth="yes"/>
			<point x="889" y="307"/>
			<point x="941" y="316"/>
			<point x="984" y="334" type="curve"/>
			<point x="976" y="320" type="line" smooth="yes"/>
			<point x="955" y="283"/>
			<point x="925" y="251"/>
			<point x="888" y="224" type="curve" smooth="yes"/>
			<point x="852" y="197"/>
			<point x="810" y="175"/>
			<point x="763" y="160" type="curve" smooth="yes"/>
			<point x="715" y="145"/>
			<point x="664" y="137"/>
			<point x="611" y="137" type="curve" smooth="yes"/>
			<point x="558" y="137"/>
			<point x="508" y="145"/>
			<point x="461" y="160" type="curve" smooth="yes"/>
			<point x="413" y="175"/>
			<point x="371" y="196"/>
			<point x="335" y="223" type="curve" smooth="yes"/>
			<point x="298" y="250"/>
			<point x="269" y="282"/>
			<point x="247" y="319" type="curve" smooth="yes"/>
			<point x="225" y="357"/>
			<point x="214" y="397"/>
			<point x="214" y="440" type="curve"/>
			<point x="78" y="440" type="line"/>
			<point x="78" y="381"/>
			<point x="92" y="325"/>
			<point x="120" y="272" type="curve" smooth="yes"/>
			<point x="148" y="218"/>
			<point x="186" y="171"/>
			<point x="234" y="131" type="curve" smooth="yes"/>
			<point x="283" y="91"/>
			<point x="340" y="59"/>
			<point x="405" y="35" type="curve" smooth="yes"/>
			<point x="470" y="12"/>
			<point x="538" y="0"/>
		</contour>
		<contour>
			<point x="631" y="768" type="curve" smooth="yes"/>
			<point x="631" y="814"/>
			<point x="632" y="853"/>
			<point x="635" y="884" type="curve" smooth="yes"/>
			<point x="637" y="915"/>
			<point x="642" y="945"/>
			<point x="650" y="974" type="curve" smooth="yes"/>
			<point x="658" y="1003"/>
			<point x="669" y="1027"/>
			<point x="683" y="1044" type="curve" smooth="yes"/>
			<point x="697" y="1061"/>
			<point x="716" y="1074"/>
			<point x="740" y="1084" type="curve" smooth="yes"/>
			<point x="763" y="1093"/>
			<point x="792" y="1098"/>
			<point x="825" y="1098" type="curve" smooth="yes"/>
			<point x="906" y="1099"/>
			<point x="964" y="1071"/>
			<point x="998" y="1015" type="curve" smooth="yes"/>
			<point x="1032" y="959"/>
			<point x="1049" y="875"/>
			<point x="1049" y="764" type="curve" smooth="yes"/>
			<point x="1050" y="645"/>
			<point x="1034" y="562"/>
			<point x="1002" y="514" type="curve" smooth="yes"/>
			<point x="969" y="466"/>
			<point x="911" y="442"/>
			<point x="827" y="441" type="curve" smooth="yes"/>
			<point x="793" y="441"/>
			<point x="764" y="445"/>
			<point x="741" y="454" type="curve" smooth="yes"/>
			<point x="718" y="462"/>
			<point x="699" y="473"/>
			<point x="685" y="488" type="curve" smooth="yes"/>
			<point x="670" y="503"/>
			<point x="659" y="524"/>
			<point x="652" y="552" type="curve" smooth="yes"/>
			<point x="644" y="581"/>
			<point x="639" y="611"/>
			<point x="636" y="643" type="curve" smooth="yes"/>
			<point x="633" y="676"/>
			<point x="631" y="717"/>
		</contour>
	</outline>
</glyph>
<glyph name="colon" format="2">
	<advance width="511"/>
	<unicode hex="003A"/>
	<note>
		colon
	</note>
	<outline>
		<contour>
			<point x="189" y="933" type="line"/>
			<point x="189" y="759" type="line"/>
			<point x="323" y="759" type="line"/>
			<point x="323" y="933" type="line"/>
		</contour>
		<contour>
			<point x="188" y="174" type="line"/>
			<point x="188" y="0" type="line"/>
			<point x="322" y="0" type="line"/>
			<point x="322" y="174" type="line"/>
		</contour>
	</outline>
</glyph>
<glyph name="semicolon" format="2">
	<advance width="512"/>
	<unicode hex="003B"/>
	<note>
		semicolon
	</note>
	<outline>
		<contour>
			<point x="188" y="184" type="line"/>
			<point x="188" y="-410" type="line"/>
			<point x="322" y="-410" type="line"/>
			<point x="322" y="184" type="line"/>
		</contour>
		<contour>
			<point x="190" y="936" type="line"/>
			<point x="190" y="762" type="line"/>
			<point x="324" y="762" type="line"/>
			<point x="324" y="936" type="line"/>
		</contour>
	</outline>
</glyph>
<glyph name="less" format="2">
	<advance width="1540"/>
	<unicode hex="003C"/>
	<note>
		less
	</note>
	<outline>
		<contour>
			<point x="258" y="454" type="line"/>
			<point x="1232" y="170" type="line"/>
			<point x="1232" y="314" type="line"/>
			<point x="502" y="520" type="line"/>
			<point x="1232" y="730" type="line"/>
			<point x="1232" y="865" type="line"/>
			<point x="258" y="590" type="line"/>
		</contour>
	</outline>
</glyph>
<glyph name="equal" format="2">
	<advance width="1830"/>
	<unicode hex="003D"/>
	<note>
		equal
	</note>
	<outline>
		<contour>
			<point x="278" y="744" type="line"/>
			<point x="278" y="610" type="line"/>
			<point x="1552" y="610" type="line"/>
			<point x="1552" y="744" type="line"/>
		</contour>
		<contour>
			<point x="278" y="380" type="line"/>
			<point x="278" y="246" type="line"/>
			<point x="1552" y="246" type="line"/>
			<point x="1552" y="380" type="line"/>
		</contour>
	</outline>
</glyph>
<glyph name="greater" format="2">
	<advance width="1540"/>
	<unicode hex="003E"/>
	<note>
		greater
	</note>
	<outline>
		<contour>
			<point x="308" y="316" type="line"/>
			<point x="308" y="172" type="line"/>
			<point x="1282" y="456" type="line"/>
			<point x="1282" y="592" type="line"/>
			<point x="308" y="867" type="line"/>
			<point x="308" y="732" type="line"/>
			<point x="1038" y="522" type="line"/>
		</contour>
	</outline>
</glyph>
<glyph name="question" format="2">
	<advance width="1180"/>
	<unicode hex="003F"/>
	<note>
		question
	</note>
	<outline>
		<contour>
			<point x="513" y="372" type="curve"/>
			<point x="642" y="372" type="line"/>
			<point x="637" y="442"/>
			<point x="640" y="502"/>
			<point x="650" y="553" type="curve" smooth="yes"/>
			<point x="661" y="603"/>
			<point x="680" y="647"/>
			<point x="709" y="686" type="curve" smooth="yes"/>
			<point x="738" y="724"/>
			<point x="780" y="752"/>
			<point x="835" y="771" type="curve" smooth="yes"/>
			<point x="890" y="790"/>
			<point x="959" y="799"/>
			<point x="1042" y="799" type="curve"/>
			<point x="1042" y="922" type="line" smooth="yes"/>
			<point x="1042" y="1021"/>
			<point x="1023" y="1112"/>
			<point x="984" y="1196" type="curve" smooth="yes"/>
			<point x="945" y="1280"/>
			<point x="892" y="1347"/>
			<point x="825" y="1396" type="curve" smooth="yes"/>
			<point x="758" y="1445"/>
			<point x="684" y="1470"/>
			<point x="605" y="1470" type="curve" smooth="yes"/>
			<point x="526" y="1470"/>
			<point x="452" y="1445"/>
			<point x="383" y="1395" type="curve" smooth="yes"/>
			<point x="314" y="1345"/>
			<point x="259" y="1278"/>
			<point x="219" y="1193" type="curve" smooth="yes"/>
			<point x="178" y="1108"/>
			<point x="158" y="1017"/>
			<point x="158" y="920" type="curve"/>
			<point x="291" y="920" type="line"/>
			<point x="291" y="1031"/>
			<point x="322" y="1128"/>
			<point x="383" y="1211" type="curve" smooth="yes"/>
			<point x="444" y="1294"/>
			<point x="517" y="1335"/>
			<point x="602" y="1335" type="curve" smooth="yes"/>
			<point x="687" y="1335"/>
			<point x="760" y="1296"/>
			<point x="820" y="1217" type="curve" smooth="yes"/>
			<point x="880" y="1138"/>
			<point x="911" y="1038"/>
			<point x="914" y="917" type="curve"/>
			<point x="837" y="908"/>
			<point x="771" y="887"/>
			<point x="716" y="856" type="curve" smooth="yes"/>
			<point x="660" y="825"/>
			<point x="616" y="785"/>
			<point x="584" y="737" type="curve" smooth="yes"/>
			<point x="553" y="688"/>
			<point x="531" y="634"/>
			<point x="519" y="573" type="curve" smooth="yes"/>
			<point x="507" y="512"/>
			<point x="505" y="445"/>
		</contour>
		<contour>
			<point x="510" y="176" type="line"/>
			<point x="510" y="0" type="line"/>
			<point x="644" y="0" type="line"/>
			<point x="644" y="176" type="line"/>
		</contour>
	</outline>
</glyph>
<glyph name="at" format="2">
	<advance width="1670"/>
	<unicode hex="0040"/>
	<note>
		at
	</note>
	<outline>
		<contour>
			<point x="840" y="-93" type="curve" smooth="yes"/>
			<point x="905" y="-93"/>
			<point x="970" y="-83"/>
			<point x="1035" y="-63" type="curve" smooth="yes"/>
			<point x="1091" y="-46"/>
			<point x="1143" y="-21"/>
			<point x="1191" y="12" type="curve"/>
			<point x="1110" y="123" type="line"/>
			<point x="1074" y="99"/>
			<point x="1035" y="80"/>
			<point x="994" y="67" type="curve" smooth="yes"/>
			<point x="945" y="51"/>
			<point x="893" y="43"/>
			<point x="840" y="43" type="curve" smooth="yes"/>
			<point x="773" y="43"/>
			<point x="709" y="56"/>
			<point x="649" y="82" type="curve" smooth="yes"/>
			<point x="589" y="107"/>
			<point x="537" y="142"/>
			<point x="492" y="187" type="curve" smooth="yes"/>
			<point x="447" y="232"/>
			<point x="411" y="283"/>
			<point x="385" y="342" type="curve" smooth="yes"/>
			<point x="359" y="401"/>
			<point x="346" y="465"/>
			<point x="346" y="533" type="curve" smooth="yes"/>
			<point x="346" y="600"/>
			<point x="359" y="664"/>
			<point x="385" y="724" type="curve" smooth="yes"/>
			<point x="411" y="783"/>
			<point x="446" y="835"/>
			<point x="491" y="880" type="curve" smooth="yes"/>
			<point x="536" y="924"/>
			<point x="588" y="959"/>
			<point x="648" y="985" type="curve" smooth="yes"/>
			<point x="708" y="1011"/>
			<point x="772" y="1024"/>
			<point x="840" y="1024" type="curve" smooth="yes"/>
			<point x="901" y="1024"/>
			<point x="960" y="1013"/>
			<point x="1018" y="992" type="curve" smooth="yes"/>
			<point x="1055" y="979"/>
			<point x="1089" y="961"/>
			<point x="1121" y="940" type="curve"/>
			<point x="1131" y="932" type="line"/>
			<point x="1147" y="921" type="line" smooth="yes"/>
			<point x="1152" y="917"/>
			<point x="1156" y="913"/>
			<point x="1161" y="910" type="curve" smooth="yes"/>
			<point x="1165" y="907"/>
			<point x="1169" y="903"/>
			<point x="1173" y="899" type="curve" smooth="yes"/>
			<point x="1218" y="859"/>
			<point x="1255" y="810"/>
			<point x="1283" y="754" type="curve" smooth="yes"/>
			<point x="1311" y="697"/>
			<point x="1325" y="632"/>
			<point x="1325" y="561" type="curve" smooth="yes"/>
			<point x="1324" y="484"/>
			<point x="1310" y="426"/>
			<point x="1284" y="387" type="curve" smooth="yes"/>
			<point x="1255" y="344"/>
			<point x="1217" y="323"/>
			<point x="1169" y="323" type="curve" smooth="yes"/>
			<point x="1148" y="323"/>
			<point x="1132" y="328"/>
			<point x="1121" y="338" type="curve" smooth="yes"/>
			<point x="1111" y="347"/>
			<point x="1104" y="358"/>
			<point x="1100" y="373" type="curve" smooth="yes"/>
			<point x="1097" y="384"/>
			<point x="1096" y="397"/>
			<point x="1097" y="410" type="curve"/>
			<point x="1097" y="882" type="line"/>
			<point x="960" y="882" type="line"/>
			<point x="960" y="829" type="line"/>
			<point x="923" y="849" type="line" smooth="yes"/>
			<point x="882" y="871"/>
			<point x="839" y="882"/>
			<point x="794" y="882" type="curve" smooth="yes"/>
			<point x="752" y="882"/>
			<point x="713" y="873"/>
			<point x="676" y="855" type="curve" smooth="yes"/>
			<point x="639" y="836"/>
			<point x="607" y="811"/>
			<point x="579" y="780" type="curve" smooth="yes"/>
			<point x="552" y="748"/>
			<point x="530" y="711"/>
			<point x="514" y="669" type="curve" smooth="yes"/>
			<point x="498" y="626"/>
			<point x="490" y="581"/>
			<point x="490" y="533" type="curve" smooth="yes"/>
			<point x="490" y="486"/>
			<point x="498" y="441"/>
			<point x="514" y="398" type="curve" smooth="yes"/>
			<point x="531" y="356"/>
			<point x="553" y="319"/>
			<point x="580" y="287" type="curve" smooth="yes"/>
			<point x="607" y="256"/>
			<point x="640" y="231"/>
			<point x="677" y="214" type="curve" smooth="yes"/>
			<point x="714" y="196"/>
			<point x="753" y="187"/>
			<point x="794" y="187" type="curve" smooth="yes"/>
			<point x="861" y="187"/>
			<point x="921" y="210"/>
			<point x="976" y="256" type="curve" smooth="yes"/>
			<point x="995" y="273" type="line"/>
			<point x="1011" y="253" type="line" smooth="yes"/>
			<point x="1038" y="220"/>
			<point x="1075" y="199"/>
			<point x="1121" y="191" type="curve" smooth="yes"/>
			<point x="1136" y="188"/>
			<point x="1152" y="187"/>
			<point x="1168" y="187" type="curve" smooth="yes"/>
			<point x="1211" y="187"/>
			<point x="1251" y="195"/>
			<point x="1286" y="212" type="curve" smooth="yes"/>
			<point x="1304" y="221"/>
			<point x="1321" y="231"/>
			<point x="1336" y="243" type="curve" smooth="yes"/>
			<point x="1380" y="279"/>
			<point x="1418" y="334"/>
			<point x="1439" y="402" type="curve" smooth="yes"/>
			<point x="1454" y="449"/>
			<point x="1461" y="501"/>
			<point x="1462" y="560" type="curve" smooth="yes"/>
			<point x="1462" y="619"/>
			<point x="1454" y="675"/>
			<point x="1438" y="728" type="curve" smooth="yes"/>
			<point x="1421" y="781"/>
			<point x="1399" y="829"/>
			<point x="1370" y="873" type="curve" smooth="yes"/>
			<point x="1342" y="918"/>
			<point x="1309" y="958"/>
			<point x="1270" y="993" type="curve" smooth="yes"/>
			<point x="1230" y="1029"/>
			<point x="1189" y="1059"/>
			<point x="1142" y="1084" type="curve" smooth="yes"/>
			<point x="1096" y="1109"/>
			<point x="1047" y="1128"/>
			<point x="996" y="1141" type="curve" smooth="yes"/>
			<point x="944" y="1154"/>
			<point x="892" y="1161"/>
			<point x="840" y="1161" type="curve" smooth="yes"/>
			<point x="664" y="1161"/>
			<point x="515" y="1100"/>
			<point x="394" y="978" type="curve" smooth="yes"/>
			<point x="270" y="855"/>
			<point x="208" y="706"/>
			<point x="208" y="533" type="curve" smooth="yes"/>
			<point x="208" y="360"/>
			<point x="270" y="212"/>
			<point x="394" y="91" type="curve" smooth="yes"/>
			<point x="517" y="-32"/>
			<point x="665" y="-93"/>
		</contour>
		<contour>
			<point x="628" y="533" type="curve" smooth="yes"/>
			<point x="628" y="562"/>
			<point x="632" y="589"/>
			<point x="640" y="614" type="curve" smooth="yes"/>
			<point x="648" y="639"/>
			<point x="659" y="661"/>
			<point x="674" y="680" type="curve" smooth="yes"/>
			<point x="689" y="700"/>
			<point x="706" y="716"/>
			<point x="726" y="728" type="curve" smooth="yes"/>
			<point x="747" y="740"/>
			<point x="769" y="746"/>
			<point x="794" y="746" type="curve" smooth="yes"/>
			<point x="837" y="746"/>
			<point x="875" y="727"/>
			<point x="907" y="688" type="curve" smooth="yes"/>
			<point x="942" y="645"/>
			<point x="960" y="593"/>
			<point x="960" y="533" type="curve" smooth="yes"/>
			<point x="960" y="507"/>
			<point x="956" y="482"/>
			<point x="948" y="457" type="curve" smooth="yes"/>
			<point x="940" y="432"/>
			<point x="929" y="409"/>
			<point x="914" y="390" type="curve" smooth="yes"/>
			<point x="899" y="370"/>
			<point x="882" y="354"/>
			<point x="862" y="342" type="curve" smooth="yes"/>
			<point x="841" y="329"/>
			<point x="818" y="323"/>
			<point x="794" y="323" type="curve" smooth="yes"/>
			<point x="769" y="323"/>
			<point x="747" y="329"/>
			<point x="726" y="341" type="curve" smooth="yes"/>
			<point x="706" y="353"/>
			<point x="689" y="369"/>
			<point x="674" y="389" type="curve" smooth="yes"/>
			<point x="659" y="408"/>
			<point x="648" y="431"/>
			<point x="640" y="456" type="curve" smooth="yes"/>
			<point x="632" y="481"/>
			<point x="628" y="506"/>
		</contour>
	</outline>
</glyph>
<glyph name="B" format="2">
	<advance width="1731"/>
	<unicode hex="0042"/>
	<note>
		B
	</note>
	<outline>
		<contour>
			<point x="103" y="1263" type="line"/>
			<point x="106" y="1" type="line"/>
			<point x="1284" y="1" type="line" smooth="yes"/>
			<point x="1330" y="1"/>
			<point x="1374" y="10"/>
			<point x="1416" y="28" type="curve" smooth="yes"/>
			<point x="1458" y="45"/>
			<point x="1495" y="70"/>
			<point x="1526" y="101" type="curve" smooth="yes"/>
			<point x="1557" y="132"/>
			<point x="1581" y="169"/>
			<point x="1600" y="214" type="curve" smooth="yes"/>
			<point x="1619" y="259"/>
			<point x="1628" y="306"/>
			<point x="1628" y="356" type="curve" smooth="yes"/>
			<point x="1628" y="417"/>
			<point x="1612" y="474"/>
			<point x="1580" y="526" type="curve" smooth="yes"/>
			<point x="1547" y="577"/>
			<point x="1504" y="618"/>
			<point x="1450" y="647" type="curve" smooth="yes"/>
			<point x="1397" y="676"/>
			<point x="1339" y="691"/>
			<point x="1278" y="691" type="curve" smooth="yes"/>
			<point x="1019" y="691" type="line"/>
			<point x="1076" y="752"/>
			<point x="1105" y="830"/>
			<point x="1105" y="923" type="curve" smooth="yes"/>
			<point x="1104" y="965"/>
			<point x="1095" y="1006"/>
			<point x="1078" y="1047" type="curve" smooth="yes"/>
			<point x="1061" y="1088"/>
			<point x="1038" y="1124"/>
			<point x="1009" y="1156" type="curve" smooth="yes"/>
			<point x="980" y="1188"/>
			<point x="943" y="1214"/>
			<point x="899" y="1233" type="curve" smooth="yes"/>
			<point x="856" y="1252"/>
			<point x="809" y="1262"/>
			<point x="759" y="1263" type="curve" smooth="yes"/>
		</contour>
		<contour>
			<point x="238" y="691" type="line"/>
			<point x="237" y="1126" type="line"/>
			<point x="759" y="1126" type="line" smooth="yes"/>
			<point x="791" y="1126"/>
			<point x="822" y="1118"/>
			<point x="853" y="1102" type="curve" smooth="yes"/>
			<point x="884" y="1086"/>
			<point x="910" y="1062"/>
			<point x="931" y="1030" type="curve" smooth="yes"/>
			<point x="952" y="997"/>
			<point x="964" y="960"/>
			<point x="965" y="918" type="curve" smooth="yes"/>
			<point x="966" y="885"/>
			<point x="960" y="854"/>
			<point x="948" y="827" type="curve" smooth="yes"/>
			<point x="937" y="800"/>
			<point x="922" y="778"/>
			<point x="903" y="762" type="curve" smooth="yes"/>
			<point x="885" y="745"/>
			<point x="864" y="732"/>
			<point x="840" y="721" type="curve" smooth="yes"/>
			<point x="817" y="710"/>
			<point x="795" y="702"/>
			<point x="774" y="698" type="curve" smooth="yes"/>
			<point x="754" y="693"/>
			<point x="735" y="691"/>
			<point x="717" y="691" type="curve" smooth="yes"/>
		</contour>
		<contour>
			<point x="240" y="135" type="line"/>
			<point x="239" y="557" type="line"/>
			<point x="1278" y="557" type="line" smooth="yes"/>
			<point x="1346" y="557"/>
			<point x="1415" y="522"/>
			<point x="1458" y="459" type="curve" smooth="yes"/>
			<point x="1479" y="427"/>
			<point x="1490" y="393"/>
			<point x="1490" y="356" type="curve" smooth="yes"/>
			<point x="1490" y="322"/>
			<point x="1484" y="291"/>
			<point x="1471" y="262" type="curve" smooth="yes"/>
			<point x="1458" y="233"/>
			<point x="1442" y="209"/>
			<point x="1422" y="192" type="curve" smooth="yes"/>
			<point x="1381" y="156"/>
			<point x="1332" y="135"/>
			<point x="1284" y="135" type="curve" smooth="yes"/>
		</contour>
	</outline>
</glyph>
<glyph name="C" format="2">
	<advance width="1514"/>
	<unicode hex="0043"/>
	<note>
		C
	</note>
	<outline>
		<contour>
			<point x="847" y="-9" type="curve" smooth="yes"/>
			<point x="1030" y="-9"/>
			<point x="1196" y="56"/>
			<point x="1325" y="177" type="curve" smooth="yes"/>
			<point x="1360" y="209"/>
			<point x="1390" y="244"/>
			<point x="1415" y="283" type="curve"/>
			<point x="1295" y="348" type="line"/>
			<point x="1274" y="319"/>
			<point x="1250" y="293"/>
			<point x="1223" y="269" type="curve" smooth="yes"/>
			<point x="1191" y="240"/>
			<point x="1155" y="214"/>
			<point x="1116" y="193" type="curve" smooth="yes"/>
			<point x="1076" y="172"/>
			<point x="1033" y="155"/>
			<point x="988" y="144" type="curve" smooth="yes"/>
			<point x="943" y="133"/>
			<point x="896" y="127"/>
			<point x="847" y="127" type="curve" smooth="yes"/>
			<point x="773" y="127"/>
			<point x="704" y="140"/>
			<point x="639" y="165" type="curve" smooth="yes"/>
			<point x="574" y="191"/>
			<point x="517" y="226"/>
			<point x="468" y="270" type="curve" smooth="yes"/>
			<point x="419" y="314"/>
			<point x="381" y="366"/>
			<point x="352" y="426" type="curve" smooth="yes"/>
			<point x="323" y="486"/>
			<point x="309" y="550"/>
			<point x="309" y="617" type="curve" smooth="yes"/>
			<point x="309" y="656"/>
			<point x="315" y="701"/>
			<point x="326" y="748" type="curve" smooth="yes"/>
			<point x="333" y="777"/>
			<point x="343" y="806"/>
			<point x="354" y="830" type="curve" smooth="yes"/>
			<point x="383" y="889"/>
			<point x="422" y="941"/>
			<point x="471" y="985" type="curve" smooth="yes"/>
			<point x="519" y="1029"/>
			<point x="577" y="1065"/>
			<point x="641" y="1090" type="curve" smooth="yes"/>
			<point x="706" y="1115"/>
			<point x="776" y="1129"/>
			<point x="849" y="1129" type="curve" smooth="yes"/>
			<point x="898" y="1129"/>
			<point x="944" y="1123"/>
			<point x="989" y="1112" type="curve" smooth="yes"/>
			<point x="1034" y="1101"/>
			<point x="1076" y="1085"/>
			<point x="1116" y="1064" type="curve" smooth="yes"/>
			<point x="1156" y="1043"/>
			<point x="1192" y="1017"/>
			<point x="1225" y="988" type="curve" smooth="yes"/>
			<point x="1252" y="964"/>
			<point x="1275" y="938"/>
			<point x="1296" y="910" type="curve"/>
			<point x="1416" y="977" type="line"/>
			<point x="1390" y="1014"/>
			<point x="1360" y="1048"/>
			<point x="1325" y="1080" type="curve" smooth="yes"/>
			<point x="1283" y="1118"/>
			<point x="1237" y="1151"/>
			<point x="1187" y="1178" type="curve" smooth="yes"/>
			<point x="1087" y="1234"/>
			<point x="972" y="1266"/>
			<point x="849" y="1266" type="curve" smooth="yes"/>
			<point x="737" y="1266"/>
			<point x="633" y="1244"/>
			<point x="542" y="1200" type="curve" smooth="yes"/>
			<point x="481" y="1170"/>
			<point x="424" y="1130"/>
			<point x="372" y="1081" type="curve" smooth="yes"/>
			<point x="307" y="1020"/>
			<point x="258" y="949"/>
			<point x="224" y="868" type="curve" smooth="yes"/>
			<point x="190" y="788"/>
			<point x="173" y="704"/>
			<point x="173" y="617" type="curve" smooth="yes"/>
			<point x="173" y="444"/>
			<point x="238" y="297"/>
			<point x="369" y="175" type="curve" smooth="yes"/>
			<point x="501" y="52"/>
			<point x="660" y="-9"/>
		</contour>
	</outline>
</glyph>
<glyph name="D" format="2">
	<advance width="1701"/>
	<unicode hex="0044"/>
	<note>
		D
	</note>
	<outline>
		<contour>
			<point x="113" y="1262" type="line"/>
			<point x="116" y="0" type="line"/>
			<point x="935" y="0" type="line" smooth="yes"/>
			<point x="1036" y="0"/>
			<point x="1126" y="13"/>
			<point x="1207" y="40" type="curve" smooth="yes"/>
			<point x="1288" y="66"/>
			<point x="1357" y="105"/>
			<point x="1415" y="156" type="curve" smooth="yes"/>
			<point x="1473" y="208"/>
			<point x="1517" y="274"/>
			<point x="1548" y="354" type="curve" smooth="yes"/>
			<point x="1579" y="435"/>
			<point x="1595" y="527"/>
			<point x="1595" y="632" type="curve" smooth="yes"/>
			<point x="1595" y="729"/>
			<point x="1582" y="815"/>
			<point x="1556" y="891" type="curve" smooth="yes"/>
			<point x="1530" y="967"/>
			<point x="1491" y="1033"/>
			<point x="1438" y="1089" type="curve" smooth="yes"/>
			<point x="1385" y="1145"/>
			<point x="1316" y="1188"/>
			<point x="1231" y="1218" type="curve" smooth="yes"/>
			<point x="1146" y="1247"/>
			<point x="1046" y="1262"/>
			<point x="932" y="1262" type="curve" smooth="yes"/>
		</contour>
		<contour>
			<point x="250" y="131" type="line"/>
			<point x="247" y="1131" type="line"/>
			<point x="932" y="1131" type="line" smooth="yes"/>
			<point x="1100" y="1131"/>
			<point x="1229" y="1087"/>
			<point x="1318" y="1000" type="curve" smooth="yes"/>
			<point x="1407" y="913"/>
			<point x="1452" y="793"/>
			<point x="1452" y="640" type="curve" smooth="yes"/>
			<point x="1452" y="559"/>
			<point x="1439" y="487"/>
			<point x="1414" y="423" type="curve" smooth="yes"/>
			<point x="1388" y="359"/>
			<point x="1352" y="306"/>
			<point x="1306" y="264" type="curve" smooth="yes"/>
			<point x="1259" y="222"/>
			<point x="1205" y="190"/>
			<point x="1142" y="168" type="curve" smooth="yes"/>
			<point x="1079" y="145"/>
			<point x="1009" y="134"/>
			<point x="933" y="134" type="curve" smooth="yes"/>
		</contour>
	</outline>
</glyph>
<glyph name="F" format="2">
	<advance width="1494"/>
	<unicode hex="0046"/>
	<note>
		F
	</note>
	<outline>
		<contour>
			<point x="123" y="1262" type="line"/>
			<point x="126" y="0" type="line"/>
			<point x="260" y="0" type="line"/>
			<point x="259" y="571" type="line"/>
			<point x="1213" y="574" type="line"/>
			<point x="1213" y="708" type="line"/>
			<point x="258" y="705" type="line"/>
			<point x="257" y="1128" type="line"/>
			<point x="1399" y="1128" type="line"/>
			<point x="1399" y="1262" type="line"/>
		</contour>
	</outline>
</glyph>
<glyph name="G" format="2">
	<advance width="1571"/>
	<unicode hex="0047"/>
	<note>
		G
	</note>
	<outline>
		<contour>
			<point x="767" y="-8" type="curve" smooth="yes"/>
			<point x="876" y="-8"/>
			<point x="978" y="15"/>
			<point x="1072" y="60" type="curve" smooth="yes"/>
			<point x="1166" y="106"/>
			<point x="1244" y="169"/>
			<point x="1306" y="250" type="curve"/>
			<point x="1306" y="0" type="line"/>
			<point x="1440" y="0" type="line"/>
			<point x="1440" y="702" type="line"/>
			<point x="799" y="702" type="line"/>
			<point x="799" y="568" type="line"/>
			<point x="1298" y="568" type="line"/>
			<point x="1287" y="479"/>
			<point x="1256" y="401"/>
			<point x="1206" y="333" type="curve" smooth="yes"/>
			<point x="1156" y="266"/>
			<point x="1093" y="214"/>
			<point x="1016" y="178" type="curve" smooth="yes"/>
			<point x="940" y="143"/>
			<point x="857" y="125"/>
			<point x="766" y="125" type="curve" smooth="yes"/>
			<point x="669" y="125"/>
			<point x="581" y="145"/>
			<point x="502" y="185" type="curve" smooth="yes"/>
			<point x="423" y="225"/>
			<point x="360" y="282"/>
			<point x="314" y="355" type="curve" smooth="yes"/>
			<point x="267" y="429"/>
			<point x="243" y="513"/>
			<point x="242" y="608" type="curve" smooth="yes"/>
			<point x="243" y="691"/>
			<point x="256" y="765"/>
			<point x="283" y="831" type="curve" smooth="yes"/>
			<point x="310" y="897"/>
			<point x="347" y="951"/>
			<point x="395" y="994" type="curve" smooth="yes"/>
			<point x="442" y="1037"/>
			<point x="499" y="1071"/>
			<point x="564" y="1094" type="curve" smooth="yes"/>
			<point x="629" y="1117"/>
			<point x="700" y="1128"/>
			<point x="778" y="1129" type="curve" smooth="yes"/>
			<point x="781" y="1129" type="line" smooth="yes"/>
			<point x="822" y="1129"/>
			<point x="859" y="1127"/>
			<point x="891" y="1124" type="curve" smooth="yes"/>
			<point x="923" y="1121"/>
			<point x="958" y="1115"/>
			<point x="995" y="1104" type="curve" smooth="yes"/>
			<point x="1032" y="1093"/>
			<point x="1066" y="1079"/>
			<point x="1096" y="1061" type="curve" smooth="yes"/>
			<point x="1155" y="1025"/>
			<point x="1218" y="960"/>
			<point x="1269" y="872" type="curve"/>
			<point x="1378" y="935" type="line"/>
			<point x="1351" y="989"/>
			<point x="1318" y="1036"/>
			<point x="1280" y="1076" type="curve" smooth="yes"/>
			<point x="1242" y="1117"/>
			<point x="1203" y="1149"/>
			<point x="1164" y="1172" type="curve" smooth="yes"/>
			<point x="1125" y="1195"/>
			<point x="1082" y="1213"/>
			<point x="1035" y="1227" type="curve" smooth="yes"/>
			<point x="940" y="1255"/>
			<point x="870" y="1261"/>
			<point x="779" y="1261" type="curve" smooth="yes"/>
			<point x="679" y="1261"/>
			<point x="587" y="1244"/>
			<point x="502" y="1210" type="curve" smooth="yes"/>
			<point x="417" y="1177"/>
			<point x="346" y="1131"/>
			<point x="289" y="1073" type="curve" smooth="yes"/>
			<point x="232" y="1015"/>
			<point x="187" y="947"/>
			<point x="154" y="868" type="curve" smooth="yes"/>
			<point x="121" y="789"/>
			<point x="104" y="705"/>
			<point x="103" y="615" type="curve" smooth="yes"/>
			<point x="103" y="602" type="line" smooth="yes"/>
			<point x="105" y="515"/>
			<point x="124" y="433"/>
			<point x="159" y="357" type="curve" smooth="yes"/>
			<point x="194" y="281"/>
			<point x="241" y="216"/>
			<point x="300" y="163" type="curve" smooth="yes"/>
			<point x="359" y="110"/>
			<point x="429" y="69"/>
			<point x="510" y="38" type="curve" smooth="yes"/>
			<point x="591" y="7"/>
			<point x="676" y="-8"/>
		</contour>
	</outline>
</glyph>
<glyph name="H" format="2">
	<advance width="1619"/>
	<unicode hex="0048"/>
	<note>
		H
	</note>
	<outline>
		<contour>
			<point x="173" y="1263" type="line"/>
			<point x="176" y="0" type="line"/>
			<point x="310" y="0" type="line"/>
			<point x="309" y="571" type="line"/>
			<point x="1311" y="574" type="line"/>
			<point x="1312" y="0" type="line"/>
			<point x="1446" y="0" type="line"/>
			<point x="1443" y="1263" type="line"/>
			<point x="1309" y="1263" type="line"/>
			<point x="1310" y="708" type="line"/>
			<point x="308" y="705" type="line"/>
			<point x="307" y="1263" type="line"/>
		</contour>
	</outline>
</glyph>
<glyph name="I" format="2">
	<advance width="586"/>
	<unicode hex="0049"/>
	<note>
		I
	</note>
	<outline>
		<contour>
			<point x="226" y="1262" type="line"/>
			<point x="223" y="0" type="line"/>
			<point x="363" y="0" type="line"/>
			<point x="360" y="1262" type="line"/>
		</contour>
	</outline>
</glyph>
<glyph name="J" format="2">
	<advance width="1130"/>
	<unicode hex="004A"/>
	<note>
		J
	</note>
	<outline>
		<contour>
			<point x="63" y="0" type="line"/>
			<point x="937" y="-3" type="line"/>
			<point x="937" y="131" type="line"/>
			<point x="934" y="1262" type="line"/>
			<point x="800" y="1262" type="line"/>
			<point x="803" y="131" type="line"/>
			<point x="63" y="131" type="line"/>
		</contour>
	</outline>
</glyph>
<glyph name="K" format="2">
	<advance width="1342"/>
	<unicode hex="004B"/>
	<note>
		K
	</note>
	<outline>
		<contour>
			<point x="106" y="1263" type="line"/>
			<point x="103" y="0" type="line"/>
			<point x="237" y="0" type="line"/>
			<point x="238" y="556" type="line"/>
			<point x="443" y="556" type="line"/>
			<point x="443" y="557" type="line"/>
			<point x="458" y="555"/>
			<point x="476" y="548"/>
			<point x="499" y="537" type="curve" smooth="yes"/>
			<point x="525" y="526"/>
			<point x="547" y="511"/>
			<point x="566" y="492" type="curve" smooth="yes"/>
			<point x="585" y="473"/>
			<point x="600" y="451"/>
			<point x="611" y="425" type="curve" smooth="yes"/>
			<point x="621" y="404"/>
			<point x="626" y="383"/>
			<point x="627" y="360" type="curve"/>
			<point x="628" y="356"/>
			<point x="628" y="351"/>
			<point x="628" y="344" type="curve" smooth="yes"/>
			<point x="629" y="300"/>
			<point x="638" y="256"/>
			<point x="656" y="213" type="curve" smooth="yes"/>
			<point x="673" y="172"/>
			<point x="699" y="135"/>
			<point x="732" y="102" type="curve" smooth="yes"/>
			<point x="764" y="70"/>
			<point x="801" y="45"/>
			<point x="843" y="27" type="curve" smooth="yes"/>
			<point x="874" y="13"/>
			<point x="915" y="4"/>
			<point x="966" y="0" type="curve"/>
			<point x="1173" y="0" type="line"/>
			<point x="1173" y="132" type="line"/>
			<point x="985" y="132" type="line" smooth="yes"/>
			<point x="952" y="133"/>
			<point x="922" y="141"/>
			<point x="895" y="154" type="curve" smooth="yes"/>
			<point x="869" y="165"/>
			<point x="847" y="180"/>
			<point x="828" y="199" type="curve" smooth="yes"/>
			<point x="809" y="218"/>
			<point x="794" y="240"/>
			<point x="783" y="266" type="curve" smooth="yes"/>
			<point x="772" y="290"/>
			<point x="766" y="316"/>
			<point x="765" y="344" type="curve"/>
			<point x="766" y="344" type="line"/>
			<point x="766" y="349"/>
			<point x="765" y="355"/>
			<point x="764" y="360" type="curve"/>
			<point x="763" y="401"/>
			<point x="754" y="441"/>
			<point x="738" y="478" type="curve" smooth="yes"/>
			<point x="726" y="505"/>
			<point x="691" y="560"/>
			<point x="662" y="589" type="curve" smooth="yes"/>
			<point x="630" y="621"/>
			<point x="593" y="646"/>
			<point x="551" y="664" type="curve" smooth="yes"/>
			<point x="520" y="678"/>
			<point x="486" y="687"/>
			<point x="450" y="690" type="curve"/>
			<point x="1229" y="1263" type="line"/>
			<point x="1003" y="1263" type="line"/>
			<point x="239" y="696" type="line"/>
			<point x="240" y="1263" type="line"/>
		</contour>
	</outline>
</glyph>
<glyph name="L" format="2">
	<advance width="1376"/>
	<unicode hex="004C"/>
	<note>
		L
	</note>
	<outline>
		<contour>
			<point x="109" y="2" type="line"/>
			<point x="109" y="0" type="line"/>
			<point x="1372" y="0" type="line"/>
			<point x="1372" y="134" type="line"/>
			<point x="242" y="134" type="line"/>
			<point x="245" y="1262" type="line"/>
			<point x="111" y="1262" type="line"/>
			<point x="108" y="2" type="line"/>
		</contour>
	</outline>
</glyph>
<glyph name="M" format="2">
	<advance width="1888"/>
	<unicode hex="004D"/>
	<note>
		M
	</note>
	<outline>
		<contour>
			<point x="181" y="1262" type="line"/>
			<point x="178" y="0" type="line"/>
			<point x="312" y="0" type="line"/>
			<point x="314" y="1018" type="line"/>
			<point x="870" y="0" type="line"/>
			<point x="1022" y="0" type="line"/>
			<point x="1575" y="1015" type="line"/>
			<point x="1573" y="0" type="line"/>
			<point x="1707" y="0" type="line"/>
			<point x="1710" y="1262" type="line"/>
			<point x="1551" y="1262" type="line"/>
			<point x="946" y="140" type="line"/>
			<point x="340" y="1262" type="line"/>
		</contour>
	</outline>
</glyph>
<glyph name="N" format="2">
	<advance width="1559"/>
	<unicode hex="004E"/>
	<note>
		N
	</note>
	<outline>
		<contour>
			<point x="166" y="1262" type="line"/>
			<point x="163" y="0" type="line"/>
			<point x="297" y="0" type="line"/>
			<point x="299" y="1061" type="line"/>
			<point x="1259" y="0" type="line"/>
			<point x="1393" y="0" type="line"/>
			<point x="1396" y="1262" type="line"/>
			<point x="1262" y="1262" type="line"/>
			<point x="1259" y="199" type="line"/>
			<point x="300" y="1262" type="line"/>
		</contour>
	</outline>
</glyph>
<glyph name="O" format="2">
	<advance width="1552"/>
	<unicode hex="004F"/>
	<note>
		O
	</note>
	<outline>
		<contour>
			<point x="776" y="-9" type="curve" smooth="yes"/>
			<point x="865" y="-9"/>
			<point x="950" y="7"/>
			<point x="1031" y="38" type="curve" smooth="yes"/>
			<point x="1112" y="70"/>
			<point x="1182" y="113"/>
			<point x="1242" y="168" type="curve" smooth="yes"/>
			<point x="1301" y="223"/>
			<point x="1349" y="289"/>
			<point x="1386" y="366" type="curve" smooth="yes"/>
			<point x="1423" y="444"/>
			<point x="1444" y="527"/>
			<point x="1448" y="616" type="curve"/>
			<point x="1449" y="616" type="line"/>
			<point x="1449" y="641" type="line"/>
			<point x="1448" y="641" type="line"/>
			<point x="1444" y="730"/>
			<point x="1423" y="813"/>
			<point x="1386" y="890" type="curve" smooth="yes"/>
			<point x="1349" y="968"/>
			<point x="1301" y="1034"/>
			<point x="1242" y="1089" type="curve" smooth="yes"/>
			<point x="1182" y="1144"/>
			<point x="1112" y="1187"/>
			<point x="1031" y="1218" type="curve" smooth="yes"/>
			<point x="950" y="1250"/>
			<point x="865" y="1266"/>
			<point x="776" y="1266" type="curve" smooth="yes"/>
			<point x="762" y="1266" type="line" smooth="yes"/>
			<point x="708" y="1266"/>
			<point x="655" y="1259"/>
			<point x="604" y="1246" type="curve" smooth="yes"/>
			<point x="552" y="1233"/>
			<point x="504" y="1215"/>
			<point x="461" y="1192" type="curve" smooth="yes"/>
			<point x="374" y="1147"/>
			<point x="296" y="1083"/>
			<point x="239" y="1007" type="curve" smooth="yes"/>
			<point x="210" y="969"/>
			<point x="186" y="929"/>
			<point x="166" y="888" type="curve" smooth="yes"/>
			<point x="145" y="847"/>
			<point x="130" y="804"/>
			<point x="119" y="761" type="curve" smooth="yes"/>
			<point x="108" y="717"/>
			<point x="103" y="674"/>
			<point x="103" y="631" type="curve" smooth="yes"/>
			<point x="103" y="616" type="line" smooth="yes"/>
			<point x="106" y="525"/>
			<point x="126" y="441"/>
			<point x="163" y="363" type="curve" smooth="yes"/>
			<point x="200" y="285"/>
			<point x="248" y="219"/>
			<point x="308" y="165" type="curve" smooth="yes"/>
			<point x="368" y="111"/>
			<point x="439" y="68"/>
			<point x="520" y="37" type="curve" smooth="yes"/>
			<point x="601" y="6"/>
			<point x="686" y="-9"/>
		</contour>
		<contour>
			<point x="242" y="628" type="curve" smooth="yes"/>
			<point x="244" y="703"/>
			<point x="259" y="772"/>
			<point x="287" y="835" type="curve" smooth="yes"/>
			<point x="316" y="898"/>
			<point x="354" y="952"/>
			<point x="401" y="995" type="curve" smooth="yes"/>
			<point x="449" y="1038"/>
			<point x="505" y="1072"/>
			<point x="569" y="1096" type="curve" smooth="yes"/>
			<point x="634" y="1121"/>
			<point x="702" y="1133"/>
			<point x="775" y="1133" type="curve" smooth="yes"/>
			<point x="848" y="1133"/>
			<point x="916" y="1121"/>
			<point x="981" y="1097" type="curve" smooth="yes"/>
			<point x="1046" y="1073"/>
			<point x="1102" y="1039"/>
			<point x="1150" y="996" type="curve" smooth="yes"/>
			<point x="1199" y="953"/>
			<point x="1237" y="900"/>
			<point x="1266" y="836" type="curve" smooth="yes"/>
			<point x="1295" y="773"/>
			<point x="1311" y="703"/>
			<point x="1312" y="628" type="curve" smooth="yes"/>
			<point x="1311" y="553"/>
			<point x="1295" y="484"/>
			<point x="1266" y="420" type="curve" smooth="yes"/>
			<point x="1237" y="357"/>
			<point x="1199" y="303"/>
			<point x="1150" y="260" type="curve" smooth="yes"/>
			<point x="1102" y="217"/>
			<point x="1046" y="184"/>
			<point x="981" y="160" type="curve" smooth="yes"/>
			<point x="916" y="136"/>
			<point x="848" y="124"/>
			<point x="775" y="124" type="curve" smooth="yes"/>
			<point x="702" y="124"/>
			<point x="634" y="136"/>
			<point x="569" y="160" type="curve" smooth="yes"/>
			<point x="505" y="185"/>
			<point x="449" y="219"/>
			<point x="401" y="262" type="curve" smooth="yes"/>
			<point x="354" y="305"/>
			<point x="316" y="359"/>
			<point x="287" y="422" type="curve" smooth="yes"/>
			<point x="259" y="485"/>
			<point x="244" y="554"/>
		</contour>
	</outline>
</glyph>
<glyph name="P" format="2">
	<advance width="1467"/>
	<unicode hex="0050"/>
	<note>
		P
	</note>
	<outline>
		<contour>
			<point x="103" y="1262" type="line"/>
			<point x="106" y="0" type="line"/>
			<point x="240" y="0" type="line"/>
			<point x="239" y="561" type="line"/>
			<point x="998" y="561" type="line" smooth="yes"/>
			<point x="1050" y="561"/>
			<point x="1098" y="568"/>
			<point x="1142" y="582" type="curve" smooth="yes"/>
			<point x="1229" y="609"/>
			<point x="1286" y="657"/>
			<point x="1327" y="721" type="curve" smooth="yes"/>
			<point x="1348" y="752"/>
			<point x="1363" y="785"/>
			<point x="1372" y="820" type="curve" smooth="yes"/>
			<point x="1381" y="854"/>
			<point x="1386" y="889"/>
			<point x="1386" y="926" type="curve" smooth="yes"/>
			<point x="1386" y="1030"/>
			<point x="1339" y="1128"/>
			<point x="1256" y="1195" type="curve" smooth="yes"/>
			<point x="1201" y="1239"/>
			<point x="1125" y="1266"/>
			<point x="1038" y="1266" type="curve" smooth="yes"/>
			<point x="210" y="1263" type="line"/>
			<point x="210" y="1262" type="line"/>
		</contour>
		<contour>
			<point x="239" y="694" type="line"/>
			<point x="238" y="1126" type="line"/>
			<point x="1036" y="1126" type="line" smooth="yes"/>
			<point x="1103" y="1125"/>
			<point x="1154" y="1107"/>
			<point x="1190" y="1072" type="curve" smooth="yes"/>
			<point x="1226" y="1037"/>
			<point x="1245" y="987"/>
			<point x="1246" y="921" type="curve" smooth="yes"/>
			<point x="1249" y="853"/>
			<point x="1228" y="798"/>
			<point x="1196" y="765" type="curve" smooth="yes"/>
			<point x="1147" y="714"/>
			<point x="1075" y="694"/>
			<point x="997" y="694" type="curve" smooth="yes"/>
		</contour>
	</outline>
</glyph>
<glyph name="Q" format="2">
	<advance width="1487"/>
	<unicode hex="0051"/>
	<note>
		Q
	</note>
	<outline>
		<contour>
			<point x="89" y="125" type="line"/>
			<point x="89" y="-2" type="line"/>
			<point x="1389" y="-2" type="line"/>
			<point x="1389" y="124" type="line"/>
			<point x="1142" y="124" type="line"/>
			<point x="1187" y="157"/>
			<point x="1233" y="205"/>
			<point x="1282" y="268" type="curve" smooth="yes"/>
			<point x="1319" y="317"/>
			<point x="1348" y="371"/>
			<point x="1371" y="430" type="curve" smooth="yes"/>
			<point x="1397" y="499"/>
			<point x="1410" y="566"/>
			<point x="1410" y="633" type="curve" smooth="yes"/>
			<point x="1410" y="716"/>
			<point x="1382" y="837"/>
			<point x="1345" y="910" type="curve" smooth="yes"/>
			<point x="1306" y="986"/>
			<point x="1257" y="1051"/>
			<point x="1196" y="1104" type="curve" smooth="yes"/>
			<point x="1145" y="1149"/>
			<point x="1075" y="1189"/>
			<point x="985" y="1223" type="curve" smooth="yes"/>
			<point x="904" y="1254"/>
			<point x="820" y="1269"/>
			<point x="732" y="1269" type="curve" smooth="yes"/>
			<point x="663" y="1269"/>
			<point x="596" y="1257"/>
			<point x="530" y="1234" type="curve" smooth="yes"/>
			<point x="455" y="1208"/>
			<point x="396" y="1180"/>
			<point x="353" y="1150" type="curve" smooth="yes"/>
			<point x="292" y="1107"/>
			<point x="254" y="1076"/>
			<point x="206" y="1016" type="curve" smooth="yes"/>
			<point x="173" y="975"/>
			<point x="142" y="918"/>
			<point x="112" y="844" type="curve" smooth="yes"/>
			<point x="87" y="785"/>
			<point x="72" y="702"/>
			<point x="73" y="643" type="curve" smooth="yes"/>
			<point x="73" y="486"/>
			<point x="135" y="319"/>
			<point x="236" y="211" type="curve"/>
		</contour>
		<contour>
			<point x="207" y="643" type="curve"/>
			<point x="210" y="719"/>
			<point x="225" y="788"/>
			<point x="254" y="850" type="curve" smooth="yes"/>
			<point x="283" y="913"/>
			<point x="322" y="965"/>
			<point x="370" y="1008" type="curve" smooth="yes"/>
			<point x="417" y="1050"/>
			<point x="473" y="1083"/>
			<point x="537" y="1107" type="curve" smooth="yes"/>
			<point x="600" y="1131"/>
			<point x="668" y="1143"/>
			<point x="740" y="1143" type="curve" smooth="yes"/>
			<point x="812" y="1143"/>
			<point x="880" y="1131"/>
			<point x="945" y="1108" type="curve" smooth="yes"/>
			<point x="1009" y="1084"/>
			<point x="1065" y="1051"/>
			<point x="1113" y="1008" type="curve" smooth="yes"/>
			<point x="1157" y="970"/>
			<point x="1196" y="915"/>
			<point x="1229" y="843" type="curve" smooth="yes"/>
			<point x="1258" y="781"/>
			<point x="1274" y="714"/>
			<point x="1277" y="643" type="curve"/>
			<point x="1274" y="566"/>
			<point x="1258" y="496"/>
			<point x="1229" y="433" type="curve" smooth="yes"/>
			<point x="1194" y="360"/>
			<point x="1156" y="304"/>
			<point x="1113" y="266" type="curve" smooth="yes"/>
			<point x="1064" y="223"/>
			<point x="1008" y="189"/>
			<point x="945" y="164" type="curve" smooth="yes"/>
			<point x="875" y="136"/>
			<point x="806" y="123"/>
			<point x="737" y="126" type="curve" smooth="yes"/>
			<point x="641" y="130"/>
			<point x="556" y="152"/>
			<point x="481" y="191" type="curve"/>
			<point x="1100" y="535" type="line"/>
			<point x="1035" y="652" type="line"/>
			<point x="359" y="277" type="line"/>
			<point x="264" y="368"/>
			<point x="212" y="498"/>
		</contour>
	</outline>
</glyph>
<glyph name="R" format="2">
	<advance width="1497"/>
	<unicode hex="0052"/>
	<note>
		R
	</note>
	<outline>
		<contour>
			<point x="113" y="1262" type="line"/>
			<point x="116" y="0" type="line"/>
			<point x="250" y="0" type="line"/>
			<point x="249" y="561" type="line"/>
			<point x="538" y="561" type="line" smooth="yes"/>
			<point x="664" y="561"/>
			<point x="755" y="407"/>
			<point x="755" y="295" type="curve" smooth="yes"/>
			<point x="755" y="178"/>
			<point x="811" y="76"/>
			<point x="940" y="24" type="curve" smooth="yes"/>
			<point x="997" y="1"/>
			<point x="1048" y="0"/>
			<point x="1120" y="-2" type="curve" smooth="yes"/>
			<point x="1138" y="-2"/>
			<point x="1171" y="-2"/>
			<point x="1220" y="-1" type="curve" smooth="yes"/>
			<point x="1342" y="0" type="line"/>
			<point x="1343" y="128" type="line"/>
			<point x="1216" y="128"/>
			<point x="1134" y="121"/>
			<point x="1070" y="129" type="curve" smooth="yes"/>
			<point x="987" y="138"/>
			<point x="946" y="139"/>
			<point x="904" y="212" type="curve" smooth="yes"/>
			<point x="885" y="244"/>
			<point x="883" y="296"/>
			<point x="883" y="343" type="curve" smooth="yes"/>
			<point x="883" y="390"/>
			<point x="881" y="440"/>
			<point x="850" y="491" type="curve" smooth="yes"/>
			<point x="834" y="516"/>
			<point x="812" y="540"/>
			<point x="783" y="561" type="curve"/>
			<point x="1008" y="561" type="line" smooth="yes"/>
			<point x="1060" y="561"/>
			<point x="1108" y="568"/>
			<point x="1152" y="581" type="curve" smooth="yes"/>
			<point x="1195" y="595"/>
			<point x="1232" y="614"/>
			<point x="1262" y="638" type="curve" smooth="yes"/>
			<point x="1291" y="661"/>
			<point x="1316" y="689"/>
			<point x="1337" y="721" type="curve" smooth="yes"/>
			<point x="1358" y="752"/>
			<point x="1373" y="785"/>
			<point x="1382" y="820" type="curve" smooth="yes"/>
			<point x="1391" y="854"/>
			<point x="1396" y="889"/>
			<point x="1396" y="926" type="curve" smooth="yes"/>
			<point x="1396" y="1011"/>
			<point x="1362" y="1095"/>
			<point x="1305" y="1160" type="curve" smooth="yes"/>
			<point x="1248" y="1224"/>
			<point x="1155" y="1266"/>
			<point x="1048" y="1266" type="curve" smooth="yes"/>
			<point x="220" y="1263" type="line"/>
			<point x="220" y="1262" type="line"/>
		</contour>
		<contour>
			<point x="249" y="694" type="line"/>
			<point x="248" y="1126" type="line"/>
			<point x="1046" y="1126" type="line" smooth="yes"/>
			<point x="1113" y="1125"/>
			<point x="1164" y="1107"/>
			<point x="1200" y="1072" type="curve" smooth="yes"/>
			<point x="1236" y="1037"/>
			<point x="1255" y="987"/>
			<point x="1256" y="921" type="curve" smooth="yes"/>
			<point x="1257" y="887"/>
			<point x="1253" y="857"/>
			<point x="1244" y="830" type="curve" smooth="yes"/>
			<point x="1235" y="803"/>
			<point x="1222" y="782"/>
			<point x="1206" y="765" type="curve" smooth="yes"/>
			<point x="1190" y="748"/>
			<point x="1171" y="734"/>
			<point x="1149" y="723" type="curve" smooth="yes"/>
			<point x="1105" y="702"/>
			<point x="1059" y="694"/>
			<point x="1007" y="694" type="curve" smooth="yes"/>
		</contour>
	</outline>
</glyph>
<glyph name="S" format="2">
	<advance width="1264"/>
	<unicode hex="0053"/>
	<note>
		S
	</note>
	<outline>
		<contour>
			<point x="655" y="-2" type="curve" smooth="yes"/>
			<point x="687" y="-2"/>
			<point x="720" y="0"/>
			<point x="754" y="4" type="curve" smooth="yes"/>
			<point x="789" y="9"/>
			<point x="825" y="16"/>
			<point x="863" y="25" type="curve" smooth="yes"/>
			<point x="902" y="34"/>
			<point x="938" y="47"/>
			<point x="972" y="64" type="curve" smooth="yes"/>
			<point x="1006" y="81"/>
			<point x="1037" y="101"/>
			<point x="1066" y="124" type="curve" smooth="yes"/>
			<point x="1095" y="147"/>
			<point x="1118" y="175"/>
			<point x="1136" y="208" type="curve" smooth="yes"/>
			<point x="1155" y="241"/>
			<point x="1166" y="278"/>
			<point x="1170" y="318" type="curve" smooth="yes"/>
			<point x="1175" y="375"/>
			<point x="1171" y="426"/>
			<point x="1156" y="470" type="curve" smooth="yes"/>
			<point x="1142" y="514"/>
			<point x="1121" y="550"/>
			<point x="1092" y="578" type="curve" smooth="yes"/>
			<point x="1063" y="606"/>
			<point x="1026" y="629"/>
			<point x="981" y="646" type="curve" smooth="yes"/>
			<point x="936" y="664"/>
			<point x="887" y="677"/>
			<point x="835" y="684" type="curve" smooth="yes"/>
			<point x="784" y="691"/>
			<point x="725" y="695"/>
			<point x="660" y="696" type="curve" smooth="yes"/>
			<point x="507" y="697"/>
			<point x="394" y="717"/>
			<point x="322" y="756" type="curve" smooth="yes"/>
			<point x="250" y="795"/>
			<point x="223" y="855"/>
			<point x="240" y="936" type="curve" smooth="yes"/>
			<point x="245" y="964"/>
			<point x="257" y="989"/>
			<point x="275" y="1011" type="curve" smooth="yes"/>
			<point x="294" y="1033"/>
			<point x="316" y="1051"/>
			<point x="341" y="1065" type="curve" smooth="yes"/>
			<point x="418" y="1107"/>
			<point x="522" y="1123"/>
			<point x="641" y="1123" type="curve" smooth="yes"/>
			<point x="713" y="1123"/>
			<point x="771" y="1117"/>
			<point x="836" y="1097" type="curve" smooth="yes"/>
			<point x="869" y="1087"/>
			<point x="898" y="1074"/>
			<point x="922" y="1058" type="curve" smooth="yes"/>
			<point x="946" y="1042"/>
			<point x="967" y="1020"/>
			<point x="985" y="992" type="curve" smooth="yes"/>
			<point x="1003" y="964"/>
			<point x="1015" y="932"/>
			<point x="1021" y="895" type="curve"/>
			<point x="1163" y="895" type="line"/>
			<point x="1162" y="944"/>
			<point x="1152" y="988"/>
			<point x="1132" y="1029" type="curve" smooth="yes"/>
			<point x="1111" y="1070"/>
			<point x="1084" y="1104"/>
			<point x="1050" y="1132" type="curve" smooth="yes"/>
			<point x="1017" y="1161"/>
			<point x="978" y="1185"/>
			<point x="933" y="1204" type="curve" smooth="yes"/>
			<point x="844" y="1244"/>
			<point x="745" y="1262"/>
			<point x="645" y="1262" type="curve" smooth="yes"/>
			<point x="578" y="1262"/>
			<point x="513" y="1255"/>
			<point x="452" y="1242" type="curve" smooth="yes"/>
			<point x="391" y="1228"/>
			<point x="336" y="1208"/>
			<point x="286" y="1182" type="curve" smooth="yes"/>
			<point x="237" y="1156"/>
			<point x="195" y="1122"/>
			<point x="162" y="1081" type="curve" smooth="yes"/>
			<point x="129" y="1040"/>
			<point x="109" y="993"/>
			<point x="100" y="942" type="curve"/>
			<point x="99" y="940" type="line"/>
			<point x="97" y="930"/>
			<point x="95" y="920"/>
			<point x="94" y="909" type="curve" smooth="yes"/>
			<point x="93" y="898"/>
			<point x="93" y="879"/>
			<point x="95" y="852" type="curve" smooth="yes"/>
			<point x="98" y="825"/>
			<point x="104" y="801"/>
			<point x="114" y="778" type="curve" smooth="yes"/>
			<point x="124" y="755"/>
			<point x="142" y="730"/>
			<point x="168" y="702" type="curve" smooth="yes"/>
			<point x="194" y="675"/>
			<point x="227" y="651"/>
			<point x="266" y="632" type="curve" smooth="yes"/>
			<point x="305" y="613"/>
			<point x="359" y="597"/>
			<point x="427" y="584" type="curve" smooth="yes"/>
			<point x="496" y="571"/>
			<point x="574" y="565"/>
			<point x="662" y="565" type="curve" smooth="yes"/>
			<point x="702" y="565"/>
			<point x="738" y="564"/>
			<point x="771" y="561" type="curve" smooth="yes"/>
			<point x="804" y="558"/>
			<point x="840" y="552"/>
			<point x="877" y="542" type="curve" smooth="yes"/>
			<point x="915" y="533"/>
			<point x="946" y="520"/>
			<point x="970" y="503" type="curve" smooth="yes"/>
			<point x="994" y="486"/>
			<point x="1012" y="463"/>
			<point x="1024" y="432" type="curve" smooth="yes"/>
			<point x="1036" y="402"/>
			<point x="1038" y="367"/>
			<point x="1030" y="326" type="curve" smooth="yes"/>
			<point x="1021" y="287"/>
			<point x="998" y="252"/>
			<point x="960" y="223" type="curve" smooth="yes"/>
			<point x="923" y="194"/>
			<point x="878" y="172"/>
			<point x="825" y="158" type="curve" smooth="yes"/>
			<point x="773" y="144"/>
			<point x="717" y="137"/>
			<point x="657" y="136" type="curve" smooth="yes"/>
			<point x="609" y="135"/>
			<point x="563" y="139"/>
			<point x="519" y="146" type="curve" smooth="yes"/>
			<point x="476" y="153"/>
			<point x="434" y="165"/>
			<point x="394" y="181" type="curve" smooth="yes"/>
			<point x="354" y="197"/>
			<point x="321" y="220"/>
			<point x="294" y="250" type="curve" smooth="yes"/>
			<point x="268" y="279"/>
			<point x="252" y="314"/>
			<point x="246" y="354" type="curve"/>
			<point x="97" y="354" type="line"/>
			<point x="98" y="334" type="line" smooth="yes"/>
			<point x="99" y="327"/>
			<point x="101" y="315"/>
			<point x="105" y="298" type="curve" smooth="yes"/>
			<point x="109" y="281"/>
			<point x="114" y="265"/>
			<point x="121" y="250" type="curve" smooth="yes"/>
			<point x="128" y="235"/>
			<point x="138" y="217"/>
			<point x="151" y="196" type="curve" smooth="yes"/>
			<point x="165" y="175"/>
			<point x="181" y="155"/>
			<point x="199" y="138" type="curve" smooth="yes"/>
			<point x="217" y="121"/>
			<point x="240" y="103"/>
			<point x="269" y="86" type="curve" smooth="yes"/>
			<point x="298" y="68"/>
			<point x="330" y="53"/>
			<point x="365" y="40" type="curve" smooth="yes"/>
			<point x="400" y="28"/>
			<point x="443" y="18"/>
			<point x="493" y="10" type="curve" smooth="yes"/>
			<point x="543" y="2"/>
			<point x="597" y="-2"/>
		</contour>
	</outline>
</glyph>
<glyph name="T" format="2">
	<advance width="1554"/>
	<unicode hex="0054"/>
	<note>
		T
	</note>
	<outline>
		<contour>
			<point x="670" y="1130" type="line"/>
			<point x="667" y="0" type="line"/>
			<point x="801" y="0" type="line"/>
			<point x="804" y="1130" type="line"/>
			<point x="1382" y="1130" type="line"/>
			<point x="1382" y="1263" type="line"/>
			<point x="108" y="1263" type="line"/>
			<point x="108" y="1130" type="line"/>
		</contour>
	</outline>
</glyph>
<glyph name="U" format="2">
	<advance width="1460"/>
	<unicode hex="0055"/>
	<note>
		U
	</note>
	<outline>
		<contour>
			<point x="743" y="-9" type="curve" smooth="yes"/>
			<point x="916" y="-9"/>
			<point x="1063" y="56"/>
			<point x="1184" y="187" type="curve" smooth="yes"/>
			<point x="1305" y="317"/>
			<point x="1366" y="474"/>
			<point x="1367" y="657" type="curve" smooth="yes"/>
			<point x="1367" y="1262" type="line"/>
			<point x="1233" y="1262" type="line"/>
			<point x="1233" y="676" type="line" smooth="yes"/>
			<point x="1233" y="595"/>
			<point x="1220" y="522"/>
			<point x="1194" y="457" type="curve" smooth="yes"/>
			<point x="1168" y="392"/>
			<point x="1133" y="336"/>
			<point x="1089" y="287" type="curve" smooth="yes"/>
			<point x="1045" y="238"/>
			<point x="993" y="199"/>
			<point x="933" y="170" type="curve" smooth="yes"/>
			<point x="879" y="144"/>
			<point x="816" y="131"/>
			<point x="743" y="131" type="curve" smooth="yes"/>
			<point x="657" y="131"/>
			<point x="585" y="145"/>
			<point x="527" y="173" type="curve" smooth="yes"/>
			<point x="467" y="201"/>
			<point x="415" y="240"/>
			<point x="371" y="289" type="curve" smooth="yes"/>
			<point x="327" y="338"/>
			<point x="292" y="395"/>
			<point x="266" y="460" type="curve" smooth="yes"/>
			<point x="239" y="527"/>
			<point x="226" y="594"/>
			<point x="227" y="661" type="curve" smooth="yes"/>
			<point x="227" y="1262" type="line"/>
			<point x="93" y="1262" type="line"/>
			<point x="93" y="661" type="line" smooth="yes"/>
			<point x="94" y="474"/>
			<point x="155" y="317"/>
			<point x="276" y="190" type="curve" smooth="yes"/>
			<point x="337" y="125"/>
			<point x="408" y="76"/>
			<point x="489" y="42" type="curve" smooth="yes"/>
			<point x="570" y="8"/>
			<point x="655" y="-9"/>
		</contour>
	</outline>
</glyph>
<glyph name="V" format="2">
	<advance width="1434"/>
	<unicode hex="0056"/>
	<note>
		V
	</note>
	<outline>
		<contour>
			<point x="93" y="1262" type="line"/>
			<point x="635" y="0" type="line"/>
			<point x="793" y="0" type="line"/>
			<point x="1346" y="1262" type="line"/>
			<point x="1186" y="1262" type="line"/>
			<point x="715" y="183" type="line"/>
			<point x="252" y="1262" type="line"/>
		</contour>
	</outline>
</glyph>
<glyph name="W" format="2">
	<advance width="2029"/>
	<unicode hex="0057"/>
	<note>
		W
	</note>
	<outline>
		<contour>
			<point x="23" y="1176" type="line"/>
			<point x="1086" y="-2" type="line"/>
			<point x="1088" y="0" type="line"/>
			<point x="1220" y="0" type="line"/>
			<point x="1220" y="597" type="line"/>
			<point x="1772" y="-1" type="line"/>
			<point x="1773" y="0" type="line"/>
			<point x="1906" y="0" type="line"/>
			<point x="1906" y="1262" type="line"/>
			<point x="1772" y="1262" type="line"/>
			<point x="1772" y="201" type="line"/>
			<point x="1220" y="795" type="line"/>
			<point x="1220" y="1263" type="line"/>
			<point x="1086" y="1263" type="line"/>
			<point x="1086" y="940" type="line"/>
			<point x="786" y="1263" type="line"/>
			<point x="605" y="1263" type="line"/>
			<point x="1086" y="742" type="line"/>
			<point x="1086" y="198" type="line"/>
			<point x="123" y="1265" type="line"/>
		</contour>
	</outline>
</glyph>
<glyph name="X" format="2">
	<advance width="1431"/>
	<unicode hex="0058"/>
	<note>
		X
	</note>
	<outline>
		<contour>
			<point x="622" y="637" type="line"/>
			<point x="83" y="0" type="line"/>
			<point x="266" y="0" type="line"/>
			<point x="713" y="529" type="line"/>
			<point x="1157" y="0" type="line"/>
			<point x="1348" y="0" type="line"/>
			<point x="807" y="641" type="line"/>
			<point x="1332" y="1262" type="line"/>
			<point x="1150" y="1262" type="line"/>
			<point x="716" y="749" type="line"/>
			<point x="284" y="1262" type="line"/>
			<point x="96" y="1262" type="line"/>
		</contour>
	</outline>
</glyph>
<glyph name="Y" format="2">
	<advance width="1232"/>
	<unicode hex="0059"/>
	<note>
		Y
	</note>
	<outline>
		<contour>
			<point x="560" y="651" type="line"/>
			<point x="563" y="0" type="line"/>
			<point x="697" y="0" type="line"/>
			<point x="694" y="652" type="line"/>
			<point x="1139" y="1260" type="line"/>
			<point x="978" y="1260" type="line"/>
			<point x="628" y="793" type="line"/>
			<point x="267" y="1260" type="line"/>
			<point x="93" y="1260" type="line"/>
		</contour>
	</outline>
</glyph>
<glyph name="Z" format="2">
	<advance width="1528"/>
	<unicode hex="005A"/>
	<note>
		Z
	</note>
	<outline>
		<contour>
			<point x="113" y="134" type="line"/>
			<point x="113" y="0" type="line"/>
			<point x="1417" y="0" type="line"/>
			<point x="1417" y="134" type="line"/>
			<point x="313" y="134" type="line"/>
			<point x="1415" y="1129" type="line"/>
			<point x="1415" y="1263" type="line"/>
			<point x="111" y="1263" type="line"/>
			<point x="111" y="1129" type="line"/>
			<point x="1215" y="1129" type="line"/>
		</contour>
	</outline>
</glyph>
<glyph name="bracketleft" format="2">
	<advance width="1791"/>
	<unicode hex="005B"/>
	<note>
		bracketleft
	</note>
	<outline>
		<contour>
			<point x="309" y="-220" type="line"/>
			<point x="309" y="-354" type="line"/>
			<point x="1583" y="-354" type="line"/>
			<point x="1583" y="-220" type="line"/>
			<point x="443" y="-220" type="line"/>
			<point x="442" y="1507" type="line"/>
			<point x="1583" y="1507" type="line"/>
			<point x="1583" y="1641" type="line"/>
			<point x="309" y="1641" type="line"/>
			<point x="309" y="1640" type="line"/>
			<point x="308" y="1640" type="line"/>
		</contour>
	</outline>
</glyph>
<glyph name="backslash" format="2">
	<advance width="1001"/>
	<unicode hex="005C"/>
	<note>
		backslash
	</note>
	<outline>
		<contour>
			<point x="208" y="1470" type="line"/>
			<point x="655" y="-357" type="line"/>
			<point x="793" y="-357" type="line"/>
			<point x="346" y="1470" type="line"/>
		</contour>
	</outline>
</glyph>
<glyph name="bracketright" format="2">
	<advance width="1691"/>
	<unicode hex="005D"/>
	<note>
		bracketright
	</note>
	<outline>
		<contour>
			<point x="208" y="-220" type="line"/>
			<point x="208" y="-354" type="line"/>
			<point x="1482" y="-354" type="line"/>
			<point x="1482" y="-220" type="line"/>
			<point x="1483" y="1640" type="line"/>
			<point x="1482" y="1640" type="line"/>
			<point x="1482" y="1641" type="line"/>
			<point x="208" y="1641" type="line"/>
			<point x="208" y="1507" type="line"/>
			<point x="1349" y="1507" type="line"/>
			<point x="1348" y="-220" type="line"/>
		</contour>
	</outline>
</glyph>
<glyph name="asciicircum" format="2">
	<advance width="884"/>
	<unicode hex="005E"/>
	<note>
		asciicircum
	</note>
	<outline>
		<contour>
			<point x="337" y="1554" type="line"/>
			<point x="163" y="1200" type="line"/>
			<point x="311" y="1200" type="line"/>
			<point x="410" y="1404" type="line"/>
			<point x="508" y="1200" type="line"/>
			<point x="656" y="1200" type="line"/>
			<point x="482" y="1554" type="line"/>
		</contour>
	</outline>
</glyph>
<glyph name="underscore" format="2">
	<advance width="1590"/>
	<unicode hex="005F"/>
	<note>
		underscore
	</note>
	<outline>
		<contour>
			<point x="158" y="-220" type="line"/>
			<point x="158" y="-354" type="line"/>
			<point x="1432" y="-354" type="line"/>
			<point x="1432" y="-220" type="line"/>
		</contour>
	</outline>
</glyph>
<glyph name="grave" format="2">
	<advance width="982"/>
	<unicode hex="0060"/>
	<note>
		grave
	</note>
	<outline>
		<contour>
			<point x="201" y="1325" type="line"/>
			<point x="783" y="1112" type="line"/>
			<point x="825" y="1229" type="line"/>
			<point x="249" y="1443" type="line"/>
		</contour>
	</outline>
</glyph>
<glyph name="b" format="2">
	<advance width="1131"/>
	<unicode hex="0062"/>
	<note>
		b
	</note>
	<outline>
		<contour>
			<point x="606" y="-9" type="curve" smooth="yes"/>
			<point x="685" y="-9"/>
			<point x="758" y="16"/>
			<point x="824" y="66" type="curve" smooth="yes"/>
			<point x="889" y="117"/>
			<point x="941" y="184"/>
			<point x="978" y="268" type="curve" smooth="yes"/>
			<point x="1015" y="353"/>
			<point x="1033" y="444"/>
			<point x="1033" y="541" type="curve" smooth="yes"/>
			<point x="1033" y="638"/>
			<point x="1015" y="729"/>
			<point x="978" y="812" type="curve" smooth="yes"/>
			<point x="941" y="896"/>
			<point x="889" y="963"/>
			<point x="824" y="1013" type="curve" smooth="yes"/>
			<point x="758" y="1063"/>
			<point x="685" y="1088"/>
			<point x="606" y="1088" type="curve" smooth="yes"/>
			<point x="545" y="1088"/>
			<point x="487" y="1073"/>
			<point x="431" y="1044" type="curve" smooth="yes"/>
			<point x="375" y="1014"/>
			<point x="326" y="973"/>
			<point x="283" y="921" type="curve"/>
			<point x="283" y="1470" type="line"/>
			<point x="148" y="1470" type="line"/>
			<point x="148" y="0" type="line"/>
			<point x="283" y="0" type="line"/>
			<point x="283" y="159" type="line"/>
			<point x="326" y="107"/>
			<point x="375" y="66"/>
			<point x="431" y="36" type="curve" smooth="yes"/>
			<point x="487" y="6"/>
			<point x="545" y="-9"/>
		</contour>
		<contour>
			<point x="277" y="519" type="curve" smooth="yes"/>
			<point x="277" y="564" type="line" smooth="yes"/>
			<point x="280" y="633"/>
			<point x="297" y="697"/>
			<point x="328" y="758" type="curve" smooth="yes"/>
			<point x="359" y="818"/>
			<point x="400" y="866"/>
			<point x="449" y="901" type="curve" smooth="yes"/>
			<point x="498" y="936"/>
			<point x="550" y="954"/>
			<point x="603" y="954" type="curve" smooth="yes"/>
			<point x="659" y="954"/>
			<point x="710" y="935"/>
			<point x="756" y="896" type="curve" smooth="yes"/>
			<point x="803" y="858"/>
			<point x="839" y="807"/>
			<point x="865" y="744" type="curve" smooth="yes"/>
			<point x="891" y="681"/>
			<point x="904" y="613"/>
			<point x="904" y="540" type="curve" smooth="yes"/>
			<point x="904" y="467"/>
			<point x="891" y="399"/>
			<point x="866" y="336" type="curve" smooth="yes"/>
			<point x="840" y="273"/>
			<point x="804" y="222"/>
			<point x="758" y="184" type="curve" smooth="yes"/>
			<point x="712" y="145"/>
			<point x="661" y="126"/>
			<point x="605" y="126" type="curve" smooth="yes"/>
			<point x="552" y="126"/>
			<point x="500" y="144"/>
			<point x="450" y="180" type="curve" smooth="yes"/>
			<point x="401" y="215"/>
			<point x="360" y="263"/>
			<point x="329" y="324" type="curve" smooth="yes"/>
			<point x="298" y="385"/>
			<point x="280" y="450"/>
		</contour>
	</outline>
</glyph>
<glyph name="c" format="2">
	<advance width="1061"/>
	<unicode hex="0063"/>
	<note>
		c
	</note>
	<outline>
		<contour>
			<point x="543" y="-9" type="curve" smooth="yes"/>
			<point x="638" y="-9"/>
			<point x="724" y="27"/>
			<point x="800" y="98" type="curve" smooth="yes"/>
			<point x="877" y="169"/>
			<point x="930" y="260"/>
			<point x="960" y="370" type="curve"/>
			<point x="825" y="370" type="line"/>
			<point x="800" y="298"/>
			<point x="761" y="239"/>
			<point x="710" y="194" type="curve" smooth="yes"/>
			<point x="659" y="149"/>
			<point x="603" y="126"/>
			<point x="542" y="126" type="curve" smooth="yes"/>
			<point x="501" y="126"/>
			<point x="461" y="137"/>
			<point x="422" y="160" type="curve" smooth="yes"/>
			<point x="384" y="183"/>
			<point x="351" y="213"/>
			<point x="323" y="250" type="curve" smooth="yes"/>
			<point x="295" y="288"/>
			<point x="273" y="332"/>
			<point x="256" y="383" type="curve" smooth="yes"/>
			<point x="239" y="434"/>
			<point x="231" y="486"/>
			<point x="231" y="541" type="curve" smooth="yes"/>
			<point x="231" y="614"/>
			<point x="245" y="682"/>
			<point x="272" y="745" type="curve" smooth="yes"/>
			<point x="300" y="808"/>
			<point x="338" y="859"/>
			<point x="386" y="897" type="curve" smooth="yes"/>
			<point x="433" y="935"/>
			<point x="485" y="954"/>
			<point x="540" y="954" type="curve" smooth="yes"/>
			<point x="583" y="954"/>
			<point x="623" y="943"/>
			<point x="662" y="920" type="curve" smooth="yes"/>
			<point x="701" y="897"/>
			<point x="734" y="866"/>
			<point x="763" y="827" type="curve" smooth="yes"/>
			<point x="792" y="788"/>
			<point x="814" y="743"/>
			<point x="830" y="693" type="curve"/>
			<point x="963" y="693" type="line"/>
			<point x="936" y="807"/>
			<point x="884" y="901"/>
			<point x="806" y="976" type="curve" smooth="yes"/>
			<point x="729" y="1051"/>
			<point x="641" y="1088"/>
			<point x="543" y="1088" type="curve" smooth="yes"/>
			<point x="464" y="1088"/>
			<point x="390" y="1063"/>
			<point x="321" y="1014" type="curve" smooth="yes"/>
			<point x="252" y="964"/>
			<point x="198" y="897"/>
			<point x="158" y="812" type="curve" smooth="yes"/>
			<point x="118" y="728"/>
			<point x="98" y="638"/>
			<point x="98" y="541" type="curve" smooth="yes"/>
			<point x="98" y="444"/>
			<point x="118" y="354"/>
			<point x="158" y="269" type="curve" smooth="yes"/>
			<point x="198" y="184"/>
			<point x="252" y="117"/>
			<point x="321" y="66" type="curve" smooth="yes"/>
			<point x="390" y="16"/>
			<point x="464" y="-9"/>
		</contour>
	</outline>
</glyph>
<glyph name="d" format="2">
	<advance width="1101"/>
	<unicode hex="0064"/>
	<note>
		d
	</note>
	<outline>
		<contour>
			<point x="537" y="-9" type="curve" smooth="yes"/>
			<point x="596" y="-9"/>
			<point x="652" y="5"/>
			<point x="706" y="34" type="curve" smooth="yes"/>
			<point x="759" y="62"/>
			<point x="807" y="101"/>
			<point x="848" y="152" type="curve"/>
			<point x="848" y="0" type="line"/>
			<point x="983" y="0" type="line"/>
			<point x="983" y="1470" type="line"/>
			<point x="848" y="1470" type="line"/>
			<point x="848" y="928" type="line"/>
			<point x="821" y="961"/>
			<point x="791" y="990"/>
			<point x="758" y="1014" type="curve" smooth="yes"/>
			<point x="726" y="1037"/>
			<point x="691" y="1055"/>
			<point x="653" y="1068" type="curve" smooth="yes"/>
			<point x="615" y="1081"/>
			<point x="576" y="1088"/>
			<point x="537" y="1088" type="curve" smooth="yes"/>
			<point x="458" y="1088"/>
			<point x="384" y="1063"/>
			<point x="316" y="1013" type="curve" smooth="yes"/>
			<point x="249" y="963"/>
			<point x="195" y="896"/>
			<point x="156" y="812" type="curve" smooth="yes"/>
			<point x="117" y="728"/>
			<point x="98" y="638"/>
			<point x="98" y="541" type="curve" smooth="yes"/>
			<point x="98" y="444"/>
			<point x="117" y="353"/>
			<point x="156" y="268" type="curve" smooth="yes"/>
			<point x="195" y="184"/>
			<point x="249" y="117"/>
			<point x="316" y="66" type="curve" smooth="yes"/>
			<point x="384" y="16"/>
			<point x="458" y="-9"/>
		</contour>
		<contour>
			<point x="227" y="540" type="curve" smooth="yes"/>
			<point x="227" y="613"/>
			<point x="241" y="681"/>
			<point x="269" y="744" type="curve" smooth="yes"/>
			<point x="297" y="808"/>
			<point x="335" y="859"/>
			<point x="384" y="897" type="curve" smooth="yes"/>
			<point x="432" y="935"/>
			<point x="484" y="954"/>
			<point x="540" y="954" type="curve" smooth="yes"/>
			<point x="593" y="954"/>
			<point x="642" y="937"/>
			<point x="688" y="902" type="curve" smooth="yes"/>
			<point x="734" y="867"/>
			<point x="771" y="821"/>
			<point x="800" y="763" type="curve" smooth="yes"/>
			<point x="828" y="705"/>
			<point x="844" y="642"/>
			<point x="848" y="573" type="curve" smooth="yes"/>
			<point x="848" y="509" type="line" smooth="yes"/>
			<point x="844" y="440"/>
			<point x="828" y="377"/>
			<point x="799" y="318" type="curve" smooth="yes"/>
			<point x="770" y="259"/>
			<point x="733" y="213"/>
			<point x="686" y="178" type="curve" smooth="yes"/>
			<point x="640" y="143"/>
			<point x="591" y="126"/>
			<point x="538" y="126" type="curve" smooth="yes"/>
			<point x="453" y="126"/>
			<point x="380" y="167"/>
			<point x="319" y="250" type="curve" smooth="yes"/>
			<point x="258" y="332"/>
			<point x="227" y="429"/>
		</contour>
	</outline>
</glyph>
<glyph name="f" format="2">
	<advance width="800"/>
	<unicode hex="0066"/>
	<note>
		f
	</note>
	<outline>
		<contour>
			<point x="256" y="932" type="line"/>
			<point x="256" y="0" type="line"/>
			<point x="391" y="0" type="line"/>
			<point x="391" y="932" type="line"/>
			<point x="644" y="932" type="line"/>
			<point x="644" y="1065" type="line"/>
			<point x="391" y="1065" type="line"/>
			<point x="391" y="1337" type="line"/>
			<point x="762" y="1337" type="line"/>
			<point x="762" y="1470" type="line"/>
			<point x="256" y="1470" type="line"/>
			<point x="256" y="1065" type="line"/>
			<point x="98" y="1065" type="line"/>
			<point x="98" y="932" type="line"/>
		</contour>
	</outline>
</glyph>
<glyph name="g" format="2">
	<advance width="1122"/>
	<unicode hex="0067"/>
	<note>
		g
	</note>
	<outline>
		<contour>
			<point x="275" y="-225" type="line"/>
			<point x="275" y="-358" type="line"/>
			<point x="984" y="-358" type="line"/>
			<point x="984" y="1079" type="line"/>
			<point x="849" y="1079" type="line"/>
			<point x="849" y="928" type="line"/>
			<point x="829" y="953"/>
			<point x="807" y="975"/>
			<point x="784" y="995" type="curve" smooth="yes"/>
			<point x="760" y="1015"/>
			<point x="735" y="1032"/>
			<point x="708" y="1046" type="curve" smooth="yes"/>
			<point x="682" y="1060"/>
			<point x="655" y="1071"/>
			<point x="626" y="1078" type="curve" smooth="yes"/>
			<point x="597" y="1085"/>
			<point x="567" y="1089"/>
			<point x="537" y="1089" type="curve" smooth="yes"/>
			<point x="458" y="1089"/>
			<point x="384" y="1064"/>
			<point x="316" y="1014" type="curve" smooth="yes"/>
			<point x="249" y="964"/>
			<point x="195" y="897"/>
			<point x="156" y="813" type="curve" smooth="yes"/>
			<point x="117" y="729"/>
			<point x="98" y="639"/>
			<point x="98" y="542" type="curve" smooth="yes"/>
			<point x="98" y="445"/>
			<point x="117" y="354"/>
			<point x="156" y="270" type="curve" smooth="yes"/>
			<point x="195" y="185"/>
			<point x="249" y="118"/>
			<point x="316" y="68" type="curve" smooth="yes"/>
			<point x="384" y="17"/>
			<point x="458" y="-8"/>
			<point x="537" y="-8" type="curve" smooth="yes"/>
			<point x="596" y="-8"/>
			<point x="653" y="6"/>
			<point x="706" y="35" type="curve" smooth="yes"/>
			<point x="760" y="64"/>
			<point x="808" y="103"/>
			<point x="849" y="154" type="curve"/>
			<point x="849" y="-225" type="line"/>
		</contour>
		<contour>
			<point x="227" y="541" type="curve" smooth="yes"/>
			<point x="227" y="614"/>
			<point x="241" y="682"/>
			<point x="269" y="745" type="curve" smooth="yes"/>
			<point x="297" y="808"/>
			<point x="335" y="859"/>
			<point x="384" y="897" type="curve" smooth="yes"/>
			<point x="432" y="935"/>
			<point x="484" y="954"/>
			<point x="540" y="954" type="curve" smooth="yes"/>
			<point x="595" y="954"/>
			<point x="647" y="935"/>
			<point x="694" y="898" type="curve" smooth="yes"/>
			<point x="742" y="860"/>
			<point x="780" y="809"/>
			<point x="808" y="746" type="curve" smooth="yes"/>
			<point x="835" y="683"/>
			<point x="849" y="615"/>
			<point x="849" y="542" type="curve" smooth="yes"/>
			<point x="849" y="469"/>
			<point x="835" y="401"/>
			<point x="807" y="338" type="curve" smooth="yes"/>
			<point x="779" y="274"/>
			<point x="741" y="223"/>
			<point x="693" y="185" type="curve" smooth="yes"/>
			<point x="645" y="147"/>
			<point x="593" y="128"/>
			<point x="538" y="128" type="curve" smooth="yes"/>
			<point x="453" y="128"/>
			<point x="380" y="169"/>
			<point x="319" y="251" type="curve" smooth="yes"/>
			<point x="258" y="333"/>
			<point x="227" y="430"/>
		</contour>
	</outline>
</glyph>
<glyph name="h" format="2">
	<advance width="1182"/>
	<unicode hex="0068"/>
	<note>
		h
	</note>
	<outline>
		<contour>
			<point x="148" y="1470" type="line"/>
			<point x="148" y="0" type="line"/>
			<point x="282" y="0" type="line"/>
			<point x="282" y="538" type="line" smooth="yes"/>
			<point x="282" y="581"/>
			<point x="287" y="624"/>
			<point x="298" y="666" type="curve" smooth="yes"/>
			<point x="309" y="707"/>
			<point x="324" y="745"/>
			<point x="343" y="780" type="curve" smooth="yes"/>
			<point x="362" y="814"/>
			<point x="385" y="844"/>
			<point x="410" y="870" type="curve" smooth="yes"/>
			<point x="435" y="896"/>
			<point x="464" y="916"/>
			<point x="496" y="930" type="curve" smooth="yes"/>
			<point x="527" y="945"/>
			<point x="560" y="952"/>
			<point x="593" y="952" type="curve" smooth="yes"/>
			<point x="692" y="952"/>
			<point x="769" y="916"/>
			<point x="822" y="844" type="curve" smooth="yes"/>
			<point x="875" y="772"/>
			<point x="902" y="670"/>
			<point x="903" y="539" type="curve" smooth="yes"/>
			<point x="903" y="0" type="line"/>
			<point x="1034" y="0" type="line"/>
			<point x="1034" y="566" type="line"/>
			<point x="1029" y="727"/>
			<point x="987" y="854"/>
			<point x="909" y="948" type="curve" smooth="yes"/>
			<point x="831" y="1041"/>
			<point x="726" y="1088"/>
			<point x="594" y="1088" type="curve" smooth="yes"/>
			<point x="535" y="1088"/>
			<point x="478" y="1074"/>
			<point x="424" y="1045" type="curve" smooth="yes"/>
			<point x="371" y="1016"/>
			<point x="323" y="977"/>
			<point x="282" y="926" type="curve"/>
			<point x="282" y="1470" type="line"/>
		</contour>
	</outline>
</glyph>
<glyph name="i" format="2">
	<advance width="521"/>
	<unicode hex="0069"/>
	<note>
		i
	</note>
	<outline>
		<contour>
			<point x="193" y="1065" type="line"/>
			<point x="193" y="0" type="line"/>
			<point x="327" y="0" type="line"/>
			<point x="327" y="1065" type="line"/>
		</contour>
		<contour>
			<point x="194" y="1470" type="line"/>
			<point x="194" y="1296" type="line"/>
			<point x="328" y="1296" type="line"/>
			<point x="328" y="1470" type="line"/>
		</contour>
	</outline>
</glyph>
<glyph name="j" format="2">
	<advance width="527"/>
	<unicode hex="006A"/>
	<note>
		j
	</note>
	<outline>
		<contour>
			<point x="-132" y="-219" type="line"/>
			<point x="-132" y="-354" type="line"/>
			<point x="348" y="-354" type="line"/>
			<point x="348" y="1065" type="line"/>
			<point x="214" y="1065" type="line"/>
			<point x="214" y="-219" type="line"/>
		</contour>
		<contour>
			<point x="215" y="1470" type="line"/>
			<point x="215" y="1296" type="line"/>
			<point x="349" y="1296" type="line"/>
			<point x="349" y="1470" type="line"/>
		</contour>
	</outline>
</glyph>
<glyph name="k" format="2">
	<advance width="1095"/>
	<unicode hex="006B"/>
	<note>
		k
	</note>
	<outline>
		<contour>
			<point x="148" y="1470" type="line"/>
			<point x="148" y="0" type="line"/>
			<point x="282" y="0" type="line"/>
			<point x="282" y="305" type="line"/>
			<point x="536" y="581" type="line"/>
			<point x="861" y="0" type="line"/>
			<point x="1027" y="0" type="line"/>
			<point x="636" y="690" type="line"/>
			<point x="982" y="1065" type="line"/>
			<point x="807" y="1065" type="line"/>
			<point x="282" y="503" type="line"/>
			<point x="282" y="1470" type="line"/>
		</contour>
	</outline>
</glyph>
<glyph name="l" format="2">
	<advance width="500"/>
	<unicode hex="006C"/>
	<note>
		l
	</note>
	<outline>
		<contour>
			<point x="183" y="1470" type="line"/>
			<point x="183" y="0" type="line"/>
			<point x="317" y="0" type="line"/>
			<point x="317" y="1470" type="line"/>
		</contour>
	</outline>
</glyph>
<glyph name="m" format="2">
	<advance width="1546"/>
	<unicode hex="006D"/>
	<note>
		m
	</note>
	<outline>
		<contour>
			<point x="148" y="1065" type="line"/>
			<point x="148" y="0" type="line"/>
			<point x="282" y="0" type="line"/>
			<point x="282" y="773" type="line"/>
			<point x="286" y="827"/>
			<point x="310" y="872"/>
			<point x="353" y="908" type="curve" smooth="yes"/>
			<point x="396" y="945"/>
			<point x="445" y="963"/>
			<point x="500" y="963" type="curve" smooth="yes"/>
			<point x="534" y="963"/>
			<point x="567" y="956"/>
			<point x="598" y="941" type="curve" smooth="yes"/>
			<point x="629" y="926"/>
			<point x="654" y="905"/>
			<point x="674" y="877" type="curve" smooth="yes"/>
			<point x="694" y="849"/>
			<point x="704" y="818"/>
			<point x="705" y="783" type="curve" smooth="yes"/>
			<point x="705" y="0" type="line"/>
			<point x="839" y="0" type="line"/>
			<point x="839" y="770" type="line"/>
			<point x="843" y="824"/>
			<point x="867" y="870"/>
			<point x="910" y="907" type="curve" smooth="yes"/>
			<point x="953" y="944"/>
			<point x="1002" y="963"/>
			<point x="1057" y="963" type="curve" smooth="yes"/>
			<point x="1110" y="963"/>
			<point x="1157" y="946"/>
			<point x="1199" y="912" type="curve" smooth="yes"/>
			<point x="1241" y="877"/>
			<point x="1262" y="834"/>
			<point x="1263" y="783" type="curve" smooth="yes"/>
			<point x="1263" y="0" type="line"/>
			<point x="1397" y="0" type="line"/>
			<point x="1397" y="778" type="line" smooth="yes"/>
			<point x="1397" y="834"/>
			<point x="1382" y="886"/>
			<point x="1352" y="934" type="curve" smooth="yes"/>
			<point x="1323" y="982"/>
			<point x="1282" y="1020"/>
			<point x="1230" y="1048" type="curve" smooth="yes"/>
			<point x="1177" y="1076"/>
			<point x="1120" y="1090"/>
			<point x="1057" y="1090" type="curve" smooth="yes"/>
			<point x="1001" y="1090"/>
			<point x="949" y="1078"/>
			<point x="902" y="1054" type="curve" smooth="yes"/>
			<point x="855" y="1029"/>
			<point x="815" y="996"/>
			<point x="782" y="953" type="curve"/>
			<point x="751" y="995"/>
			<point x="711" y="1028"/>
			<point x="662" y="1053" type="curve" smooth="yes"/>
			<point x="613" y="1078"/>
			<point x="559" y="1090"/>
			<point x="500" y="1090" type="curve" smooth="yes"/>
			<point x="417" y="1089"/>
			<point x="345" y="1064"/>
			<point x="282" y="1013" type="curve"/>
			<point x="282" y="1065" type="line"/>
		</contour>
	</outline>
</glyph>
<glyph name="n" format="2">
	<advance width="1180"/>
	<unicode hex="006E"/>
	<note>
		n
	</note>
	<outline>
		<contour>
			<point x="148" y="1065" type="line"/>
			<point x="148" y="0" type="line"/>
			<point x="282" y="0" type="line"/>
			<point x="282" y="561" type="line"/>
			<point x="285" y="622"/>
			<point x="296" y="678"/>
			<point x="315" y="728" type="curve" smooth="yes"/>
			<point x="334" y="778"/>
			<point x="357" y="819"/>
			<point x="386" y="852" type="curve" smooth="yes"/>
			<point x="415" y="885"/>
			<point x="449" y="910"/>
			<point x="486" y="928" type="curve" smooth="yes"/>
			<point x="523" y="945"/>
			<point x="561" y="954"/>
			<point x="602" y="954" type="curve" smooth="yes"/>
			<point x="658" y="954"/>
			<point x="706" y="944"/>
			<point x="746" y="924" type="curve" smooth="yes"/>
			<point x="786" y="904"/>
			<point x="817" y="875"/>
			<point x="839" y="837" type="curve" smooth="yes"/>
			<point x="861" y="799"/>
			<point x="877" y="756"/>
			<point x="887" y="708" type="curve" smooth="yes"/>
			<point x="897" y="659"/>
			<point x="902" y="604"/>
			<point x="902" y="541" type="curve" smooth="yes"/>
			<point x="902" y="0" type="line"/>
			<point x="1032" y="0" type="line"/>
			<point x="1032" y="580" type="line" smooth="yes"/>
			<point x="1032" y="657"/>
			<point x="1024" y="725"/>
			<point x="1009" y="786" type="curve" smooth="yes"/>
			<point x="994" y="846"/>
			<point x="969" y="899"/>
			<point x="936" y="946" type="curve" smooth="yes"/>
			<point x="903" y="992"/>
			<point x="859" y="1027"/>
			<point x="802" y="1052" type="curve" smooth="yes"/>
			<point x="746" y="1077"/>
			<point x="680" y="1090"/>
			<point x="603" y="1090" type="curve" smooth="yes"/>
			<point x="543" y="1090"/>
			<point x="485" y="1075"/>
			<point x="430" y="1046" type="curve" smooth="yes"/>
			<point x="374" y="1016"/>
			<point x="325" y="975"/>
			<point x="282" y="922" type="curve"/>
			<point x="282" y="1065" type="line"/>
		</contour>
	</outline>
</glyph>
<glyph name="p" format="2">
	<advance width="1131"/>
	<unicode hex="0070"/>
	<note>
		p
	</note>
	<outline>
		<contour>
			<point x="148" y="1065" type="line"/>
			<point x="148" y="-354" type="line"/>
			<point x="283" y="-354" type="line"/>
			<point x="283" y="151" type="line"/>
			<point x="324" y="100"/>
			<point x="372" y="61"/>
			<point x="426" y="32" type="curve" smooth="yes"/>
			<point x="479" y="4"/>
			<point x="535" y="-10"/>
			<point x="594" y="-10" type="curve" smooth="yes"/>
			<point x="673" y="-10"/>
			<point x="747" y="15"/>
			<point x="814" y="66" type="curve" smooth="yes"/>
			<point x="882" y="116"/>
			<point x="935" y="183"/>
			<point x="974" y="268" type="curve" smooth="yes"/>
			<point x="1013" y="352"/>
			<point x="1033" y="443"/>
			<point x="1033" y="540" type="curve" smooth="yes"/>
			<point x="1033" y="637"/>
			<point x="1013" y="727"/>
			<point x="974" y="811" type="curve" smooth="yes"/>
			<point x="935" y="895"/>
			<point x="882" y="962"/>
			<point x="814" y="1012" type="curve" smooth="yes"/>
			<point x="747" y="1062"/>
			<point x="673" y="1087"/>
			<point x="594" y="1087" type="curve" smooth="yes"/>
			<point x="535" y="1087"/>
			<point x="479" y="1073"/>
			<point x="426" y="1045" type="curve" smooth="yes"/>
			<point x="372" y="1017"/>
			<point x="324" y="978"/>
			<point x="283" y="927" type="curve"/>
			<point x="283" y="1065" type="line"/>
		</contour>
		<contour>
			<point x="278" y="517" type="curve" smooth="yes"/>
			<point x="278" y="563" type="line" smooth="yes"/>
			<point x="281" y="633"/>
			<point x="297" y="698"/>
			<point x="326" y="758" type="curve" smooth="yes"/>
			<point x="355" y="817"/>
			<point x="393" y="865"/>
			<point x="440" y="900" type="curve" smooth="yes"/>
			<point x="487" y="935"/>
			<point x="538" y="952"/>
			<point x="591" y="952" type="curve" smooth="yes"/>
			<point x="625" y="952"/>
			<point x="658" y="945"/>
			<point x="690" y="930" type="curve" smooth="yes"/>
			<point x="721" y="916"/>
			<point x="750" y="896"/>
			<point x="776" y="870" type="curve" smooth="yes"/>
			<point x="801" y="844"/>
			<point x="824" y="814"/>
			<point x="843" y="780" type="curve" smooth="yes"/>
			<point x="862" y="746"/>
			<point x="877" y="708"/>
			<point x="888" y="666" type="curve" smooth="yes"/>
			<point x="899" y="625"/>
			<point x="904" y="582"/>
			<point x="904" y="539" type="curve" smooth="yes"/>
			<point x="904" y="466"/>
			<point x="890" y="398"/>
			<point x="862" y="334" type="curve" smooth="yes"/>
			<point x="835" y="271"/>
			<point x="797" y="220"/>
			<point x="749" y="182" type="curve" smooth="yes"/>
			<point x="701" y="145"/>
			<point x="649" y="126"/>
			<point x="593" y="126" type="curve" smooth="yes"/>
			<point x="540" y="126"/>
			<point x="489" y="144"/>
			<point x="442" y="179" type="curve" smooth="yes"/>
			<point x="395" y="214"/>
			<point x="356" y="262"/>
			<point x="327" y="322" type="curve" smooth="yes"/>
			<point x="298" y="383"/>
			<point x="281" y="448"/>
		</contour>
	</outline>
</glyph>
<glyph name="q" format="2">
	<advance width="1131"/>
	<unicode hex="0071"/>
	<note>
		q
	</note>
	<outline>
		<contour>
			<point x="848" y="152" type="curve"/>
			<point x="848" y="-354" type="line"/>
			<point x="983" y="-354" type="line"/>
			<point x="983" y="1065" type="line"/>
			<point x="848" y="1065" type="line"/>
			<point x="848" y="928" type="line"/>
			<point x="821" y="961"/>
			<point x="791" y="990"/>
			<point x="758" y="1014" type="curve" smooth="yes"/>
			<point x="726" y="1037"/>
			<point x="691" y="1055"/>
			<point x="653" y="1068" type="curve" smooth="yes"/>
			<point x="615" y="1081"/>
			<point x="576" y="1088"/>
			<point x="537" y="1088" type="curve" smooth="yes"/>
			<point x="458" y="1088"/>
			<point x="384" y="1063"/>
			<point x="316" y="1013" type="curve" smooth="yes"/>
			<point x="249" y="963"/>
			<point x="195" y="896"/>
			<point x="156" y="812" type="curve" smooth="yes"/>
			<point x="117" y="728"/>
			<point x="98" y="638"/>
			<point x="98" y="541" type="curve" smooth="yes"/>
			<point x="98" y="444"/>
			<point x="117" y="353"/>
			<point x="156" y="268" type="curve" smooth="yes"/>
			<point x="195" y="184"/>
			<point x="249" y="117"/>
			<point x="316" y="66" type="curve" smooth="yes"/>
			<point x="384" y="16"/>
			<point x="458" y="-9"/>
			<point x="537" y="-9" type="curve" smooth="yes"/>
			<point x="596" y="-9"/>
			<point x="652" y="5"/>
			<point x="706" y="34" type="curve" smooth="yes"/>
			<point x="759" y="62"/>
			<point x="807" y="101"/>
		</contour>
		<contour>
			<point x="227" y="540" type="curve" smooth="yes"/>
			<point x="227" y="613"/>
			<point x="241" y="681"/>
			<point x="269" y="744" type="curve" smooth="yes"/>
			<point x="297" y="808"/>
			<point x="335" y="859"/>
			<point x="384" y="897" type="curve" smooth="yes"/>
			<point x="432" y="935"/>
			<point x="484" y="954"/>
			<point x="540" y="954" type="curve" smooth="yes"/>
			<point x="593" y="954"/>
			<point x="643" y="936"/>
			<point x="690" y="901" type="curve" smooth="yes"/>
			<point x="737" y="866"/>
			<point x="775" y="818"/>
			<point x="804" y="758" type="curve" smooth="yes"/>
			<point x="833" y="699"/>
			<point x="850" y="634"/>
			<point x="853" y="564" type="curve" smooth="yes"/>
			<point x="853" y="518" type="line" smooth="yes"/>
			<point x="850" y="449"/>
			<point x="833" y="384"/>
			<point x="804" y="324" type="curve" smooth="yes"/>
			<point x="775" y="263"/>
			<point x="736" y="215"/>
			<point x="689" y="180" type="curve" smooth="yes"/>
			<point x="642" y="144"/>
			<point x="591" y="126"/>
			<point x="538" y="126" type="curve" smooth="yes"/>
			<point x="482" y="126"/>
			<point x="430" y="145"/>
			<point x="382" y="183" type="curve" smooth="yes"/>
			<point x="334" y="221"/>
			<point x="296" y="272"/>
			<point x="268" y="336" type="curve" smooth="yes"/>
			<point x="241" y="399"/>
			<point x="227" y="467"/>
		</contour>
	</outline>
</glyph>
<glyph name="r" format="2">
	<advance width="775"/>
	<unicode hex="0072"/>
	<note>
		r
	</note>
	<outline>
		<contour>
			<point x="138" y="1065" type="line"/>
			<point x="138" y="-8" type="line"/>
			<point x="272" y="-8" type="line"/>
			<point x="272" y="611" type="line"/>
			<point x="276" y="673"/>
			<point x="287" y="728"/>
			<point x="306" y="776" type="curve" smooth="yes"/>
			<point x="325" y="823"/>
			<point x="352" y="862"/>
			<point x="386" y="892" type="curve" smooth="yes"/>
			<point x="419" y="923"/>
			<point x="459" y="943"/>
			<point x="506" y="952" type="curve" smooth="yes"/>
			<point x="553" y="961"/>
			<point x="607" y="957"/>
			<point x="667" y="942" type="curve"/>
			<point x="667" y="1072" type="line"/>
			<point x="584" y="1095"/>
			<point x="509" y="1095"/>
			<point x="442" y="1072" type="curve" smooth="yes"/>
			<point x="375" y="1049"/>
			<point x="319" y="1008"/>
			<point x="272" y="948" type="curve"/>
			<point x="272" y="1065" type="line"/>
		</contour>
	</outline>
</glyph>
<glyph name="s" format="2">
	<advance width="963"/>
	<unicode hex="0073"/>
	<note>
		s
	</note>
	<outline>
		<contour>
			<point x="476" y="-8" type="curve" smooth="yes"/>
			<point x="506" y="-8"/>
			<point x="536" y="-5"/>
			<point x="566" y="2" type="curve" smooth="yes"/>
			<point x="597" y="8"/>
			<point x="628" y="19"/>
			<point x="660" y="34" type="curve" smooth="yes"/>
			<point x="691" y="49"/>
			<point x="720" y="68"/>
			<point x="745" y="91" type="curve" smooth="yes"/>
			<point x="770" y="114"/>
			<point x="792" y="143"/>
			<point x="810" y="178" type="curve" smooth="yes"/>
			<point x="827" y="214"/>
			<point x="838" y="254"/>
			<point x="843" y="298" type="curve" smooth="yes"/>
			<point x="844" y="317"/>
			<point x="845" y="330"/>
			<point x="845" y="337" type="curve" smooth="yes"/>
			<point x="842" y="376" type="line" smooth="yes"/>
			<point x="841" y="388"/>
			<point x="838" y="401"/>
			<point x="834" y="414" type="curve" smooth="yes"/>
			<point x="826" y="442"/>
			<point x="816" y="465"/>
			<point x="796" y="490" type="curve" smooth="yes"/>
			<point x="786" y="502"/>
			<point x="775" y="513"/>
			<point x="762" y="523" type="curve" smooth="yes"/>
			<point x="749" y="533"/>
			<point x="734" y="542"/>
			<point x="716" y="551" type="curve" smooth="yes"/>
			<point x="697" y="560"/>
			<point x="677" y="567"/>
			<point x="654" y="574" type="curve" smooth="yes"/>
			<point x="632" y="580"/>
			<point x="607" y="585"/>
			<point x="578" y="588" type="curve" smooth="yes"/>
			<point x="549" y="592"/>
			<point x="517" y="594"/>
			<point x="482" y="594" type="curve" smooth="yes"/>
			<point x="393" y="598"/>
			<point x="330" y="613"/>
			<point x="294" y="640" type="curve" smooth="yes"/>
			<point x="259" y="667"/>
			<point x="241" y="710"/>
			<point x="241" y="769" type="curve" smooth="yes"/>
			<point x="241" y="775" type="line" smooth="yes"/>
			<point x="242" y="830"/>
			<point x="266" y="877"/>
			<point x="315" y="914" type="curve" smooth="yes"/>
			<point x="364" y="952"/>
			<point x="419" y="971"/>
			<point x="481" y="971" type="curve" smooth="yes"/>
			<point x="510" y="971"/>
			<point x="537" y="966"/>
			<point x="564" y="957" type="curve" smooth="yes"/>
			<point x="591" y="948"/>
			<point x="616" y="934"/>
			<point x="638" y="916" type="curve" smooth="yes"/>
			<point x="661" y="898"/>
			<point x="679" y="874"/>
			<point x="692" y="844" type="curve" smooth="yes"/>
			<point x="706" y="815"/>
			<point x="713" y="782"/>
			<point x="713" y="745" type="curve"/>
			<point x="842" y="745" type="line"/>
			<point x="842" y="784"/>
			<point x="837" y="820"/>
			<point x="828" y="854" type="curve" smooth="yes"/>
			<point x="818" y="887"/>
			<point x="804" y="916"/>
			<point x="787" y="941" type="curve" smooth="yes"/>
			<point x="770" y="966"/>
			<point x="749" y="988"/>
			<point x="726" y="1007" type="curve" smooth="yes"/>
			<point x="703" y="1026"/>
			<point x="677" y="1042"/>
			<point x="650" y="1054" type="curve" smooth="yes"/>
			<point x="623" y="1066"/>
			<point x="594" y="1075"/>
			<point x="565" y="1081" type="curve" smooth="yes"/>
			<point x="536" y="1087"/>
			<point x="506" y="1090"/>
			<point x="475" y="1090" type="curve" smooth="yes"/>
			<point x="374" y="1090"/>
			<point x="259" y="1051"/>
			<point x="182" y="958" type="curve" smooth="yes"/>
			<point x="163" y="936"/>
			<point x="147" y="909"/>
			<point x="134" y="878" type="curve" smooth="yes"/>
			<point x="122" y="846"/>
			<point x="115" y="812"/>
			<point x="112" y="775" type="curve" smooth="yes"/>
			<point x="111" y="769"/>
			<point x="111" y="759"/>
			<point x="111" y="746" type="curve" smooth="yes"/>
			<point x="111" y="573"/>
			<point x="225" y="483"/>
			<point x="453" y="474" type="curve"/>
			<point x="522" y="474"/>
			<point x="577" y="468"/>
			<point x="616" y="456" type="curve" smooth="yes"/>
			<point x="655" y="444"/>
			<point x="682" y="427"/>
			<point x="697" y="404" type="curve" smooth="yes"/>
			<point x="712" y="382"/>
			<point x="719" y="352"/>
			<point x="719" y="314" type="curve" smooth="yes"/>
			<point x="719" y="309" type="line" smooth="yes"/>
			<point x="718" y="274"/>
			<point x="710" y="244"/>
			<point x="694" y="217" type="curve" smooth="yes"/>
			<point x="677" y="190"/>
			<point x="656" y="170"/>
			<point x="631" y="155" type="curve" smooth="yes"/>
			<point x="606" y="140"/>
			<point x="579" y="129"/>
			<point x="552" y="122" type="curve" smooth="yes"/>
			<point x="525" y="115"/>
			<point x="498" y="112"/>
			<point x="471" y="112" type="curve" smooth="yes"/>
			<point x="442" y="112"/>
			<point x="414" y="117"/>
			<point x="387" y="128" type="curve" smooth="yes"/>
			<point x="360" y="139"/>
			<point x="334" y="155"/>
			<point x="311" y="176" type="curve" smooth="yes"/>
			<point x="288" y="196"/>
			<point x="269" y="223"/>
			<point x="254" y="257" type="curve" smooth="yes"/>
			<point x="239" y="291"/>
			<point x="230" y="329"/>
			<point x="229" y="371" type="curve"/>
			<point x="98" y="371" type="line"/>
			<point x="99" y="329"/>
			<point x="104" y="289"/>
			<point x="115" y="252" type="curve" smooth="yes"/>
			<point x="126" y="215"/>
			<point x="140" y="183"/>
			<point x="158" y="156" type="curve" smooth="yes"/>
			<point x="176" y="129"/>
			<point x="197" y="105"/>
			<point x="221" y="84" type="curve" smooth="yes"/>
			<point x="245" y="63"/>
			<point x="271" y="45"/>
			<point x="299" y="32" type="curve" smooth="yes"/>
			<point x="355" y="5"/>
			<point x="415" y="-8"/>
		</contour>
	</outline>
</glyph>
<glyph name="t" format="2">
	<advance width="758"/>
	<unicode hex="0074"/>
	<note>
		t
	</note>
	<outline>
		<contour>
			<point x="263" y="930" type="line"/>
			<point x="263" y="0" type="line"/>
			<point x="397" y="0" type="line"/>
			<point x="397" y="930" type="line"/>
			<point x="680" y="930" type="line"/>
			<point x="680" y="1063" type="line"/>
			<point x="397" y="1063" type="line"/>
			<point x="397" y="1470" type="line"/>
			<point x="263" y="1470" type="line"/>
			<point x="263" y="1063" type="line"/>
			<point x="118" y="1063" type="line"/>
			<point x="118" y="930" type="line"/>
		</contour>
	</outline>
</glyph>
<glyph name="u" format="2">
	<advance width="1152"/>
	<unicode hex="0075"/>
	<note>
		u
	</note>
	<outline>
		<contour>
			<point x="557" y="-9" type="curve" smooth="yes"/>
			<point x="618" y="-9"/>
			<point x="676" y="6"/>
			<point x="732" y="36" type="curve" smooth="yes"/>
			<point x="788" y="66"/>
			<point x="837" y="107"/>
			<point x="880" y="160" type="curve"/>
			<point x="880" y="0" type="line"/>
			<point x="1014" y="0" type="line"/>
			<point x="1014" y="1065" type="line"/>
			<point x="880" y="1065" type="line"/>
			<point x="880" y="541" type="line" smooth="yes"/>
			<point x="880" y="469"/>
			<point x="865" y="401"/>
			<point x="836" y="336" type="curve" smooth="yes"/>
			<point x="806" y="272"/>
			<point x="766" y="221"/>
			<point x="716" y="183" type="curve" smooth="yes"/>
			<point x="667" y="145"/>
			<point x="614" y="126"/>
			<point x="558" y="126" type="curve" smooth="yes"/>
			<point x="497" y="126"/>
			<point x="443" y="145"/>
			<point x="397" y="184" type="curve" smooth="yes"/>
			<point x="351" y="223"/>
			<point x="317" y="273"/>
			<point x="294" y="335" type="curve" smooth="yes"/>
			<point x="271" y="397"/>
			<point x="259" y="465"/>
			<point x="259" y="540" type="curve" smooth="yes"/>
			<point x="259" y="1065" type="line"/>
			<point x="128" y="1065" type="line"/>
			<point x="128" y="533" type="line" smooth="yes"/>
			<point x="129" y="460"/>
			<point x="139" y="391"/>
			<point x="160" y="326" type="curve" smooth="yes"/>
			<point x="181" y="260"/>
			<point x="209" y="202"/>
			<point x="246" y="152" type="curve" smooth="yes"/>
			<point x="282" y="103"/>
			<point x="327" y="63"/>
			<point x="381" y="34" type="curve" smooth="yes"/>
			<point x="435" y="5"/>
			<point x="494" y="-9"/>
		</contour>
	</outline>
</glyph>
<glyph name="v" format="2">
	<advance width="1240"/>
	<unicode hex="0076"/>
	<note>
		v
	</note>
	<outline>
		<contour>
			<point x="108" y="1065" type="line"/>
			<point x="527" y="0" type="line"/>
			<point x="706" y="0" type="line"/>
			<point x="1132" y="1065" type="line"/>
			<point x="992" y="1065" type="line"/>
			<point x="620" y="137" type="line"/>
			<point x="254" y="1065" type="line"/>
		</contour>
	</outline>
</glyph>
<glyph name="w" format="2">
	<advance width="1836"/>
	<unicode hex="0077"/>
	<note>
		w
	</note>
	<outline>
		<contour>
			<point x="148" y="1064" type="line"/>
			<point x="485" y="0" type="line"/>
			<point x="654" y="0" type="line"/>
			<point x="908" y="823" type="line"/>
			<point x="1152" y="0" type="line"/>
			<point x="1319" y="0" type="line"/>
			<point x="1688" y="1064" type="line"/>
			<point x="1550" y="1064" type="line"/>
			<point x="1244" y="184" type="line"/>
			<point x="986" y="1064" type="line"/>
			<point x="835" y="1064" type="line"/>
			<point x="569" y="190" type="line"/>
			<point x="291" y="1064" type="line"/>
		</contour>
	</outline>
</glyph>
<glyph name="x" format="2">
	<advance width="1186"/>
	<unicode hex="0078"/>
	<note>
		x
	</note>
	<outline>
		<contour>
			<point x="592" y="432" type="line"/>
			<point x="925" y="-1" type="line"/>
			<point x="1098" y="0" type="line"/>
			<point x="679" y="544" type="line"/>
			<point x="1082" y="1062" type="line"/>
			<point x="908" y="1062" type="line"/>
			<point x="594" y="655" type="line"/>
			<point x="280" y="1062" type="line"/>
			<point x="108" y="1062" type="line"/>
			<point x="507" y="543" type="line"/>
			<point x="88" y="1" type="line"/>
			<point x="257" y="0" type="line"/>
		</contour>
	</outline>
</glyph>
<glyph name="y" format="2">
	<advance width="1198"/>
	<unicode hex="0079"/>
	<note>
		y
	</note>
	<outline>
		<contour>
			<point x="520" y="0" type="line"/>
			<point x="375" y="-357" type="line"/>
			<point x="523" y="-357" type="line"/>
			<point x="1100" y="1068" type="line"/>
			<point x="953" y="1068" type="line"/>
			<point x="595" y="184" type="line"/>
			<point x="248" y="1068" type="line"/>
			<point x="98" y="1068" type="line"/>
		</contour>
	</outline>
</glyph>
<glyph name="z" format="2">
	<advance width="1056"/>
	<unicode hex="007A"/>
	<note>
		z
	</note>
	<outline>
		<contour>
			<point x="125" y="133" type="line"/>
			<point x="125" y="0" type="line"/>
			<point x="938" y="0" type="line"/>
			<point x="938" y="133" type="line"/>
			<point x="296" y="133" type="line"/>
			<point x="931" y="929" type="line"/>
			<point x="931" y="1062" type="line"/>
			<point x="118" y="1062" type="line"/>
			<point x="118" y="929" type="line"/>
			<point x="761" y="929" type="line"/>
			<point x="126" y="133" type="line"/>
		</contour>
	</outline>
</glyph>
<glyph name="braceleft" format="2">
	<advance width="1025"/>
	<unicode hex="007B"/>
	<note>
		braceleft
	</note>
	<outline>
		<contour>
			<point x="767" y="-185" type="curve"/>
			<point x="767" y="-92" type="line"/>
			<point x="732" y="-91"/>
			<point x="702" y="-82"/>
			<point x="677" y="-65" type="curve" smooth="yes"/>
			<point x="652" y="-48"/>
			<point x="632" y="-27"/>
			<point x="615" y="0" type="curve" smooth="yes"/>
			<point x="598" y="27"/>
			<point x="584" y="57"/>
			<point x="573" y="92" type="curve" smooth="yes"/>
			<point x="562" y="126"/>
			<point x="553" y="161"/>
			<point x="546" y="198" type="curve" smooth="yes"/>
			<point x="537" y="235"/>
			<point x="529" y="272"/>
			<point x="521" y="310" type="curve" smooth="yes"/>
			<point x="513" y="347"/>
			<point x="503" y="382"/>
			<point x="492" y="415" type="curve" smooth="yes"/>
			<point x="481" y="448"/>
			<point x="468" y="477"/>
			<point x="453" y="503" type="curve" smooth="yes"/>
			<point x="438" y="528"/>
			<point x="419" y="547"/>
			<point x="396" y="559" type="curve"/>
			<point x="442" y="582"/>
			<point x="474" y="629"/>
			<point x="493" y="700" type="curve" smooth="yes"/>
			<point x="502" y="735"/>
			<point x="510" y="771"/>
			<point x="519" y="808" type="curve" smooth="yes"/>
			<point x="545" y="919"/>
			<point x="572" y="1035"/>
			<point x="617" y="1120" type="curve" smooth="yes"/>
			<point x="647" y="1179"/>
			<point x="697" y="1208"/>
			<point x="766" y="1208" type="curve"/>
			<point x="767" y="1304" type="line"/>
			<point x="650" y="1304"/>
			<point x="568" y="1270"/>
			<point x="521" y="1201" type="curve" smooth="yes"/>
			<point x="476" y="1136"/>
			<point x="444" y="1057"/>
			<point x="417" y="978" type="curve" smooth="yes"/>
			<point x="404" y="939"/>
			<point x="392" y="900"/>
			<point x="381" y="862" type="curve" smooth="yes"/>
			<point x="370" y="823"/>
			<point x="358" y="787"/>
			<point x="347" y="754" type="curve" smooth="yes"/>
			<point x="335" y="719"/>
			<point x="317" y="694"/>
			<point x="294" y="678" type="curve" smooth="yes"/>
			<point x="271" y="662"/>
			<point x="243" y="654"/>
			<point x="208" y="654" type="curve"/>
			<point x="208" y="464" type="line"/>
			<point x="277" y="464"/>
			<point x="323" y="430"/>
			<point x="347" y="363" type="curve" smooth="yes"/>
			<point x="358" y="330"/>
			<point x="369" y="294"/>
			<point x="380" y="256" type="curve" smooth="yes"/>
			<point x="391" y="218"/>
			<point x="404" y="179"/>
			<point x="417" y="140" type="curve" smooth="yes"/>
			<point x="430" y="101"/>
			<point x="445" y="62"/>
			<point x="462" y="24" type="curve" smooth="yes"/>
			<point x="479" y="-14"/>
			<point x="498" y="-50"/>
			<point x="521" y="-83" type="curve" smooth="yes"/>
			<point x="568" y="-151"/>
			<point x="650" y="-185"/>
		</contour>
	</outline>
</glyph>
<glyph name="bar" format="2">
	<advance width="493"/>
	<unicode hex="007C"/>
	<note>
		bar
	</note>
	<outline>
		<contour>
			<point x="178" y="1296" type="line"/>
			<point x="181" y="-4" type="line"/>
			<point x="315" y="-4" type="line"/>
			<point x="312" y="1296" type="line"/>
		</contour>
	</outline>
</glyph>
<glyph name="braceright" format="2">
	<advance width="1025"/>
	<unicode hex="007D"/>
	<note>
		braceright
	</note>
	<outline>
		<contour>
			<point x="258" y="-92" type="curve"/>
			<point x="258" y="-185" type="line"/>
			<point x="318" y="-186"/>
			<point x="368" y="-178"/>
			<point x="407" y="-161" type="curve" smooth="yes"/>
			<point x="446" y="-144"/>
			<point x="478" y="-118"/>
			<point x="501" y="-83" type="curve" smooth="yes"/>
			<point x="524" y="-50"/>
			<point x="544" y="-14"/>
			<point x="561" y="24" type="curve" smooth="yes"/>
			<point x="578" y="62"/>
			<point x="593" y="101"/>
			<point x="606" y="140" type="curve" smooth="yes"/>
			<point x="619" y="179"/>
			<point x="631" y="218"/>
			<point x="642" y="256" type="curve" smooth="yes"/>
			<point x="653" y="294"/>
			<point x="664" y="330"/>
			<point x="676" y="363" type="curve" smooth="yes"/>
			<point x="699" y="430"/>
			<point x="746" y="464"/>
			<point x="817" y="464" type="curve"/>
			<point x="817" y="654" type="line"/>
			<point x="782" y="654"/>
			<point x="752" y="662"/>
			<point x="728" y="678" type="curve" smooth="yes"/>
			<point x="705" y="694"/>
			<point x="687" y="719"/>
			<point x="676" y="754" type="curve" smooth="yes"/>
			<point x="664" y="788"/>
			<point x="653" y="824"/>
			<point x="642" y="862" type="curve" smooth="yes"/>
			<point x="607" y="980"/>
			<point x="570" y="1101"/>
			<point x="501" y="1201" type="curve" smooth="yes"/>
			<point x="454" y="1270"/>
			<point x="373" y="1304"/>
			<point x="258" y="1304" type="curve"/>
			<point x="259" y="1208" type="line"/>
			<point x="294" y="1208"/>
			<point x="324" y="1200"/>
			<point x="348" y="1184" type="curve" smooth="yes"/>
			<point x="373" y="1167"/>
			<point x="393" y="1145"/>
			<point x="409" y="1118" type="curve" smooth="yes"/>
			<point x="425" y="1091"/>
			<point x="438" y="1061"/>
			<point x="448" y="1026" type="curve" smooth="yes"/>
			<point x="459" y="991"/>
			<point x="468" y="956"/>
			<point x="477" y="919" type="curve" smooth="yes"/>
			<point x="486" y="882"/>
			<point x="494" y="845"/>
			<point x="502" y="807" type="curve" smooth="yes"/>
			<point x="510" y="770"/>
			<point x="520" y="735"/>
			<point x="531" y="702" type="curve" smooth="yes"/>
			<point x="542" y="669"/>
			<point x="556" y="640"/>
			<point x="571" y="614" type="curve" smooth="yes"/>
			<point x="587" y="589"/>
			<point x="607" y="570"/>
			<point x="631" y="559" type="curve"/>
			<point x="608" y="547"/>
			<point x="588" y="528"/>
			<point x="572" y="502" type="curve" smooth="yes"/>
			<point x="557" y="477"/>
			<point x="543" y="448"/>
			<point x="532" y="415" type="curve" smooth="yes"/>
			<point x="521" y="382"/>
			<point x="511" y="347"/>
			<point x="503" y="309" type="curve" smooth="yes"/>
			<point x="495" y="272"/>
			<point x="487" y="235"/>
			<point x="478" y="198" type="curve" smooth="yes"/>
			<point x="470" y="161"/>
			<point x="460" y="126"/>
			<point x="449" y="91" type="curve" smooth="yes"/>
			<point x="438" y="57"/>
			<point x="425" y="27"/>
			<point x="408" y="0" type="curve" smooth="yes"/>
			<point x="392" y="-27"/>
			<point x="372" y="-49"/>
			<point x="348" y="-66" type="curve" smooth="yes"/>
			<point x="323" y="-83"/>
			<point x="293" y="-91"/>
		</contour>
	</outline>
</glyph>
<glyph name="exclamdown" format="2">
	<advance width="574"/>
	<unicode hex="00A1"/>
	<note>
		exclamdown
	</note>
	<outline>
		<contour>
			<point x="219" y="922" type="line"/>
			<point x="219" y="0" type="line"/>
			<point x="353" y="0" type="line"/>
			<point x="353" y="922" type="line"/>
		</contour>
		<contour>
			<point x="220" y="1296" type="line"/>
			<point x="220" y="1122" type="line"/>
			<point x="354" y="1122" type="line"/>
			<point x="354" y="1296" type="line"/>
		</contour>
	</outline>
</glyph>
<glyph name="cent" format="2">
	<advance width="1281"/>
	<unicode hex="00A2"/>
	<note>
		cent
	</note>
	<outline>
		<contour>
			<point x="466" y="44" type="curve"/>
			<point x="408" y="-188" type="line"/>
			<point x="546" y="-188" type="line"/>
			<point x="592" y="-4" type="line"/>
			<point x="612" y="-7"/>
			<point x="632" y="-9"/>
			<point x="653" y="-9" type="curve" smooth="yes"/>
			<point x="748" y="-9"/>
			<point x="834" y="27"/>
			<point x="911" y="98" type="curve" smooth="yes"/>
			<point x="987" y="169"/>
			<point x="1040" y="260"/>
			<point x="1070" y="370" type="curve"/>
			<point x="935" y="370" type="line"/>
			<point x="910" y="298"/>
			<point x="872" y="239"/>
			<point x="821" y="194" type="curve" smooth="yes"/>
			<point x="770" y="149"/>
			<point x="713" y="126"/>
			<point x="652" y="126" type="curve" smooth="yes"/>
			<point x="643" y="126"/>
			<point x="634" y="127"/>
			<point x="625" y="128" type="curve"/>
			<point x="816" y="888" type="line"/>
			<point x="873" y="840"/>
			<point x="914" y="775"/>
			<point x="940" y="693" type="curve"/>
			<point x="1073" y="693" type="line"/>
			<point x="1056" y="765"/>
			<point x="1029" y="830"/>
			<point x="990" y="888" type="curve" smooth="yes"/>
			<point x="951" y="947"/>
			<point x="904" y="993"/>
			<point x="851" y="1028" type="curve"/>
			<point x="910" y="1263" type="line"/>
			<point x="772" y="1263" type="line"/>
			<point x="726" y="1080" type="line"/>
			<point x="702" y="1085"/>
			<point x="678" y="1088"/>
			<point x="653" y="1088" type="curve" smooth="yes"/>
			<point x="574" y="1088"/>
			<point x="500" y="1063"/>
			<point x="431" y="1014" type="curve" smooth="yes"/>
			<point x="362" y="964"/>
			<point x="308" y="897"/>
			<point x="268" y="812" type="curve" smooth="yes"/>
			<point x="228" y="728"/>
			<point x="208" y="638"/>
			<point x="208" y="541" type="curve" smooth="yes"/>
			<point x="208" y="435"/>
			<point x="232" y="337"/>
			<point x="280" y="247" type="curve" smooth="yes"/>
			<point x="327" y="157"/>
			<point x="389" y="89"/>
		</contour>
		<contour>
			<point x="341" y="541" type="curve" smooth="yes"/>
			<point x="341" y="614"/>
			<point x="355" y="682"/>
			<point x="382" y="745" type="curve" smooth="yes"/>
			<point x="410" y="808"/>
			<point x="448" y="859"/>
			<point x="496" y="897" type="curve" smooth="yes"/>
			<point x="543" y="935"/>
			<point x="595" y="954"/>
			<point x="650" y="954" type="curve" smooth="yes"/>
			<point x="665" y="954"/>
			<point x="679" y="952"/>
			<point x="693" y="949" type="curve"/>
			<point x="501" y="181" type="line"/>
			<point x="453" y="218"/>
			<point x="414" y="269"/>
			<point x="385" y="333" type="curve" smooth="yes"/>
			<point x="356" y="398"/>
			<point x="341" y="467"/>
		</contour>
	</outline>
</glyph>
<glyph name="yen" format="2">
	<advance width="1372"/>
	<unicode hex="00A5"/>
	<note>
		yen
	</note>
	<outline>
		<contour>
			<point x="636" y="426" type="line"/>
			<point x="638" y="0" type="line"/>
			<point x="772" y="0" type="line"/>
			<point x="770" y="426" type="line"/>
			<point x="1214" y="426" type="line"/>
			<point x="1214" y="560" type="line"/>
			<point x="770" y="560" type="line"/>
			<point x="769" y="654" type="line"/>
			<point x="1214" y="654" type="line"/>
			<point x="1214" y="788" type="line"/>
			<point x="865" y="788" type="line"/>
			<point x="1214" y="1260" type="line"/>
			<point x="1053" y="1260" type="line"/>
			<point x="700" y="789" type="line"/>
			<point x="342" y="1260" type="line"/>
			<point x="168" y="1260" type="line"/>
			<point x="530" y="788" type="line"/>
			<point x="158" y="788" type="line"/>
			<point x="158" y="654" type="line"/>
			<point x="633" y="654" type="line"/>
			<point x="635" y="651" type="line"/>
			<point x="636" y="560" type="line"/>
			<point x="158" y="560" type="line"/>
			<point x="158" y="426" type="line"/>
		</contour>
	</outline>
</glyph>
<glyph name="brokenbar" format="2">
	<advance width="754"/>
	<unicode hex="00A6"/>
	<note>
		brokenbar
	</note>
	<outline>
		<contour>
			<point x="312" y="1554" type="line"/>
			<point x="312" y="960" type="line"/>
			<point x="446" y="960" type="line"/>
			<point x="446" y="1554" type="line"/>
		</contour>
		<contour>
			<point x="308" y="442" type="line"/>
			<point x="308" y="-152" type="line"/>
			<point x="442" y="-152" type="line"/>
			<point x="442" y="442" type="line"/>
		</contour>
	</outline>
</glyph>
<glyph name="section" format="2">
	<advance width="979"/>
	<unicode hex="00A7"/>
	<note>
		section
	</note>
	<outline>
		<contour>
			<point x="474" y="0" type="curve" smooth="yes"/>
			<point x="551" y="0"/>
			<point x="616" y="27"/>
			<point x="671" y="82" type="curve" smooth="yes"/>
			<point x="726" y="137"/>
			<point x="753" y="203"/>
			<point x="753" y="280" type="curve" smooth="yes"/>
			<point x="753" y="319"/>
			<point x="744" y="359"/>
			<point x="725" y="400" type="curve"/>
			<point x="715" y="417" type="line"/>
			<point x="705" y="435" type="line"/>
			<point x="736" y="477"/>
			<point x="751" y="524"/>
			<point x="751" y="576" type="curve" smooth="yes"/>
			<point x="751" y="625"/>
			<point x="736" y="671"/>
			<point x="706" y="714" type="curve" smooth="yes"/>
			<point x="687" y="739"/>
			<point x="664" y="762"/>
			<point x="639" y="783" type="curve"/>
			<point x="416" y="952" type="line" smooth="yes"/>
			<point x="403" y="961"/>
			<point x="395" y="972"/>
			<point x="390" y="984" type="curve" smooth="yes"/>
			<point x="383" y="998"/>
			<point x="380" y="1012"/>
			<point x="380" y="1025" type="curve" smooth="yes"/>
			<point x="380" y="1048"/>
			<point x="389" y="1070"/>
			<point x="408" y="1090" type="curve" smooth="yes"/>
			<point x="426" y="1108"/>
			<point x="448" y="1117"/>
			<point x="474" y="1117" type="curve" smooth="yes"/>
			<point x="498" y="1117"/>
			<point x="520" y="1108"/>
			<point x="539" y="1090" type="curve" smooth="yes"/>
			<point x="558" y="1072"/>
			<point x="567" y="1050"/>
			<point x="567" y="1025" type="curve"/>
			<point x="753" y="1025" type="line"/>
			<point x="753" y="1102"/>
			<point x="726" y="1167"/>
			<point x="671" y="1222" type="curve" smooth="yes"/>
			<point x="616" y="1277"/>
			<point x="551" y="1304"/>
			<point x="474" y="1304" type="curve" smooth="yes"/>
			<point x="397" y="1304"/>
			<point x="331" y="1277"/>
			<point x="276" y="1222" type="curve" smooth="yes"/>
			<point x="221" y="1167"/>
			<point x="194" y="1102"/>
			<point x="194" y="1025" type="curve" smooth="yes"/>
			<point x="194" y="984"/>
			<point x="204" y="943"/>
			<point x="223" y="904" type="curve"/>
			<point x="227" y="893"/>
			<point x="233" y="882"/>
			<point x="242" y="870" type="curve"/>
			<point x="210" y="825"/>
			<point x="195" y="778"/>
			<point x="196" y="728" type="curve" smooth="yes"/>
			<point x="196" y="678"/>
			<point x="211" y="632"/>
			<point x="241" y="590" type="curve" smooth="yes"/>
			<point x="260" y="563"/>
			<point x="282" y="540"/>
			<point x="309" y="521" type="curve"/>
			<point x="308" y="521" type="line"/>
			<point x="531" y="352" type="line" smooth="yes"/>
			<point x="543" y="343"/>
			<point x="552" y="332"/>
			<point x="558" y="320" type="curve" smooth="yes"/>
			<point x="564" y="305"/>
			<point x="567" y="291"/>
			<point x="567" y="280" type="curve" smooth="yes"/>
			<point x="567" y="253"/>
			<point x="558" y="231"/>
			<point x="539" y="214" type="curve" smooth="yes"/>
			<point x="521" y="195"/>
			<point x="499" y="186"/>
			<point x="474" y="186" type="curve" smooth="yes"/>
			<point x="448" y="186"/>
			<point x="426" y="195"/>
			<point x="408" y="214" type="curve" smooth="yes"/>
			<point x="389" y="232"/>
			<point x="380" y="254"/>
			<point x="380" y="280" type="curve"/>
			<point x="194" y="280" type="line"/>
			<point x="194" y="203"/>
			<point x="221" y="137"/>
			<point x="276" y="82" type="curve" smooth="yes"/>
			<point x="331" y="27"/>
			<point x="397" y="0"/>
		</contour>
		<contour>
			<point x="381" y="730" type="curve" smooth="yes"/>
			<point x="381" y="732"/>
			<point x="382" y="736"/>
			<point x="383" y="743" type="curve"/>
			<point x="527" y="634" type="line" smooth="yes"/>
			<point x="537" y="627"/>
			<point x="546" y="618"/>
			<point x="553" y="609" type="curve" smooth="yes"/>
			<point x="562" y="596"/>
			<point x="566" y="585"/>
			<point x="566" y="575" type="curve" smooth="yes"/>
			<point x="566" y="572"/>
			<point x="565" y="568"/>
			<point x="564" y="561" type="curve"/>
			<point x="420" y="669" type="line" smooth="yes"/>
			<point x="407" y="680"/>
			<point x="398" y="690"/>
			<point x="394" y="697" type="curve"/>
			<point x="385" y="708"/>
			<point x="381" y="719"/>
		</contour>
	</outline>
</glyph>
<glyph name="dieresis" format="2">
	<advance width="1505"/>
	<unicode hex="00A8"/>
	<note>
		dieresis
	</note>
	<outline>
		<contour>
			<point x="960" y="1470" type="line"/>
			<point x="960" y="1296" type="line"/>
			<point x="1094" y="1296" type="line"/>
			<point x="1094" y="1470" type="line"/>
		</contour>
		<contour>
			<point x="402" y="1470" type="line"/>
			<point x="402" y="1296" type="line"/>
			<point x="536" y="1296" type="line"/>
			<point x="536" y="1470" type="line"/>
		</contour>
	</outline>
</glyph>
<glyph name="copyright" format="2">
	<advance width="1505"/>
	<unicode hex="00A9"/>
	<note>
		copyright
	</note>
	<outline>
		<contour>
			<point x="753" y="0" type="curve" smooth="yes"/>
			<point x="911" y="0"/>
			<point x="1045" y="66"/>
			<point x="1154" y="198" type="curve" smooth="yes"/>
			<point x="1259" y="325"/>
			<point x="1311" y="476"/>
			<point x="1311" y="651" type="curve" smooth="yes"/>
			<point x="1311" y="827"/>
			<point x="1259" y="979"/>
			<point x="1154" y="1107" type="curve" smooth="yes"/>
			<point x="1045" y="1238"/>
			<point x="911" y="1304"/>
			<point x="753" y="1304" type="curve" smooth="yes"/>
			<point x="594" y="1304"/>
			<point x="461" y="1238"/>
			<point x="352" y="1107" type="curve" smooth="yes"/>
			<point x="247" y="978"/>
			<point x="194" y="826"/>
			<point x="194" y="651" type="curve" smooth="yes"/>
			<point x="194" y="476"/>
			<point x="247" y="325"/>
			<point x="352" y="198" type="curve" smooth="yes"/>
			<point x="461" y="66"/>
			<point x="594" y="0"/>
		</contour>
		<contour>
			<point x="380" y="651" type="curve" smooth="yes"/>
			<point x="380" y="784"/>
			<point x="418" y="897"/>
			<point x="495" y="988" type="curve" smooth="yes"/>
			<point x="566" y="1074"/>
			<point x="652" y="1117"/>
			<point x="753" y="1117" type="curve" smooth="yes"/>
			<point x="853" y="1117"/>
			<point x="939" y="1074"/>
			<point x="1011" y="988" type="curve" smooth="yes"/>
			<point x="1087" y="896"/>
			<point x="1125" y="784"/>
			<point x="1125" y="651" type="curve" smooth="yes"/>
			<point x="1125" y="519"/>
			<point x="1087" y="407"/>
			<point x="1011" y="316" type="curve" smooth="yes"/>
			<point x="938" y="229"/>
			<point x="852" y="186"/>
			<point x="753" y="186" type="curve" smooth="yes"/>
			<point x="652" y="186"/>
			<point x="566" y="229"/>
			<point x="495" y="316" type="curve" smooth="yes"/>
			<point x="418" y="407"/>
			<point x="380" y="518"/>
		</contour>
		<contour>
			<point x="474" y="651" type="curve" smooth="yes"/>
			<point x="474" y="554"/>
			<point x="497" y="472"/>
			<point x="544" y="403" type="curve" smooth="yes"/>
			<point x="599" y="321"/>
			<point x="668" y="280"/>
			<point x="753" y="280" type="curve" smooth="yes"/>
			<point x="790" y="280"/>
			<point x="823" y="288"/>
			<point x="854" y="304" type="curve" smooth="yes"/>
			<point x="885" y="319"/>
			<point x="911" y="340"/>
			<point x="934" y="367" type="curve" smooth="yes"/>
			<point x="953" y="386"/>
			<point x="969" y="410"/>
			<point x="983" y="438" type="curve" smooth="yes"/>
			<point x="994" y="463"/>
			<point x="1005" y="490"/>
			<point x="1014" y="519" type="curve"/>
			<point x="835" y="568" type="line"/>
			<point x="830" y="551"/>
			<point x="824" y="535"/>
			<point x="818" y="522" type="curve" smooth="yes"/>
			<point x="809" y="507"/>
			<point x="801" y="496"/>
			<point x="795" y="490" type="curve" smooth="yes"/>
			<point x="787" y="480"/>
			<point x="779" y="473"/>
			<point x="772" y="470" type="curve" smooth="yes"/>
			<point x="766" y="467"/>
			<point x="760" y="466"/>
			<point x="753" y="466" type="curve" smooth="yes"/>
			<point x="734" y="466"/>
			<point x="716" y="479"/>
			<point x="699" y="506" type="curve" smooth="yes"/>
			<point x="672" y="545"/>
			<point x="659" y="593"/>
			<point x="659" y="651" type="curve" smooth="yes"/>
			<point x="659" y="709"/>
			<point x="672" y="758"/>
			<point x="699" y="798" type="curve" smooth="yes"/>
			<point x="716" y="825"/>
			<point x="734" y="839"/>
			<point x="753" y="839" type="curve" smooth="yes"/>
			<point x="758" y="839"/>
			<point x="764" y="837"/>
			<point x="770" y="834" type="curve" smooth="yes"/>
			<point x="779" y="829"/>
			<point x="787" y="823"/>
			<point x="795" y="814" type="curve" smooth="yes"/>
			<point x="803" y="804"/>
			<point x="811" y="793"/>
			<point x="818" y="781" type="curve"/>
			<point x="823" y="768"/>
			<point x="829" y="753"/>
			<point x="835" y="736" type="curve"/>
			<point x="1014" y="785" type="line"/>
			<point x="1005" y="814"/>
			<point x="994" y="841"/>
			<point x="983" y="866" type="curve"/>
			<point x="969" y="891"/>
			<point x="953" y="915"/>
			<point x="934" y="937" type="curve" smooth="yes"/>
			<point x="911" y="964"/>
			<point x="885" y="985"/>
			<point x="854" y="1000" type="curve" smooth="yes"/>
			<point x="821" y="1017"/>
			<point x="788" y="1025"/>
			<point x="753" y="1025" type="curve" smooth="yes"/>
			<point x="668" y="1025"/>
			<point x="599" y="984"/>
			<point x="544" y="901" type="curve" smooth="yes"/>
			<point x="497" y="832"/>
			<point x="474" y="748"/>
		</contour>
	</outline>
</glyph>
<glyph name="ordfeminine" format="2">
	<advance width="1505"/>
	<unicode hex="00AA"/>
	<note>
		ordfeminine
	</note>
	<outline>
		<contour>
			<point x="474" y="375" type="curve" smooth="yes"/>
			<point x="847" y="375" type="line" smooth="yes"/>
			<point x="916" y="375"/>
			<point x="978" y="399"/>
			<point x="1033" y="447" type="curve"/>
			<point x="1085" y="399"/>
			<point x="1147" y="375"/>
			<point x="1219" y="375" type="curve" smooth="yes"/>
			<point x="1311" y="375" type="line"/>
			<point x="1311" y="561" type="line"/>
			<point x="1219" y="561" type="line" smooth="yes"/>
			<point x="1156" y="561"/>
			<point x="1125" y="592"/>
			<point x="1125" y="655" type="curve" smooth="yes"/>
			<point x="1125" y="1027" type="line" smooth="yes"/>
			<point x="1125" y="1064"/>
			<point x="1118" y="1100"/>
			<point x="1103" y="1134" type="curve" smooth="yes"/>
			<point x="1088" y="1168"/>
			<point x="1068" y="1198"/>
			<point x="1043" y="1223" type="curve" smooth="yes"/>
			<point x="1018" y="1248"/>
			<point x="988" y="1269"/>
			<point x="954" y="1284" type="curve" smooth="yes"/>
			<point x="920" y="1299"/>
			<point x="884" y="1306"/>
			<point x="847" y="1306" type="curve" smooth="yes"/>
			<point x="474" y="1306" type="line" smooth="yes"/>
			<point x="435" y="1306"/>
			<point x="399" y="1299"/>
			<point x="365" y="1284" type="curve" smooth="yes"/>
			<point x="331" y="1269"/>
			<point x="301" y="1248"/>
			<point x="276" y="1223" type="curve" smooth="yes"/>
			<point x="225" y="1172"/>
			<point x="194" y="1102"/>
			<point x="194" y="1027" type="curve"/>
			<point x="380" y="1027" type="line"/>
			<point x="380" y="1089"/>
			<point x="411" y="1120"/>
			<point x="474" y="1120" type="curve" smooth="yes"/>
			<point x="847" y="1120" type="line" smooth="yes"/>
			<point x="908" y="1120"/>
			<point x="939" y="1089"/>
			<point x="939" y="1027" type="curve" smooth="yes"/>
			<point x="939" y="965"/>
			<point x="908" y="934"/>
			<point x="847" y="934" type="curve" smooth="yes"/>
			<point x="474" y="934" type="line" smooth="yes"/>
			<point x="435" y="934"/>
			<point x="399" y="927"/>
			<point x="365" y="912" type="curve" smooth="yes"/>
			<point x="331" y="897"/>
			<point x="301" y="876"/>
			<point x="276" y="851" type="curve" smooth="yes"/>
			<point x="251" y="826"/>
			<point x="231" y="796"/>
			<point x="216" y="762" type="curve" smooth="yes"/>
			<point x="201" y="729"/>
			<point x="194" y="693"/>
			<point x="194" y="655" type="curve" smooth="yes"/>
			<point x="194" y="616"/>
			<point x="201" y="580"/>
			<point x="216" y="546" type="curve" smooth="yes"/>
			<point x="231" y="513"/>
			<point x="251" y="483"/>
			<point x="276" y="457" type="curve" smooth="yes"/>
			<point x="301" y="432"/>
			<point x="331" y="412"/>
			<point x="365" y="397" type="curve" smooth="yes"/>
			<point x="399" y="382"/>
			<point x="435" y="375"/>
		</contour>
		<contour>
			<point x="380" y="655" type="curve" smooth="yes"/>
			<point x="380" y="718"/>
			<point x="411" y="749"/>
			<point x="474" y="749" type="curve" smooth="yes"/>
			<point x="847" y="749" type="line" smooth="yes"/>
			<point x="882" y="749"/>
			<point x="912" y="754"/>
			<point x="939" y="764" type="curve"/>
			<point x="939" y="655" type="line" smooth="yes"/>
			<point x="939" y="592"/>
			<point x="908" y="561"/>
			<point x="847" y="561" type="curve" smooth="yes"/>
			<point x="474" y="561" type="line" smooth="yes"/>
			<point x="411" y="561"/>
			<point x="380" y="592"/>
		</contour>
	</outline>
</glyph>
<glyph name="guillemotleft" format="2">
	<advance width="2585"/>
	<unicode hex="00AB"/>
	<note>
		guillemotleft
	</note>
	<outline>
		<contour>
			<point x="1243" y="454" type="line"/>
			<point x="2217" y="170" type="line"/>
			<point x="2217" y="314" type="line"/>
			<point x="1487" y="520" type="line"/>
			<point x="2217" y="730" type="line"/>
			<point x="2217" y="865" type="line"/>
			<point x="1243" y="590" type="line"/>
		</contour>
		<contour>
			<point x="258" y="591" type="line"/>
			<point x="258" y="456" type="line"/>
			<point x="1232" y="186" type="line"/>
			<point x="1232" y="330" type="line"/>
			<point x="504" y="525" type="line"/>
			<point x="1232" y="723" type="line"/>
			<point x="1232" y="858" type="line"/>
			<point x="258" y="597" type="line"/>
			<point x="261" y="590" type="line"/>
		</contour>
	</outline>
</glyph>
<glyph name="logicalnot" format="2">
	<advance width="1608"/>
	<unicode hex="00AC"/>
	<note>
		logicalnot
	</note>
	<outline>
		<contour>
			<point x="1294" y="560" type="line"/>
			<point x="1294" y="100" type="line"/>
			<point x="1428" y="100" type="line"/>
			<point x="1428" y="694" type="line"/>
			<point x="154" y="694" type="line"/>
			<point x="154" y="560" type="line"/>
		</contour>
	</outline>
</glyph>
<glyph name="uni00AD" format="2">
	<advance width="1128"/>
	<unicode hex="00AD"/>
	<note>
		uni00AD
	</note>
	<outline>
		<contour>
			<point x="191" y="694" type="line"/>
			<point x="191" y="560" type="line"/>
			<point x="938" y="560" type="line"/>
			<point x="938" y="694" type="line"/>
		</contour>
	</outline>
</glyph>
<glyph name="registered" format="2">
	<advance width="1483"/>
	<unicode hex="00AE"/>
	<note>
		registered
	</note>
	<outline>
		<contour>
			<point x="753" y="0" type="curve" smooth="yes"/>
			<point x="911" y="0"/>
			<point x="1045" y="66"/>
			<point x="1154" y="198" type="curve" smooth="yes"/>
			<point x="1259" y="325"/>
			<point x="1311" y="476"/>
			<point x="1311" y="651" type="curve" smooth="yes"/>
			<point x="1311" y="827"/>
			<point x="1259" y="979"/>
			<point x="1154" y="1107" type="curve" smooth="yes"/>
			<point x="1045" y="1238"/>
			<point x="911" y="1304"/>
			<point x="753" y="1304" type="curve" smooth="yes"/>
			<point x="594" y="1304"/>
			<point x="461" y="1238"/>
			<point x="352" y="1107" type="curve" smooth="yes"/>
			<point x="247" y="978"/>
			<point x="194" y="826"/>
			<point x="194" y="651" type="curve" smooth="yes"/>
			<point x="194" y="476"/>
			<point x="247" y="325"/>
			<point x="352" y="198" type="curve" smooth="yes"/>
			<point x="461" y="66"/>
			<point x="594" y="0"/>
		</contour>
		<contour>
			<point x="380" y="651" type="curve" smooth="yes"/>
			<point x="380" y="784"/>
			<point x="418" y="897"/>
			<point x="495" y="988" type="curve" smooth="yes"/>
			<point x="566" y="1074"/>
			<point x="652" y="1117"/>
			<point x="753" y="1117" type="curve" smooth="yes"/>
			<point x="853" y="1117"/>
			<point x="939" y="1074"/>
			<point x="1011" y="988" type="curve" smooth="yes"/>
			<point x="1087" y="896"/>
			<point x="1125" y="784"/>
			<point x="1125" y="651" type="curve" smooth="yes"/>
			<point x="1125" y="536"/>
			<point x="1096" y="436"/>
			<point x="1037" y="351" type="curve"/>
			<point x="911" y="538" type="line"/>
			<point x="958" y="561"/>
			<point x="992" y="600"/>
			<point x="1013" y="654" type="curve" smooth="yes"/>
			<point x="1025" y="681"/>
			<point x="1031" y="712"/>
			<point x="1031" y="745" type="curve" smooth="yes"/>
			<point x="1031" y="778"/>
			<point x="1025" y="808"/>
			<point x="1013" y="836" type="curve" smooth="yes"/>
			<point x="997" y="875"/>
			<point x="971" y="909"/>
			<point x="936" y="936" type="curve" smooth="yes"/>
			<point x="900" y="964"/>
			<point x="854" y="978"/>
			<point x="799" y="978" type="curve" smooth="yes"/>
			<point x="520" y="978" type="line"/>
			<point x="520" y="349" type="line"/>
			<point x="707" y="349" type="line"/>
			<point x="707" y="509" type="line"/>
			<point x="814" y="349" type="line"/>
			<point x="1036" y="349" type="line"/>
			<point x="1027" y="336"/>
			<point x="1019" y="325"/>
			<point x="1011" y="316" type="curve" smooth="yes"/>
			<point x="938" y="229"/>
			<point x="852" y="186"/>
			<point x="753" y="186" type="curve" smooth="yes"/>
			<point x="652" y="186"/>
			<point x="566" y="229"/>
			<point x="495" y="316" type="curve" smooth="yes"/>
			<point x="418" y="407"/>
			<point x="380" y="518"/>
		</contour>
		<contour>
			<point x="799" y="699" type="curve" smooth="yes"/>
			<point x="707" y="699" type="line"/>
			<point x="707" y="791" type="line"/>
			<point x="799" y="791" type="line" smooth="yes"/>
			<point x="821" y="791"/>
			<point x="835" y="783"/>
			<point x="841" y="768" type="curve" smooth="yes"/>
			<point x="844" y="762"/>
			<point x="845" y="754"/>
			<point x="845" y="745" type="curve" smooth="yes"/>
			<point x="845" y="736"/>
			<point x="844" y="728"/>
			<point x="841" y="722" type="curve" smooth="yes"/>
			<point x="835" y="707"/>
			<point x="821" y="699"/>
		</contour>
	</outline>
</glyph>
<glyph name="degree" format="2">
	<advance width="950"/>
	<unicode hex="00B0"/>
	<note>
		degree
	</note>
	<outline>
		<contour>
			<point x="474" y="710" type="curve" smooth="yes"/>
			<point x="511" y="710"/>
			<point x="547" y="717"/>
			<point x="581" y="732" type="curve" smooth="yes"/>
			<point x="615" y="747"/>
			<point x="645" y="767"/>
			<point x="670" y="792" type="curve" smooth="yes"/>
			<point x="695" y="818"/>
			<point x="715" y="848"/>
			<point x="730" y="882" type="curve" smooth="yes"/>
			<point x="745" y="915"/>
			<point x="753" y="951"/>
			<point x="753" y="990" type="curve" smooth="yes"/>
			<point x="753" y="1028"/>
			<point x="745" y="1064"/>
			<point x="730" y="1098" type="curve" smooth="yes"/>
			<point x="701" y="1165"/>
			<point x="649" y="1216"/>
			<point x="581" y="1247" type="curve" smooth="yes"/>
			<point x="547" y="1262"/>
			<point x="511" y="1270"/>
			<point x="474" y="1270" type="curve" smooth="yes"/>
			<point x="397" y="1270"/>
			<point x="327" y="1237"/>
			<point x="276" y="1186" type="curve" smooth="yes"/>
			<point x="225" y="1135"/>
			<point x="194" y="1066"/>
			<point x="194" y="990" type="curve" smooth="yes"/>
			<point x="194" y="951"/>
			<point x="201" y="915"/>
			<point x="216" y="882" type="curve" smooth="yes"/>
			<point x="231" y="848"/>
			<point x="251" y="818"/>
			<point x="276" y="792" type="curve" smooth="yes"/>
			<point x="301" y="767"/>
			<point x="331" y="747"/>
			<point x="365" y="732" type="curve" smooth="yes"/>
			<point x="399" y="717"/>
			<point x="435" y="710"/>
		</contour>
	</outline>
</glyph>
<glyph name="plusminus" format="2">
	<advance width="1130"/>
	<unicode hex="00B1"/>
	<note>
		plusminus
	</note>
	<outline>
		<contour>
			<point x="468" y="646" type="line"/>
			<point x="468" y="366" type="line"/>
			<point x="654" y="366" type="line"/>
			<point x="654" y="646" type="line"/>
			<point x="933" y="646" type="line"/>
			<point x="933" y="832" type="line"/>
			<point x="654" y="832" type="line"/>
			<point x="654" y="1111" type="line"/>
			<point x="468" y="1111" type="line"/>
			<point x="468" y="832" type="line"/>
			<point x="188" y="832" type="line"/>
			<point x="188" y="646" type="line"/>
		</contour>
		<contour>
			<point x="193" y="194" type="line"/>
			<point x="193" y="8" type="line"/>
			<point x="938" y="8" type="line"/>
			<point x="938" y="194" type="line"/>
		</contour>
	</outline>
</glyph>
<glyph name="uni00B2" format="2">
	<advance width="987"/>
	<unicode hex="00B2"/>
	<note>
		uni00B2
	</note>
	<outline>
		<contour>
			<point x="194" y="732" type="line"/>
			<point x="194" y="559" type="line"/>
			<point x="799" y="559" type="line"/>
			<point x="799" y="745" type="line"/>
			<point x="581" y="745" type="line"/>
			<point x="644" y="782" type="line"/>
			<point x="663" y="795"/>
			<point x="681" y="811"/>
			<point x="698" y="829" type="curve" smooth="yes"/>
			<point x="715" y="848"/>
			<point x="729" y="868"/>
			<point x="741" y="889" type="curve" smooth="yes"/>
			<point x="765" y="932"/>
			<point x="780" y="977"/>
			<point x="780" y="1021" type="curve" smooth="yes"/>
			<point x="780" y="1060"/>
			<point x="772" y="1096"/>
			<point x="756" y="1130" type="curve" smooth="yes"/>
			<point x="724" y="1199"/>
			<point x="671" y="1251"/>
			<point x="600" y="1282" type="curve" smooth="yes"/>
			<point x="564" y="1297"/>
			<point x="526" y="1304"/>
			<point x="487" y="1304" type="curve" smooth="yes"/>
			<point x="407" y="1304"/>
			<point x="333" y="1272"/>
			<point x="280" y="1220" type="curve" smooth="yes"/>
			<point x="253" y="1195"/>
			<point x="232" y="1165"/>
			<point x="217" y="1130" type="curve" smooth="yes"/>
			<point x="202" y="1096"/>
			<point x="194" y="1060"/>
			<point x="194" y="1021" type="curve"/>
			<point x="380" y="1021" type="line"/>
			<point x="380" y="1071"/>
			<point x="425" y="1117"/>
			<point x="487" y="1117" type="curve" smooth="yes"/>
			<point x="536" y="1117"/>
			<point x="570" y="1090"/>
			<point x="585" y="1057" type="curve" smooth="yes"/>
			<point x="591" y="1046"/>
			<point x="594" y="1034"/>
			<point x="594" y="1021" type="curve" smooth="yes"/>
			<point x="594" y="1011"/>
			<point x="589" y="998"/>
			<point x="580" y="981" type="curve" smooth="yes"/>
			<point x="571" y="964"/>
			<point x="559" y="950"/>
			<point x="544" y="939" type="curve"/>
		</contour>
	</outline>
</glyph>
<glyph name="uni00B3" format="2">
	<advance width="993"/>
	<unicode hex="00B3"/>
	<note>
		uni00B3
	</note>
	<outline>
		<contour>
			<point x="497" y="559" type="curve" smooth="yes"/>
			<point x="538" y="559"/>
			<point x="576" y="566"/>
			<point x="613" y="581" type="curve" smooth="yes"/>
			<point x="650" y="596"/>
			<point x="682" y="615"/>
			<point x="710" y="640" type="curve" smooth="yes"/>
			<point x="737" y="665"/>
			<point x="759" y="695"/>
			<point x="775" y="729" type="curve" smooth="yes"/>
			<point x="791" y="763"/>
			<point x="799" y="800"/>
			<point x="799" y="839" type="curve" smooth="yes"/>
			<point x="799" y="932"/>
			<point x="755" y="1016"/>
			<point x="664" y="1071" type="curve"/>
			<point x="799" y="1161" type="line"/>
			<point x="799" y="1304" type="line"/>
			<point x="194" y="1304" type="line"/>
			<point x="194" y="1117" type="line"/>
			<point x="400" y="1117" type="line"/>
			<point x="327" y="1070" type="line"/>
			<point x="327" y="1069"/>
			<point x="326" y="1068"/>
			<point x="324" y="1068" type="curve"/>
			<point x="322" y="1066" type="line"/>
			<point x="423" y="910" type="line"/>
			<point x="435" y="918"/>
			<point x="447" y="923"/>
			<point x="458" y="926" type="curve" smooth="yes"/>
			<point x="469" y="929"/>
			<point x="482" y="931"/>
			<point x="497" y="931" type="curve" smooth="yes"/>
			<point x="512" y="931"/>
			<point x="526" y="929"/>
			<point x="540" y="924" type="curve" smooth="yes"/>
			<point x="553" y="919"/>
			<point x="565" y="913"/>
			<point x="576" y="905" type="curve" smooth="yes"/>
			<point x="587" y="897"/>
			<point x="596" y="887"/>
			<point x="603" y="875" type="curve" smooth="yes"/>
			<point x="610" y="864"/>
			<point x="613" y="852"/>
			<point x="613" y="839" type="curve" smooth="yes"/>
			<point x="613" y="825"/>
			<point x="610" y="812"/>
			<point x="603" y="800" type="curve" smooth="yes"/>
			<point x="596" y="789"/>
			<point x="587" y="779"/>
			<point x="576" y="771" type="curve" smooth="yes"/>
			<point x="565" y="763"/>
			<point x="553" y="757"/>
			<point x="540" y="752" type="curve" smooth="yes"/>
			<point x="526" y="747"/>
			<point x="512" y="745"/>
			<point x="497" y="745" type="curve" smooth="yes"/>
			<point x="480" y="745"/>
			<point x="465" y="747"/>
			<point x="451" y="752" type="curve" smooth="yes"/>
			<point x="437" y="757"/>
			<point x="425" y="764"/>
			<point x="414" y="773" type="curve" smooth="yes"/>
			<point x="393" y="792"/>
			<point x="380" y="814"/>
			<point x="380" y="839" type="curve"/>
			<point x="194" y="839" type="line"/>
			<point x="194" y="800"/>
			<point x="202" y="763"/>
			<point x="218" y="729" type="curve" smooth="yes"/>
			<point x="234" y="695"/>
			<point x="256" y="665"/>
			<point x="284" y="640" type="curve" smooth="yes"/>
			<point x="312" y="615"/>
			<point x="344" y="596"/>
			<point x="380" y="581" type="curve" smooth="yes"/>
			<point x="417" y="566"/>
			<point x="456" y="559"/>
		</contour>
	</outline>
</glyph>
<glyph name="acute" format="2">
	<advance width="1124"/>
	<unicode hex="00B4"/>
	<note>
		acute
	</note>
	<outline>
		<contour>
			<point x="586" y="1638" type="line"/>
			<point x="368" y="1200" type="line"/>
			<point x="516" y="1200" type="line"/>
			<point x="731" y="1638" type="line"/>
		</contour>
	</outline>
</glyph>
<glyph name="uni00B5" format="2">
	<advance width="1252"/>
	<unicode hex="00B5"/>
	<note>
		uni00B5
	</note>
	<outline>
		<contour>
			<point x="116" y="470" type="curve"/>
			<point x="116" y="-403" type="line"/>
			<point x="247" y="-403" type="line"/>
			<point x="247" y="151" type="line"/>
			<point x="288" y="102"/>
			<point x="334" y="63"/>
			<point x="386" y="35" type="curve" smooth="yes"/>
			<point x="439" y="8"/>
			<point x="494" y="-6"/>
			<point x="552" y="-6" type="curve" smooth="yes"/>
			<point x="611" y="-6"/>
			<point x="668" y="8"/>
			<point x="722" y="37" type="curve" smooth="yes"/>
			<point x="775" y="66"/>
			<point x="823" y="105"/>
			<point x="864" y="156" type="curve"/>
			<point x="864" y="0" type="line"/>
			<point x="998" y="0" type="line"/>
			<point x="998" y="1112" type="line"/>
			<point x="864" y="1112" type="line"/>
			<point x="864" y="544" type="line" smooth="yes"/>
			<point x="864" y="471"/>
			<point x="850" y="403"/>
			<point x="822" y="339" type="curve" smooth="yes"/>
			<point x="794" y="276"/>
			<point x="756" y="225"/>
			<point x="708" y="187" type="curve" smooth="yes"/>
			<point x="660" y="149"/>
			<point x="608" y="130"/>
			<point x="553" y="130" type="curve" smooth="yes"/>
			<point x="503" y="130"/>
			<point x="456" y="145"/>
			<point x="412" y="176" type="curve" smooth="yes"/>
			<point x="367" y="207"/>
			<point x="331" y="250"/>
			<point x="302" y="303" type="curve" smooth="yes"/>
			<point x="273" y="356"/>
			<point x="255" y="415"/>
			<point x="247" y="478" type="curve"/>
			<point x="247" y="1112" type="line"/>
			<point x="116" y="1112" type="line"/>
			<point x="116" y="543" type="line"/>
			<point x="112" y="543" type="line"/>
			<point x="112" y="519"/>
			<point x="113" y="495"/>
		</contour>
	</outline>
</glyph>
<glyph name="paragraph" format="2">
	<advance width="1644"/>
	<unicode hex="00B6"/>
	<note>
		paragraph
	</note>
	<outline>
		<contour>
			<point x="557" y="373" type="curve"/>
			<point x="557" y="0" type="line"/>
			<point x="746" y="0" type="line"/>
			<point x="746" y="1117" type="line"/>
			<point x="939" y="1117" type="line"/>
			<point x="939" y="0" type="line"/>
			<point x="1125" y="0" type="line"/>
			<point x="1125" y="1304" type="line"/>
			<point x="557" y="1304" type="line" smooth="yes"/>
			<point x="475" y="1304"/>
			<point x="394" y="1272"/>
			<point x="314" y="1208" type="curve" smooth="yes"/>
			<point x="234" y="1143"/>
			<point x="194" y="1020"/>
			<point x="194" y="839" type="curve" smooth="yes"/>
			<point x="194" y="652"/>
			<point x="232" y="527"/>
			<point x="309" y="466" type="curve" smooth="yes"/>
			<point x="386" y="404"/>
			<point x="468" y="373"/>
		</contour>
	</outline>
</glyph>
<glyph name="periodcentered" format="2">
	<advance width="568"/>
	<unicode hex="00B7"/>
	<note>
		periodcentered
	</note>
	<outline>
		<contour>
			<point x="208" y="699" type="line"/>
			<point x="208" y="525" type="line"/>
			<point x="360" y="525" type="line"/>
			<point x="360" y="699" type="line"/>
		</contour>
	</outline>
</glyph>
<glyph name="cedilla" format="2">
	<advance width="574"/>
	<unicode hex="00B8"/>
	<note>
		cedilla
	</note>
	<outline>
		<contour>
			<point x="192" y="0" type="line"/>
			<point x="192" y="-408" type="line"/>
			<point x="326" y="-408" type="line"/>
			<point x="326" y="0" type="line"/>
		</contour>
	</outline>
</glyph>
<glyph name="uni00B9" format="2">
	<advance width="746"/>
	<unicode hex="00B9"/>
	<note>
		uni00B9
	</note>
	<outline>
		<contour>
			<point x="380" y="1050" type="line"/>
			<point x="380" y="559" type="line"/>
			<point x="567" y="559" type="line"/>
			<point x="567" y="1304" type="line"/>
			<point x="386" y="1304" type="line"/>
			<point x="194" y="1133" type="line"/>
			<point x="194" y="885" type="line"/>
		</contour>
	</outline>
</glyph>
